<?xml version="1.0" encoding="UTF-8"?>
<svg version="1.1" xmlns="http://www.w3.org/2000/svg" width="116" height="105">
<path d="M0 0 C10.13449318 7.69708343 16.53587904 18.1824807 18.46875 30.875 C19.69247556 47.53126451 16.48265893 62.99284088 5.40625 76 C-4.60692026 86.46908189 -16.26124548 95.6131916 -31.2265625 96.078125 C-46.29369741 96.29719257 -59.03508621 95.42154742 -70.7578125 84.87109375 C-80.93365984 74.21884906 -83.92726969 61.39519389 -83.82958984 47.04467773 C-83.41796372 31.76976907 -78.52097052 17.04283222 -67.75390625 5.90234375 C-49.29121459 -10.93796727 -21.26161672 -14.66318394 0 0 Z " fill="#13847D" transform="translate(91.53125,8.125)"/>
<path d="M0 0 C1.3126609 0.00636726 1.3126609 0.00636726 2.65184021 0.01286316 C5.41275447 0.02948894 8.1729048 0.06710909 10.93359375 0.10546875 C12.81965082 0.12053647 14.70571948 0.13422119 16.59179688 0.14648438 C21.18518458 0.17933938 25.77801022 0.2310074 30.37109375 0.29296875 C30.47054244 6.10956936 30.54283505 11.92566667 30.59082031 17.74291992 C30.61084021 19.71859365 30.63806467 21.69420884 30.67285156 23.66967773 C30.72179582 26.52212025 30.744159 29.37377424 30.76171875 32.2265625 C30.78236389 33.09880966 30.80300903 33.97105682 30.82427979 34.86973572 C30.82767936 44.3237944 26.87140329 52.47627247 20.37109375 59.29296875 C17.52017096 61.59243568 14.58964636 63.54722581 11.37109375 65.29296875 C10.36820313 65.83953125 9.3653125 66.38609375 8.33203125 66.94921875 C3.23102187 69.07904642 -2.13664489 68.61191549 -7.56640625 68.48046875 C-8.63181641 68.46693359 -9.69722656 68.45339844 -10.79492188 68.43945312 C-13.40678213 68.40431599 -16.01757259 68.35512059 -18.62890625 68.29296875 C-18.72807351 62.84868638 -18.80051534 57.40493427 -18.84863281 51.95996094 C-18.86869964 50.10928179 -18.8959597 48.25866566 -18.93066406 46.40820312 C-18.97940058 43.74202898 -19.00192412 41.07669588 -19.01953125 38.41015625 C-19.04017639 37.58804657 -19.06082153 36.76593689 -19.08209229 35.91891479 C-19.08417023 30.55179097 -18.16262428 27.57254659 -14.62890625 23.29296875 C-12.71343366 21.64987988 -10.81772112 20.58635936 -8.62890625 19.29296875 C-7.96890625 19.62296875 -7.30890625 19.95296875 -6.62890625 20.29296875 C-6.62890625 25.90296875 -6.62890625 31.51296875 -6.62890625 37.29296875 C-1.01890625 37.29296875 4.59109375 37.29296875 10.37109375 37.29296875 C9.24487565 44.05027733 9.24487565 44.05027733 6.43359375 46.10546875 C1.58862909 49.5661578 -0.78706405 49.38719201 -6.62890625 49.29296875 C-6.62890625 51.60296875 -6.62890625 53.91296875 -6.62890625 56.29296875 C4.20333843 54.89576184 4.20333843 54.89576184 12.8359375 48.640625 C16.60284588 43.30144182 17.58351577 37.68763177 18.37109375 31.29296875 C17.08332031 31.30457031 15.79554687 31.31617187 14.46875 31.328125 C12.79036603 31.33750145 11.11198049 31.3466018 9.43359375 31.35546875 C8.15838867 31.36803711 8.15838867 31.36803711 6.85742188 31.38085938 C6.04853516 31.38408203 5.23964844 31.38730469 4.40625 31.390625 C3.65738525 31.39586182 2.90852051 31.40109863 2.13696289 31.40649414 C0.37109375 31.29296875 0.37109375 31.29296875 -0.62890625 30.29296875 C-0.71522499 28.95029462 -0.73597098 27.60322553 -0.7265625 26.2578125 C-0.72333984 25.44892578 -0.72011719 24.64003906 -0.71679688 23.80664062 C-0.70422852 22.53143555 -0.70422852 22.53143555 -0.69140625 21.23046875 C-0.68689453 20.37646484 -0.68238281 19.52246094 -0.67773438 18.64257812 C-0.66590998 16.52601212 -0.64797394 14.4094819 -0.62890625 12.29296875 C-8.30547872 12.65851982 -14.87802679 14.22058533 -20.26953125 20.07421875 C-24.42201809 25.70632733 -24.80009756 30.31693279 -24.91015625 37.08203125 C-24.92856567 37.94106049 -24.9469751 38.80008972 -24.96594238 39.68515015 C-25.04467478 43.36321501 -25.11256147 47.04146072 -25.18115234 50.71972656 C-25.2327373 53.40309097 -25.29002471 56.08629103 -25.34765625 58.76953125 C-25.36123169 59.60803619 -25.37480713 60.44654114 -25.38879395 61.31045532 C-25.51605702 67.18011952 -25.51605702 67.18011952 -26.62890625 68.29296875 C-28.48178127 68.36523377 -30.33724503 68.37678095 -32.19140625 68.35546875 C-33.70927734 68.34193359 -33.70927734 68.34193359 -35.2578125 68.328125 C-36.04027344 68.31652344 -36.82273437 68.30492188 -37.62890625 68.29296875 C-37.72849497 62.63709529 -37.80071221 56.98174297 -37.84863281 51.32519531 C-37.86862961 49.40485736 -37.89583631 47.48457936 -37.93066406 45.56445312 C-38.16342976 32.39265296 -37.98723996 21.80600314 -29.38671875 11.109375 C-21.31222719 2.76573372 -11.33264574 -0.21179619 0 0 Z " fill="#F7FCFC" transform="translate(62.62890625,17.70703125)"/>
<path d="M0 0 C3.68571453 2.57802215 5.20585568 3.91569217 6.18359375 8.33984375 C5.43376221 8.35966309 4.68393066 8.37948242 3.91137695 8.39990234 C0.43932549 8.49648904 -3.03223039 8.60561431 -6.50390625 8.71484375 C-8.27217773 8.76125 -8.27217773 8.76125 -10.07617188 8.80859375 C-23.74644116 9.25802726 -38.66857528 9.91012859 -48.81640625 20.33984375 C-54.60244494 28.73612546 -57.09522129 35.75663133 -57.23046875 45.89453125 C-57.2498349 46.79607941 -57.26920105 47.69762756 -57.28915405 48.62649536 C-57.34864921 51.48918371 -57.39521442 54.35191293 -57.44140625 57.21484375 C-57.47961372 59.16277738 -57.51866705 61.11069461 -57.55859375 63.05859375 C-57.6543259 67.81887633 -57.73846741 72.57923795 -57.81640625 77.33984375 C-66.53176062 68.99600423 -70.74492285 56.90530932 -71.06640625 45.02734375 C-70.69830807 30.28296656 -66.63269381 15.02460771 -56.56640625 3.83984375 C-38.85031583 -12.265693 -19.96296924 -11.76735357 0 0 Z " fill="#11857F" transform="translate(82.81640625,8.66015625)"/>
<path d="M0 0 C12.94769107 -0.74698218 23.03070395 3.62456316 33.03125 11.625 C41.79671089 19.62156081 46.42462451 31.16850032 47.28125 42.828125 C47.82556968 58.5850457 43.83184904 72.72762882 33.25 84.6875 C29.38738739 88.80630631 29.38738739 88.80630631 27 90 C27.61354646 86.72044808 28.76837923 84.72338769 30.75 82.0625 C38.76581768 70.36634296 42.34389706 56.060523 41 42 C39.36013741 35.0212666 36.11617902 29.09257285 32.26953125 23.09375 C31 21 31 21 30 18 C19.77 18 9.54 18 -1 18 C-1 17.67 -1 17.34 -1 17 C7.91 17 16.82 17 26 17 C25.67 15.68 25.34 14.36 25 13 C23.15035606 11.83280001 23.15035606 11.83280001 21 11 C19.84808134 10.23829044 18.70248554 9.46695559 17.5625 8.6875 C12.10747186 5.20953139 6.06335817 3.17208715 0 1 C0 0.67 0 0.34 0 0 Z " fill="#52A49E" transform="translate(63,0)"/>
<path d="M0 0 C0.66 0.33 1.32 0.66 2 1 C1.278125 1.886875 0.55625 2.77375 -0.1875 3.6875 C-8.2337922 15.02545719 -11.24488247 30.28653282 -10 44 C-7.61171035 57.92834469 -0.40804125 71.54819535 11 80 C19.08301031 85.04905126 25.34071514 87.00960155 34.8125 87.5625 C35.85180664 87.62727539 35.85180664 87.62727539 36.91210938 87.69335938 C38.60788686 87.79861453 40.30392052 87.89972863 42 88 C42 88.33 42 88.66 42 89 C25.43420133 89.44984414 10.81189511 89.7307056 -2.2265625 77.99609375 C-12.40240984 67.34384906 -15.39601969 54.52019389 -15.29833984 40.16967773 C-14.88846716 24.95983704 -10.04974652 11.46569019 0 0 Z " fill="#57A5A1" transform="translate(23,15)"/>
<path d="M0 0 C0.66 0 1.32 0 2 0 C2 5.61 2 11.22 2 17 C7.3695593 16.96064501 7.3695593 16.96064501 12.73901367 16.90991211 C16.62944463 16.89557675 20.20130793 17.03319861 24 18 C24.33 17.34 24.66 16.68 25 16 C26.98 18.97 26.98 18.97 29 22 C29.66 21.34 30.32 20.68 31 20 C31.05395478 21.62463842 31.09277195 23.24978541 31.125 24.875 C31.14820312 25.77992187 31.17140625 26.68484375 31.1953125 27.6171875 C31 30 31 30 29 32 C29 31.34 29 30.68 29 30 C28.34 30 27.68 30 27 30 C24.70351351 27.4385343 24 26.52032428 24 23 C23.34 23 22.68 23 22 23 C21.731875 23.928125 21.46375 24.85625 21.1875 25.8125 C20 29 20 29 17 32 C17.66 27.71 18.32 23.42 19 19 C17.71222656 19.01160156 16.42445312 19.02320312 15.09765625 19.03515625 C13.41927228 19.0445327 11.74088674 19.05363305 10.0625 19.0625 C8.78729492 19.07506836 8.78729492 19.07506836 7.48632812 19.08789062 C6.67744141 19.09111328 5.86855469 19.09433594 5.03515625 19.09765625 C4.2862915 19.10289307 3.53742676 19.10812988 2.76586914 19.11352539 C1 19 1 19 0 18 C-0.08631874 16.65732587 -0.10706473 15.31025678 -0.09765625 13.96484375 C-0.09443359 13.15595703 -0.09121094 12.34707031 -0.08789062 11.51367188 C-0.07951172 10.66353516 -0.07113281 9.81339844 -0.0625 8.9375 C-0.05798828 8.08349609 -0.05347656 7.22949219 -0.04882812 6.34960938 C-0.03700373 4.23304337 -0.01906769 2.11651315 0 0 Z " fill="#F0F1F1" transform="translate(62,30)"/>
<path d="M0 0 C-1.375 1.5 -1.375 1.5 -3 3 C-3.66 3 -4.32 3 -5 3 C-7.34570085 3.97063483 -9.68020619 4.96898053 -12 6 C-9.34223434 6 -6.62576483 5.38192943 -4 5 C-3.67 5.66 -3.34 6.32 -3 7 C-3.928125 7.556875 -4.85625 8.11375 -5.8125 8.6875 C-9.15547647 11.11279665 -10.30977615 12.29785554 -12 16 C-12.45354934 19.00566318 -12.48826824 21.98351253 -12.51171875 25.01953125 C-12.53864555 26.30738777 -12.53864555 26.30738777 -12.56611633 27.6212616 C-12.62010741 30.3516251 -12.65407874 33.08181492 -12.6875 35.8125 C-12.720683 37.6686439 -12.75517358 39.52476492 -12.79101562 41.38085938 C-12.87582734 45.92044738 -12.94269177 50.45998486 -13 55 C-13.33 55 -13.66 55 -14 55 C-14.01458252 53.95545654 -14.02916504 52.91091309 -14.04418945 51.8347168 C-14.10215551 47.95985655 -14.17938774 44.08557849 -14.26245117 40.21118164 C-14.29570863 38.53419441 -14.32373808 36.85709503 -14.34643555 35.17993164 C-14.37996737 32.76920775 -14.43227978 30.35951238 -14.48828125 27.94921875 C-14.49467117 27.19912033 -14.5010611 26.44902191 -14.50764465 25.67619324 C-14.57294746 21.61171456 -14.57294746 21.61171456 -16.46557617 18.13989258 C-16.97193604 17.76372803 -17.4782959 17.38756348 -18 17 C-19.0625 14.8125 -19.0625 14.8125 -19 12 C-15.6961649 5.40570565 -7.95230901 -2.86067225 0 0 Z " fill="#329390" transform="translate(57,31)"/>
<path d="M0 0 C0.33 0 0.66 0 1 0 C0.99476318 1.26706787 0.98952637 2.53413574 0.98413086 3.83959961 C0.96608486 8.5228607 0.95456947 13.20611871 0.94506836 17.8894043 C0.94002722 19.91968298 0.93319443 21.94995802 0.92456055 23.98022461 C0.91248533 26.89177347 0.90676966 29.8032745 0.90234375 32.71484375 C0.89718246 33.6283812 0.89202118 34.54191864 0.88670349 35.48313904 C0.88650832 37.65575427 0.93788195 39.82827296 1 42 C2.96822886 43.96822886 6.34808709 43.66248381 9 44 C8.98952637 42.87505127 8.97905273 41.75010254 8.96826172 40.59106445 C8.93199154 36.4071777 8.90907398 32.22330479 8.89013672 28.03930664 C8.88009513 26.23036357 8.8664592 24.42143667 8.84912109 22.61254883 C8.82479168 20.00858565 8.81349839 17.40483758 8.8046875 14.80078125 C8.78920364 13.59268547 8.78920364 13.59268547 8.77340698 12.36018372 C8.77256271 8.11030774 9.03483771 4.87932557 11 1 C11.66 1.33 12.32 1.66 13 2 C12.67 2.99 12.34 3.98 12 5 C11.85756986 7.93560259 11.76653539 10.85178559 11.71875 13.7890625 C11.70034058 14.64809174 11.68193115 15.50712097 11.66296387 16.3921814 C11.58423147 20.07024626 11.51634478 23.74849197 11.44775391 27.42675781 C11.39616895 30.11012222 11.33888154 32.79332228 11.28125 35.4765625 C11.26767456 36.31506744 11.25409912 37.15357239 11.2401123 38.01748657 C11.11284923 43.88715077 11.11284923 43.88715077 10 45 C8.14712498 45.07226502 6.29166122 45.0838122 4.4375 45.0625 C3.42558594 45.05347656 2.41367187 45.04445312 1.37109375 45.03515625 C0.58863281 45.02355469 -0.19382812 45.01195312 -1 45 C-1.0247279 39.23421542 -1.04287328 33.46846175 -1.05493164 27.70263672 C-1.05995887 25.74136823 -1.06678157 23.78010348 -1.07543945 21.81884766 C-1.08757545 18.99901403 -1.09324444 16.17922998 -1.09765625 13.359375 C-1.10281754 12.48319519 -1.10797882 11.60701538 -1.11329651 10.70428467 C-1.11337204 9.88373596 -1.11344757 9.06318726 -1.11352539 8.21777344 C-1.115746 7.49829529 -1.11796661 6.77881714 -1.12025452 6.03753662 C-0.99505875 3.91627776 -0.57918565 2.04033713 0 0 Z " fill="#D6F6F7" transform="translate(26,41)"/>
<path d="M0 0 C11.74592478 -0.67764951 21.75286251 2.70835037 31 10 C31.99 11.485 31.99 11.485 33 13 C30.92446352 13.5534764 29.15634036 14 27 14 C26.01 14.495 26.01 14.495 25 15 C25 14.34 25 13.68 25 13 C24.41089844 12.71769531 23.82179688 12.43539063 23.21484375 12.14453125 C21.20485031 11.10585739 19.42683506 9.96222353 17.5625 8.6875 C12.10747186 5.20953139 6.06335817 3.17208715 0 1 C0 0.67 0 0.34 0 0 Z " fill="#58A9A4" transform="translate(63,0)"/>
<path d="M0 0 C0.928125 0.86625 1.85625 1.7325 2.8125 2.625 C11.4036428 9.99133629 19.69862887 12.91374771 30.8125 13.5625 C31.85180664 13.62727539 31.85180664 13.62727539 32.91210938 13.69335938 C34.60788686 13.79861453 36.30392052 13.89972863 38 14 C38 14.33 38 14.66 38 15 C15.19872014 15.61916858 15.19872014 15.61916858 6 12 C6 11.01 6 10.02 6 9 C5.01 9 4.02 9 3 9 C2.71125 8.21625 2.4225 7.4325 2.125 6.625 C1.15087746 3.90328368 1.15087746 3.90328368 -1 2 C-0.67 1.34 -0.34 0.68 0 0 Z " fill="#4C9D99" transform="translate(27,89)"/>
<path d="M0 0 C0.66 0.33 1.32 0.66 2 1 C1.278125 1.886875 0.55625 2.77375 -0.1875 3.6875 C-4.68609249 9.96252533 -7.25275667 17.6637775 -9.0625 25.125 C-10.14456881 28.44334434 -11.19590855 29.09299213 -14 31 C-12.81154579 19.11545788 -7.83837461 8.91766888 0 0 Z " fill="#54A19C" transform="translate(23,15)"/>
<path d="M0 0 C0.33 0 0.66 0 1 0 C1.21730594 5.19555284 1.41411267 10.39132822 1.59204102 15.58837891 C1.65543104 17.35584203 1.72439784 19.12311438 1.79907227 20.89013672 C1.90550518 23.43166898 1.99179589 25.97321476 2.07421875 28.515625 C2.11157639 29.30430969 2.14893402 30.09299438 2.18742371 30.90557861 C2.28085123 34.32231691 2.2663175 36.55214756 0.49536133 39.53027344 C0.00189209 40.0152832 -0.49157715 40.50029297 -1 41 C-1.02464705 35.32169922 -1.04283462 29.64342931 -1.05493164 23.96508789 C-1.05997256 22.03181415 -1.06680519 20.09854424 -1.07543945 18.1652832 C-1.08751565 15.39273128 -1.09323057 12.62022959 -1.09765625 9.84765625 C-1.10281754 8.97786636 -1.10797882 8.10807648 -1.11329651 7.21192932 C-1.11349185 5.14094186 -1.06208168 3.07005676 -1 1 C-0.67 0.67 -0.34 0.34 0 0 Z " fill="#1F7F7C" transform="translate(38,45)"/>
<path d="M0 0 C0.66 0 1.32 0 2 0 C2 12.54 2 25.08 2 38 C-1 35 -1 35 -1.2487793 31.4465332 C-1.20641179 29.98073984 -1.14716068 28.51537152 -1.07421875 27.05078125 C-1.04777786 26.27816452 -1.02133698 25.50554779 -0.99409485 24.70951843 C-0.90635819 22.24305698 -0.7972037 19.77807257 -0.6875 17.3125 C-0.62423822 15.6400268 -0.56237225 13.96750018 -0.50195312 12.29492188 C-0.35082229 8.19581901 -0.18047878 4.09791136 0 0 Z " fill="#217D75" transform="translate(23,48)"/>
<path d="M0 0 C0.66 0 1.32 0 2 0 C2 5.61 2 11.22 2 17 C7.61 17 13.22 17 19 17 C19 17.99 19 18.98 19 20 C16.02046641 19.85982174 13.04150696 19.71313658 10.0625 19.5625 C9.21236328 19.52318359 8.36222656 19.48386719 7.48632812 19.44335938 C6.67744141 19.40146484 5.86855469 19.35957031 5.03515625 19.31640625 C3.91185913 19.26141968 3.91185913 19.26141968 2.76586914 19.20532227 C1 19 1 19 0 18 C-0.08631874 16.65732587 -0.10706473 15.31025678 -0.09765625 13.96484375 C-0.09443359 13.15595703 -0.09121094 12.34707031 -0.08789062 11.51367188 C-0.07951172 10.66353516 -0.07113281 9.81339844 -0.0625 8.9375 C-0.05798828 8.08349609 -0.05347656 7.22949219 -0.04882812 6.34960938 C-0.03700373 4.23304337 -0.01906769 2.11651315 0 0 Z " fill="#BAE5E2" transform="translate(62,30)"/>
<path d="M0 0 C1.0625 1.875 1.0625 1.875 2 4 C1.67 4.66 1.34 5.32 1 6 C0.34 6 -0.32 6 -1 6 C-1 17.88 -1 29.76 -1 42 C6.26 42 13.52 42 21 42 C21 42.33 21 42.66 21 43 C13.41 43 5.82 43 -2 43 C-2.04593157 37.5188331 -2.08575099 32.03833497 -2.10986328 26.55712891 C-2.11991593 24.69284806 -2.13356005 22.82858297 -2.15087891 20.96435547 C-2.17515953 18.28348909 -2.18649047 15.60283134 -2.1953125 12.921875 C-2.20563507 12.08944275 -2.21595764 11.2570105 -2.22659302 10.39935303 C-2.22797609 3.25330764 -2.22797609 3.25330764 0 0 Z " fill="#E0F9F8" transform="translate(46,43)"/>
<path d="M0 0 C1.67542976 0.28604898 3.34385343 0.61781233 5 1 C5.66 2.98 6.32 4.96 7 7 C6.01 7.33 5.02 7.66 4 8 C3.34 7.67 2.68 7.34 2 7 C-0.32273159 6.84479443 -2.64959313 6.74980833 -4.9765625 6.68359375 C-5.66181 6.66281265 -6.3470575 6.64203156 -7.05307007 6.62062073 C-9.24361069 6.55519815 -11.43427189 6.49627446 -13.625 6.4375 C-15.1093875 6.39430782 -16.59376278 6.3506933 -18.078125 6.30664062 C-21.71862084 6.19952447 -25.35925251 6.09823638 -29 6 C-29 5.67 -29 5.34 -29 5 C-20.09 5 -11.18 5 -2 5 C-1.67 3.68 -1.34 2.36 -1 1 C-0.67 0.67 -0.34 0.34 0 0 Z " fill="#4B9F9B" transform="translate(91,12)"/>
<path d="M0 0 C2.475 0.99 2.475 0.99 5 2 C5.33 5.96 5.66 9.92 6 14 C5.01 14.495 5.01 14.495 4 15 C3.67 15.99 3.34 16.98 3 18 C2.34 18 1.68 18 1 18 C0.67 12.06 0.34 6.12 0 0 Z " fill="#54AAA5" transform="translate(104,39)"/>
<path d="M0 0 C0.33 0.66 0.66 1.32 1 2 C-3.09558862 8.2989904 -7.04814032 13.38427208 -13 18 C-12.36811627 14.57534623 -11.03508836 12.28786606 -9.0625 9.4375 C-8.53785156 8.67308594 -8.01320313 7.90867187 -7.47265625 7.12109375 C-6.74369141 6.07115234 -6.74369141 6.07115234 -6 5 C-5.34 4.01 -4.68 3.02 -4 2 C-3.67 2.33 -3.34 2.66 -3 3 C-2.01 2.01 -1.02 1.02 0 0 Z " fill="#4D9994" transform="translate(103,72)"/>
<path d="M0 0 C8.6309795 3.85421412 8.6309795 3.85421412 11 8 C8.92446352 8.5534764 7.15634036 9 5 9 C4.01 9.495 4.01 9.495 3 10 C3 9.34 3 8.68 3 8 C1.68 7.34 0.36 6.68 -1 6 C-0.34 5.01 0.32 4.02 1 3 C0.67 2.01 0.34 1.02 0 0 Z " fill="#56A49F" transform="translate(85,5)"/>
<path d="M0 0 C2 1 2 1 4 3 C4.046875 4.875 4.046875 4.875 3.75 7 C3.61851563 8.051875 3.61851563 8.051875 3.484375 9.125 C3 11 3 11 1 13 C-0.32 9.7 -1.64 6.4 -3 3 C-2.01 2.01 -1.02 1.02 0 0 Z " fill="#50A8A4" transform="translate(100,21)"/>
<path d="M0 0 C1.32 0.66 2.64 1.32 4 2 C3.814375 2.5775 3.62875 3.155 3.4375 3.75 C2.95976454 6.20692525 3.24270636 7.64397534 4 10 C2.68 10.99 1.36 11.98 0 13 C-0.19551338 11.39679026 -0.38111983 9.79237014 -0.5625 8.1875 C-0.71912109 6.84751953 -0.71912109 6.84751953 -0.87890625 5.48046875 C-1 3 -1 3 0 0 Z " fill="#1E867E" transform="translate(73,56)"/>
<path d="M0 0 C0.33 0.66 0.66 1.32 1 2 C1.66 2.33 2.32 2.66 3 3 C2.67 3.99 2.34 4.98 2 6 C5.04913228 7.01111093 5.04913228 7.01111093 8 6 C8.33 7.32 8.66 8.64 9 10 C8.38125 10.12375 7.7625 10.2475 7.125 10.375 C4.80879168 10.87197356 4.80879168 10.87197356 3 13 C2.49242138 11.58603098 1.99425075 10.16868271 1.5 8.75 C1.08234375 7.56664063 1.08234375 7.56664063 0.65625 6.359375 C0 4 0 4 0 0 Z " fill="#56A29B" transform="translate(9,67)"/>
<path d="M0 0 C0.99 0.33 1.98 0.66 3 1 C4.1875 3.5625 4.1875 3.5625 5 6 C3.35 6.33 1.7 6.66 0 7 C0 6.34 0 5.68 0 5 C-0.66 5 -1.32 5 -2 5 C-1.125 1.125 -1.125 1.125 0 0 Z " fill="#54AAA6" transform="translate(22,85)"/>
<path d="M0 0 C-1.375 1.5 -1.375 1.5 -3 3 C-3.66 3 -4.32 3 -5 3 C-8.74188912 4.52447334 -12.41461046 6.13559744 -16 8 C-12.38659152 2.57988727 -6.73279711 -2.31439901 0 0 Z " fill="#2C8A83" transform="translate(57,31)"/>
<path d="M0 0 C0.66 0.33 1.32 0.66 2 1 C-1.63 4.96 -5.26 8.92 -9 13 C-9.66 12.67 -10.32 12.34 -11 12 C-7.72469104 7.36279281 -4.69564393 3.31457218 0 0 Z " fill="#DCF6F6" transform="translate(40,23)"/>
<path d="M0 0 C0.66 0.33 1.32 0.66 2 1 C1.195625 1.61875 0.39125 2.2375 -0.4375 2.875 C-3.03874519 4.74164041 -3.03874519 4.74164041 -4 7 C-4.66 7 -5.32 7 -6 7 C-6.66 8.32 -7.32 9.64 -8 11 C-8.99 10.67 -9.98 10.34 -11 10 C-7.50640535 6.40365256 -3.88901869 3.16548033 0 0 Z " fill="#268077" transform="translate(35,5)"/>
<path d="M0 0 C0.33 0 0.66 0 1 0 C1.06058594 0.71027344 1.12117188 1.42054687 1.18359375 2.15234375 C1.26738281 3.07144531 1.35117187 3.99054688 1.4375 4.9375 C1.51871094 5.85402344 1.59992187 6.77054687 1.68359375 7.71484375 C1.76044976 9.96159732 1.76044976 9.96159732 3 11 C4.34747084 11.23075082 5.70377565 11.41153063 7.0625 11.5625 C8.361875 11.706875 9.66125 11.85125 11 12 C11 12.33 11 12.66 11 13 C7.37 13 3.74 13 0 13 C0 8.71 0 4.42 0 0 Z " fill="#DCFDFD" transform="translate(25,73)"/>
<path d="M0 0 C4.8333472 -0.08333357 9.23692563 0.04738513 14 1 C13.67 1.66 13.34 2.32 13 3 C8.17639811 3.19294408 4.50353262 2.75747614 0 1 C0 0.67 0 0.34 0 0 Z " fill="#5CB1AB" transform="translate(63,0)"/>
<path d="M0 0 C2 2 2 2 2.125 4.625 C2.08375 5.40875 2.0425 6.1925 2 7 C0.35 7 -1.3 7 -3 7 C-1.125 1.125 -1.125 1.125 0 0 Z " fill="#10867C" transform="translate(71,63)"/>
<path d="M0 0 C0.33 0 0.66 0 1 0 C1.10884119 1.41493551 1.18597617 2.83232943 1.25 4.25 C1.29640625 5.03890625 1.3428125 5.8278125 1.390625 6.640625 C0.86714932 9.80241809 -0.61862776 10.95614508 -3 13 C-2.69240822 11.02006459 -2.3787932 9.04106401 -2.0625 7.0625 C-1.88847656 5.96035156 -1.71445313 4.85820313 -1.53515625 3.72265625 C-1 1 -1 1 0 0 Z " fill="#D9F8F6" transform="translate(82,49)"/>
<path d="M0 0 C1.65 0 3.3 0 5 0 C5.625 2.375 5.625 2.375 6 5 C5.34 5.66 4.68 6.32 4 7 C1.49962266 4.82575883 0.56371414 3.26954202 0 0 Z " fill="#0B877E" transform="translate(74,52)"/>
<path d="M0 0 C0.33 0 0.66 0 1 0 C2.32286246 4.96073422 2.08893197 9.91111512 2 15 C1.67 15 1.34 15 1 15 C0.8046875 12.94921875 0.609375 10.8984375 0.4140625 8.84765625 C0.20910156 7.93306641 0.20910156 7.93306641 0 7 C-0.66 6.67 -1.32 6.34 -2 6 C-1.34 4.02 -0.68 2.04 0 0 Z " fill="#5C9D94" transform="translate(108,34)"/>
<path d="M0 0 C0.66 0.33 1.32 0.66 2 1 C1.34 4.63 0.68 8.26 0 12 C-2 9 -2 9 -1.7578125 6.73828125 C-1.44457031 5.53751953 -1.44457031 5.53751953 -1.125 4.3125 C-0.92132813 3.50425781 -0.71765625 2.69601563 -0.5078125 1.86328125 C-0.34023437 1.24839844 -0.17265625 0.63351563 0 0 Z " fill="#5B9E97" transform="translate(108,52)"/>
<path d="M0 0 C2 1 2 1 3.125 3.375 C4 6 4 6 4 9 C3.01 8.67 2.02 8.34 1 8 C-0.35439668 5.29120665 -0.06501451 2.99066732 0 0 Z " fill="#549991" transform="translate(104,24)"/>
<path d="M0 0 C0.33 0 0.66 0 1 0 C1.05395478 1.62463842 1.09277195 3.24978541 1.125 4.875 C1.14820312 5.77992187 1.17140625 6.68484375 1.1953125 7.6171875 C1 10 1 10 -1 12 C-2.45606519 7.47907032 -1.27032841 4.48351204 0 0 Z " fill="#CBEEEB" transform="translate(92,50)"/>
<path d="M0 0 C0.33 0 0.66 0 1 0 C1.25 2.25 1.25 2.25 1 5 C-1 7.3125 -1 7.3125 -3 9 C-2.5020163 5.26512223 -2.12508244 3.18762365 0 0 Z " fill="#E0FAFA" transform="translate(89,63)"/>
<path d="M0 0 C0.33 0 0.66 0 1 0 C1.625 3.375 1.625 3.375 2 7 C1.34 7.66 0.68 8.32 0 9 C-1 8 -1 8 -1.125 5.0625 C-1 2 -1 2 0 0 Z " fill="#48A6A3" transform="translate(12,59)"/>
<path d="M0 0 C1.32 0.66 2.64 1.32 4 2 C3.34 3.32 2.68 4.64 2 6 C1.34 6 0.68 6 0 6 C-1 3 -1 3 0 0 Z " fill="#258E8B" transform="translate(73,56)"/>
<path d="M0 0 C1.32 0 2.64 0 4 0 C3.6875 2.375 3.6875 2.375 3 5 C2.01 5.66 1.02 6.32 0 7 C0 5.68 0 4.36 0 3 C0.66 3 1.32 3 2 3 C2 2.34 2 1.68 2 1 C1.34 0.67 0.68 0.34 0 0 Z " fill="#DEFBFB" transform="translate(69,56)"/>
</svg>
