<?xml version="1.0" encoding="UTF-8"?>
<svg version="1.1" xmlns="http://www.w3.org/2000/svg" width="457" height="546">
<path d="M0 0 C3.59991045 0.016142 7.19870637 0.0000234 10.79858398 -0.01904297 C23.81554245 -0.03116887 36.17588669 0.62557254 48.90600586 3.39111328 C49.88400146 3.59510742 50.86199707 3.79910156 51.86962891 4.00927734 C54.22993843 4.52818647 56.56699531 5.09655558 58.90600586 5.70361328 C59.72721924 5.91381104 60.54843262 6.12400879 61.39453125 6.34057617 C74.7806472 9.85040525 87.46201427 14.31248144 99.90600586 20.39111328 C102.22180725 21.48645247 104.54113925 22.57407846 106.86083984 23.66113281 C110.21207404 25.23177442 113.55887524 26.81174865 116.90600586 28.39111328 C117.14319336 27.67697266 117.38038086 26.96283203 117.62475586 26.22705078 C122.74484457 14.8941715 134.78312797 6.83440095 145.89819336 2.11767578 C156.72867005 -1.80152396 167.8914328 0.10954321 178.06225586 4.86767578 C199.72786324 15.95358236 214.27584959 32.89111087 221.77709961 55.83642578 C222.14963867 57.00947266 222.52217773 58.18251953 222.90600586 59.39111328 C223.23600586 60.38111328 223.56600586 61.37111328 223.90600586 62.39111328 C224.13510336 66.69571653 224.13436578 71.00281368 224.14624023 75.31274414 C224.15586149 77.42196381 224.18685497 79.53017259 224.21850586 81.63916016 C224.36820303 100.29731024 216.99115068 115.56803103 204.34350586 129.14111328 C200.45128361 132.73393381 197.0796778 135.83849885 192.28881836 138.09423828 C189.51602155 140.07470311 188.96199838 141.14246459 188.20141602 144.52001953 C187.92621518 147.84835119 187.75410578 151.13550279 187.69564819 154.4725647 C187.62908847 158.11357131 187.44828475 161.74949256 187.28491211 165.38720703 C187.25617508 166.09560226 187.22743805 166.8039975 187.1978302 167.53385925 C186.86430459 175.38137464 185.69840157 182.74821381 183.90600586 190.39111328 C183.65294678 191.49156982 183.65294678 191.49156982 183.39477539 192.61425781 C178.38418898 214.06457378 170.59621854 233.40650755 158.53100586 251.82861328 C157.88748169 252.81522949 157.88748169 252.81522949 157.23095703 253.82177734 C156.17828936 255.38386811 155.04874675 256.89365542 153.90600586 258.39111328 C153.24600586 258.39111328 152.58600586 258.39111328 151.90600586 258.39111328 C151.68299805 258.93123047 151.45999023 259.47134766 151.23022461 260.02783203 C149.48068019 263.15017532 147.15408556 265.61300506 144.71850586 268.20361328 C144.21947754 268.73841309 143.72044922 269.27321289 143.20629883 269.82421875 C142.21597206 270.88191469 141.22320257 271.93732978 140.2277832 272.99023438 C139.16994943 274.11137404 138.12386568 275.24359583 137.08178711 276.37939453 C132.90359954 280.78911894 128.16168949 284.36495868 123.26000977 287.92871094 C119.7424476 290.49948561 119.7424476 290.49948561 117.90600586 294.39111328 C118.89407227 294.71595703 118.89407227 294.71595703 119.90209961 295.04736328 C123.95231762 296.85916432 127.36905308 299.3150777 130.96850586 301.89111328 C132.0860022 302.68654541 132.0860022 302.68654541 133.22607422 303.49804688 C139.66859466 308.13157011 146.19298542 312.86522453 151.90600586 318.39111328 C151.90600586 319.05111328 151.90600586 319.71111328 151.90600586 320.39111328 C152.71038086 320.70048828 152.71038086 320.70048828 153.53100586 321.01611328 C156.82578595 322.92361754 159.49964214 325.43930712 161.90600586 328.39111328 C161.90600586 329.05111328 161.90600586 329.71111328 161.90600586 330.39111328 C162.56600586 330.39111328 163.22600586 330.39111328 163.90600586 330.39111328 C165.85131836 332.50830078 165.85131836 332.50830078 168.03100586 335.26611328 C168.75545898 336.17103516 169.47991211 337.07595703 170.22631836 338.00830078 C171.90600586 340.39111328 171.90600586 340.39111328 171.90600586 342.39111328 C172.56600586 342.39111328 173.22600586 342.39111328 173.90600586 342.39111328 C175.58992906 344.60807692 177.13666576 346.81441336 178.65600586 349.14111328 C179.10266602 349.81835449 179.54932617 350.4955957 180.00952148 351.19335938 C189.30609313 365.52501342 195.79529619 380.14915318 192.28100586 397.57861328 C187.40835737 413.42300769 173.58406641 423.46306545 159.90600586 431.39111328 C158.5818084 432.07574698 157.25294902 432.75239085 155.90600586 433.39111328 C156.77741211 433.54966797 157.64881836 433.70822266 158.54663086 433.87158203 C173.50116904 436.80098832 187.86103174 442.10081273 197.62866211 454.47314453 C201.27326399 459.94562014 204.48130234 465.73742476 204.90600586 472.39111328 C204.9562793 473.02017578 205.00655273 473.64923828 205.05834961 474.29736328 C205.80538105 490.79181744 197.66969051 507.26650298 186.90600586 519.39111328 C186.24600586 519.39111328 185.58600586 519.39111328 184.90600586 519.39111328 C184.53475586 520.25736328 184.53475586 520.25736328 184.15600586 521.14111328 C182.72300597 523.72051307 181.12175909 525.4523292 178.90600586 527.39111328 C178.24600586 527.39111328 177.58600586 527.39111328 176.90600586 527.39111328 C176.90600586 528.05111328 176.90600586 528.71111328 176.90600586 529.39111328 C171.54629017 534.1581681 165.08453902 537.49251996 158.71850586 540.70361328 C158.05399414 541.04086426 157.38948242 541.37811523 156.70483398 541.72558594 C147.61049922 546.19373105 139.52471176 546.74753225 129.46850586 546.70361328 C128.7938327 546.70112579 128.11915955 546.69863831 127.42404175 546.69607544 C110.95361146 546.60192516 96.88238136 543.25172731 81.25366211 538.36376953 C74.3869742 536.21975408 67.49876705 534.15725821 60.59350586 532.14111328 C59.49876953 531.81216064 58.4040332 531.48320801 57.27612305 531.14428711 C41.52925703 526.5753631 26.26522577 524.86961314 9.90283203 524.94506836 C7.10561263 524.95357646 4.31044755 524.9246753 1.51342773 524.89306641 C-15.6895183 524.82531713 -31.93009738 527.83002919 -48.40649414 532.70361328 C-49.43500488 532.99848633 -50.46351563 533.29335938 -51.52319336 533.59716797 C-56.85437536 535.13102913 -62.17187012 536.71010157 -67.48852539 538.29345703 C-72.5042182 539.78649684 -77.52704163 541.25064507 -82.56274414 542.67480469 C-84.67003323 543.27113823 -86.77319403 543.88203639 -88.87524414 544.49658203 C-97.61017576 546.67011058 -106.39133142 546.6991651 -115.34399414 546.76611328 C-117.26429443 546.78726196 -117.26429443 546.78726196 -119.22338867 546.80883789 C-129.94466 546.75386058 -139.18770218 544.98007317 -148.59399414 539.76611328 C-149.22563477 539.42201416 -149.85727539 539.07791504 -150.50805664 538.72338867 C-156.60939504 535.28907003 -161.92179374 531.10469492 -167.09399414 526.39111328 C-167.8068457 525.74787109 -168.51969727 525.10462891 -169.25415039 524.44189453 C-172.51371769 521.35634931 -174.87968994 518.84356202 -176.09399414 514.39111328 C-176.75399414 514.39111328 -177.41399414 514.39111328 -178.09399414 514.39111328 C-187.48333669 501.7269007 -193.29460526 487.54326241 -191.83618164 471.56689453 C-189.99710111 460.64944375 -184.28331401 452.27021378 -175.62133789 445.44189453 C-167.35881303 439.83213907 -157.93500709 436.12342642 -148.09399414 434.39111328 C-148.95379883 433.92962891 -149.81360352 433.46814453 -150.69946289 432.99267578 C-157.24492899 429.40809849 -163.47081873 425.61405657 -169.40649414 421.07861328 C-169.96296631 420.65854004 -170.51943848 420.2384668 -171.09277344 419.80566406 C-173.75415365 417.72160701 -175.0010907 416.6698236 -176.09399414 413.39111328 C-176.75399414 413.39111328 -177.41399414 413.39111328 -178.09399414 413.39111328 C-186.34662499 401.71286207 -188.46000929 391.5716503 -186.73461914 377.44970703 C-184.26548591 365.18745754 -176.24485739 351.7837978 -168.09399414 342.39111328 C-167.43399414 342.39111328 -166.77399414 342.39111328 -166.09399414 342.39111328 C-165.88129883 341.87162109 -165.66860352 341.35212891 -165.44946289 340.81689453 C-163.52184981 337.36718928 -160.99511091 334.55084577 -158.40649414 331.57861328 C-157.8619458 330.95059814 -157.31739746 330.32258301 -156.75634766 329.67553711 C-145.14587458 316.37010446 -131.55251727 306.39263175 -117.09399414 296.39111328 C-118.10461914 295.62025391 -119.11524414 294.84939453 -120.15649414 294.05517578 C-121.46924607 293.04248144 -122.78173244 292.02944278 -124.09399414 291.01611328 C-124.76172852 290.50822266 -125.42946289 290.00033203 -126.11743164 289.47705078 C-126.74907227 288.98720703 -127.38071289 288.49736328 -128.03149414 287.99267578 C-128.61801758 287.54230957 -129.20454102 287.09194336 -129.80883789 286.62792969 C-130.44499023 286.01570557 -130.44499023 286.01570557 -131.09399414 285.39111328 C-131.09399414 284.73111328 -131.09399414 284.07111328 -131.09399414 283.39111328 C-131.6830957 283.12943359 -132.27219727 282.86775391 -132.87915039 282.59814453 C-135.21184848 281.32688578 -136.69753782 279.98880797 -138.53149414 278.07861328 C-139.43641602 277.14662109 -139.43641602 277.14662109 -140.35961914 276.19580078 C-140.93196289 275.60025391 -141.50430664 275.00470703 -142.09399414 274.39111328 C-142.98086914 273.50423828 -143.86774414 272.61736328 -144.78149414 271.70361328 C-145.54461914 270.94048828 -146.30774414 270.17736328 -147.09399414 269.39111328 C-148.23868164 268.30830078 -148.23868164 268.30830078 -149.40649414 267.20361328 C-151.09399414 265.39111328 -151.09399414 265.39111328 -151.09399414 263.39111328 C-151.75399414 263.39111328 -152.41399414 263.39111328 -153.09399414 263.39111328 C-160.45173222 255.36966172 -166.0115171 245.89767621 -170.72290039 236.15673828 C-172.11853014 233.23948252 -172.11853014 233.23948252 -174.15649414 230.01611328 C-179.15414836 221.34249852 -181.50780471 211.29166837 -183.84399414 201.64111328 C-184.05467529 200.77856934 -184.26535645 199.91602539 -184.48242188 199.02734375 C-186.89372599 188.67681344 -187.29628773 178.35972485 -187.65649414 167.76611328 C-187.72126953 165.97367187 -187.72126953 165.97367187 -187.78735352 164.14501953 C-187.89239721 161.22713922 -187.99455063 158.3091889 -188.09399414 155.39111328 C-188.92801758 155.02759766 -189.76204102 154.66408203 -190.62133789 154.28955078 C-197.57122942 151.18478824 -204.00289068 147.96817573 -210.09399414 143.39111328 C-210.75786133 142.91544922 -211.42172852 142.43978516 -212.10571289 141.94970703 C-222.81366214 133.55585291 -228.22631191 121.04741273 -232.09399414 108.39111328 C-232.42399414 107.40111328 -232.75399414 106.41111328 -233.09399414 105.39111328 C-234.48494188 86.58610462 -234.30701839 68.7017049 -226.09399414 51.39111328 C-225.55387695 50.23095703 -225.01375977 49.07080078 -224.45727539 47.87548828 C-215.79298371 31.51193499 -200.84620755 19.22985504 -183.50805664 13.12939453 C-164.38072144 7.30471072 -145.06550666 9.32808918 -127.42993164 18.39892578 C-123.30284325 20.86358044 -119.83770925 23.76025988 -116.37524414 27.08251953 C-114.12318489 28.69937972 -114.12318489 28.69937972 -111.35571289 27.89892578 C-108.08547775 26.38717636 -104.93065796 24.75816876 -101.77905273 23.01513672 C-87.65234066 15.20605077 -73.37662133 10.00176569 -57.71899414 6.14111328 C-56.77652832 5.90682617 -55.8340625 5.67253906 -54.86303711 5.43115234 C-36.62053027 1.17507627 -18.69766753 -0.09955752 0 0 Z " fill="#74C4EE" transform="translate(233.093994140625,-0.39111328125)"/>
<path d="M0 0 C1.8125 1.6796875 1.8125 1.6796875 3 3.125 C3 3.785 3 4.445 3 5.125 C4.485 5.62 4.485 5.62 6 6.125 C12.73599102 13.64228152 15.37607173 25.29812972 16 35.125 C16.09474609 36.40697266 16.09474609 36.40697266 16.19140625 37.71484375 C16.56381838 46.66474825 14.39195011 54.59467191 12 63.125 C11.66071988 64.45683253 11.32370374 65.78929615 11 67.125 C10.34 67.125 9.68 67.125 9 67.125 C8.62875 68.3934375 8.62875 68.3934375 8.25 69.6875 C6.86026373 73.50927474 5.08879162 76.64368063 3 80.125 C2.34 80.125 1.68 80.125 1 80.125 C0.7525 80.74375 0.505 81.3625 0.25 82 C-1.20628639 84.47568687 -2.37812506 85.07625002 -5 86.125 C-5 86.785 -5 87.445 -5 88.125 C-8.87036007 91.20784263 -13.00786149 93.65698701 -18 94.125 C-18 94.785 -18 95.445 -18 96.125 C-19.78880277 96.75815012 -21.58125198 97.38099879 -23.375 98 C-24.37273437 98.34804688 -25.37046875 98.69609375 -26.3984375 99.0546875 C-46.31293973 104.97288014 -67.70531277 103.93669751 -86.125 94.125 C-92.41242301 90.66880483 -98.60833838 86.88234849 -104 82.125 C-104 81.465 -104 80.805 -104 80.125 C-104.60070312 79.86332031 -105.20140625 79.60164063 -105.8203125 79.33203125 C-113.97990859 74.81354524 -117.75913711 63.14331747 -120.8203125 54.921875 C-123.80903412 44.22982865 -123.59477213 29.22741288 -119 19.125 C-115.37480775 12.78483693 -111.43043567 7.05361323 -106 2.125 C-105.34 2.125 -104.68 2.125 -104 2.125 C-104 1.465 -104 0.805 -104 0.125 C-77.89762227 -21.41895834 -25.79377785 -21.82199259 0 0 Z " fill="#8ED9F6" transform="translate(288,180.875)"/>
<path d="M0 0 C7.13574176 -0.46037044 12.66005109 0.55328174 19 4 C19.495 4.99 19.495 4.99 20 6 C20.99 6.33 21.98 6.66 23 7 C23 7.66 23 8.32 23 9 C23.66 9 24.32 9 25 9 C26.36176922 10.64351457 27.68962066 12.31522656 29 14 C30.299375 15.299375 30.299375 15.299375 31.625 16.625 C36 21 36 21 36 25 C36.66 25 37.32 25 38 25 C38.93658585 26.63035314 39.87105242 28.26194828 40.796875 29.8984375 C41.58106016 31.26821547 42.38245861 32.62832486 43.203125 33.9765625 C49.56674423 44.73027348 55.00576145 58.32740567 54 71 C53.08916536 74.38404988 52.01019673 77.19880949 49.1875 79.4375 C43.50232477 80.8994022 40.0428312 79.77870291 35 77 C33.948125 76.5875 32.89625 76.175 31.8125 75.75 C21.28101076 71.21335848 13.75231544 64.18702472 6 56 C5.16339844 55.18402344 4.32679687 54.36804688 3.46484375 53.52734375 C-6.5532171 43.25525917 -13.33547871 32.66540816 -13.22265625 18.17578125 C-12.89386282 13.48614863 -11.38850653 10.66620784 -8.4375 7.125 C-7 6 -7 6 -5 6 C-5 5.34 -5 4.68 -5 4 C-4.34 4 -3.68 4 -3 4 C-3 3.34 -3 2.68 -3 2 C-2.01 2 -1.02 2 0 2 C0 1.34 0 0.68 0 0 Z " fill="#8ED9F7" transform="translate(63,457)"/>
<path d="M0 0 C11.59830477 -0.74295191 11.59830477 -0.74295191 17 4 C17.70125 4.53625 18.4025 5.0725 19.125 5.625 C23.93205465 11.71393589 25.56440682 18.38050799 25 26 C24.34 26 23.68 26 23 26 C22.9071875 27.7015625 22.9071875 27.7015625 22.8125 29.4375 C22.19740167 34.64719648 19.74860504 38.61845986 17 43 C16.34 43 15.68 43 15 43 C14.67 44.32 14.34 45.64 14 47 C13.34 47 12.68 47 12 47 C11.75636719 47.55945313 11.51273437 48.11890625 11.26171875 48.6953125 C6.78933432 56.86468343 -1.30275542 63.86850361 -9 69 C-9.99 69 -10.98 69 -12 69 C-12.33 69.99 -12.66 70.98 -13 72 C-20.51824374 76.77146543 -28.10318105 79.57398832 -37 79 C-39.4375 78.1875 -39.4375 78.1875 -41 77 C-44.34976784 66.95069648 -41.77874282 56.47443911 -38 47 C-37.3228348 45.00353018 -36.65340731 43.00437106 -36 41 C-35.34 41 -34.68 41 -34 41 C-33.82984375 40.41992188 -33.6596875 39.83984375 -33.484375 39.2421875 C-31.92681558 34.22154385 -30.08278873 30.31590422 -27 26 C-26.67 25.01 -26.34 24.02 -26 23 C-25.34 23 -24.68 23 -24 23 C-23.7525 22.46375 -23.505 21.9275 -23.25 21.375 C-21.69347463 18.4176018 -19.96564327 15.70275949 -18 13 C-17.34 13 -16.68 13 -16 13 C-15.67 12.01 -15.34 11.02 -15 10 C-14.34 10 -13.68 10 -13 10 C-13 9.34 -13 8.68 -13 8 C-11.171875 6.4921875 -11.171875 6.4921875 -8.75 4.875 C-7.96109375 4.33617187 -7.1721875 3.79734375 -6.359375 3.2421875 C-4 2 -4 2 0 2 C0 1.34 0 0.68 0 0 Z " fill="#8ED9F7" transform="translate(402,457)"/>
<path d="M0 0 C0.495 1.485 0.495 1.485 1 3 C-0.32 3.33 -1.64 3.66 -3 4 C-3.0825 4.556875 -3.165 5.11375 -3.25 5.6875 C-4.23895541 8.73677919 -5.84757466 10.65189963 -8 13 C-8.66 13 -9.32 13 -10 13 C-10.226875 13.515625 -10.45375 14.03125 -10.6875 14.5625 C-12 17 -12 17 -14.25 20 C-17.16625803 24.00772302 -19.24415674 28.32125726 -21.3984375 32.7734375 C-22.9988094 35.99760137 -24.73369949 39.11423301 -26.5 42.25 C-31.46961845 51.3848419 -34.75554921 61.14479033 -38 71 C-41.34373475 70.44271087 -44.03312999 69.64826111 -47 68 C-47 67.34 -47 66.68 -47 66 C-47.556875 65.773125 -48.11375 65.54625 -48.6875 65.3125 C-55.9696887 61.17936587 -59.63885796 53.88897726 -62.3125 46.25 C-64.50239168 35.42935878 -62.92264726 26.77070896 -58 17 C-57.61585937 16.22785156 -57.23171875 15.45570312 -56.8359375 14.66015625 C-56.56007813 14.11230469 -56.28421875 13.56445312 -56 13 C-55.34 13 -54.68 13 -54 13 C-53.690625 12.38125 -53.38125 11.7625 -53.0625 11.125 C-52.375 9.75 -51.6875 8.375 -51 7 C-50.34 7 -49.68 7 -49 7 C-48.74605469 6.40316406 -48.49210937 5.80632813 -48.23046875 5.19140625 C-44.58869221 -1.29442435 -36.420406 -4.75321882 -29.5625 -6.6875 C-18.92050278 -7.98530454 -9.1989801 -5.45124746 0 0 Z " fill="#8EDAF7" transform="translate(91,51)"/>
<path d="M0 0 C11.63849644 6.56717668 19.1262813 16.6554945 24 29 C26.62750208 41.28316923 25.09674527 51.40877968 18.6953125 62.19921875 C16.54834799 65.37965997 14.32851215 68.04880322 11 70 C10.34 70 9.68 70 9 70 C9 70.66 9 71.32 9 72 C7.68 72 6.36 72 5 72 C4.87625 71.46375 4.7525 70.9275 4.625 70.375 C1.56359278 58.74165257 -4.53660691 47.91330299 -10.96875 37.8203125 C-12 36 -12 36 -12 34 C-13.485 33.505 -13.485 33.505 -15 33 C-19 27.62857143 -19 27.62857143 -19 25 C-19.87398438 24.63648438 -19.87398438 24.63648438 -20.765625 24.265625 C-23.40488954 22.77065698 -24.82577653 21.08769298 -26.75 18.75 C-30.4298401 14.46838154 -34.3389589 11.16107841 -39 8 C-38.79296875 6.1640625 -38.79296875 6.1640625 -38 4 C-35.92578125 2.5859375 -35.92578125 2.5859375 -33.3125 1.375 C-32.46300781 0.97023437 -31.61351562 0.56546875 -30.73828125 0.1484375 C-20.76687264 -4.03357981 -9.91209643 -4.97381183 0 0 Z " fill="#8EDAF7" transform="translate(409,37)"/>
<path d="M0 0 C5.875 2.75 5.875 2.75 7 5 C8.9313161 6.14990343 8.9313161 6.14990343 11.3125 7.25 C12.21097656 7.68570312 13.10945313 8.12140625 14.03515625 8.5703125 C15.01355469 9.04210937 15.99195313 9.51390625 17 10 C19.08489661 11.03853423 21.16822838 12.08021574 23.25 13.125 C24.20390625 13.60195313 25.1578125 14.07890625 26.140625 14.5703125 C29.09375 16.046875 32.046875 17.5234375 35 19 C34.01448769 21.4659708 33.02765621 23.93136333 32.03515625 26.39453125 C31.35432521 28.08703893 30.67757945 29.78119305 30.00390625 31.4765625 C29.17875665 33.55067394 28.34109666 35.61980405 27.5 37.6875 C25.1534357 43.94932627 23.65991761 50.5288491 22 57 C14.60606981 54.84071065 7.29582259 52.4695482 0 50 C0 49.34 0 48.68 0 48 C-0.58007812 47.81824219 -1.16015625 47.63648438 -1.7578125 47.44921875 C-6.39147293 45.9581894 -10.69762355 44.31666424 -15 42 C-15 41.34 -15 40.68 -15 40 C-16.11375 39.814375 -16.11375 39.814375 -17.25 39.625 C-21.37005077 38.68862483 -24.26812049 37.27825541 -27 34 C-27 33.34 -27 32.68 -27 32 C-28.32 31.67 -29.64 31.34 -31 31 C-31 30.34 -31 29.68 -31 29 C-31.66 29 -32.32 29 -33 29 C-32.15232622 24.3109137 -29.28217026 22.23414282 -25.75 19.3125 C-25.12754395 18.78938232 -24.50508789 18.26626465 -23.86376953 17.72729492 C-8.22398509 4.77047779 -8.22398509 4.77047779 -2.6953125 3.44921875 C-1.85613281 3.22685547 -1.85613281 3.22685547 -1 3 C-0.67 2.01 -0.34 1.02 0 0 Z " fill="#5FB1D5" transform="translate(118,294)"/>
<path d="M0 0 C0 0.66 0 1.32 0 2 C0.66 2 1.32 2 2 2 C3.61365904 5.22731808 3.45962227 8.50074242 3 12 C1.50055089 16.00089975 -0.63680691 19.45521037 -3 23 C-3.66 23 -4.32 23 -5 23 C-5.495 24.485 -5.495 24.485 -6 26 C-8.109375 27.71875 -8.109375 27.71875 -10.75 29.5 C-11.61109375 30.0878125 -12.4721875 30.675625 -13.359375 31.28125 C-20.60909091 36 -20.60909091 36 -23 36 C-22.9669923 38.60760846 -22.8998852 41.20662846 -22.8125 43.8125 C-22.80669922 44.55048828 -22.80089844 45.28847656 -22.79492188 46.04882812 C-22.74683485 48.49564662 -22.74683485 48.49564662 -22 52 C-16.5563012 56.61189423 -10.03875481 56.34638909 -3.2109375 56.27734375 C1.38076565 55.88073679 3.47821312 54.97395337 7 52 C8.50804535 48.90243083 8.50804535 48.90243083 9 46 C9.99 46 10.98 46 12 46 C10.74784899 51.84337138 7.78100896 54.73102506 3 58 C-5.00318824 60.66772941 -13.49815356 59.48300013 -21 56 C-21.804375 55.505 -22.60875 55.01 -23.4375 54.5 C-26.68794667 53.8657665 -27.12689518 54.58121867 -29.8125 56.375 C-34.1842749 59.06136 -38.14715494 59.53599916 -43.1875 59.5625 C-44.20324097 59.58352783 -44.20324097 59.58352783 -45.23950195 59.60498047 C-50.2561029 59.50778575 -53.09700197 58.04921721 -57 55 C-57.598125 54.54625 -58.19625 54.0925 -58.8125 53.625 C-60.55054016 51.24662926 -60.68005856 48.87947295 -61 46 C-60.46375 46.721875 -59.9275 47.44375 -59.375 48.1875 C-58.199375 49.5796875 -58.199375 49.5796875 -57 51 C-55.824375 52.3921875 -55.824375 52.3921875 -54.625 53.8125 C-50.4908674 57.15566336 -45.48962478 56.54755292 -40.42578125 56.37109375 C-36.09027771 55.9014554 -32.93150088 54.85448155 -29 53 C-28.01 52.67 -27.02 52.34 -26 52 C-26 46.39 -26 40.78 -26 35 C-27.98 34.34 -29.96 33.68 -32 33 C-34.01171875 31.52734375 -34.01171875 31.52734375 -35.6875 29.9375 C-37.94177554 27.81796276 -38.97787332 27.00737556 -42 26 C-47.25547101 20.99535829 -51.3306584 15.74831298 -52.625 8.5 C-51.86444731 4.24090494 -50.76288594 2.89883325 -47.3671875 0.35546875 C-34.08437875 -7.25036398 -13.33329373 -8.14812394 0 0 Z " fill="#2F3030" transform="translate(261,192)"/>
<path d="M0 0 C0.66 0.66 1.32 1.32 2 2 C1.625 4.125 1.625 4.125 1 6 C2.0209375 6.0928125 2.0209375 6.0928125 3.0625 6.1875 C7.03178937 7.28538855 9.78639555 9.49023975 13 12 C11.64917484 16.05247548 9.70188168 16.14905916 6 18 C5.505 19.485 5.505 19.485 5 21 C3.33333333 22.33333333 1.66666667 23.66666667 0 25 C-0.93433528 26.11036947 -1.84989505 27.23670572 -2.75 28.375 C-6.16161583 32.47780034 -10.26793907 35.53932832 -15 38 C-15.99 38 -16.98 38 -18 38 C-18.31453125 37.34773438 -18.6290625 36.69546875 -18.953125 36.0234375 C-21.81345086 30.13830538 -21.81345086 30.13830538 -25.3125 24.625 C-27 22 -27 22 -27 18 C-25.02 17.67 -23.04 17.34 -21 17 C-20.67 16.01 -20.34 15.02 -20 14 C-18.68 14 -17.36 14 -16 14 C-16 13.34 -16 12.68 -16 12 C-14.39967863 11.15930585 -12.79458829 10.32768495 -11.1875 9.5 C-10.29417969 9.0359375 -9.40085937 8.571875 -8.48046875 8.09375 C-6 7 -6 7 -3 7 C-3.061875 6.21625 -3.12375 5.4325 -3.1875 4.625 C-3.0946875 3.325625 -3.0946875 3.325625 -3 2 C-2.01 1.34 -1.02 0.68 0 0 Z " fill="#61B2D4" transform="translate(349,288)"/>
<path d="M0 0 C0.98484375 0.01804687 1.9696875 0.03609375 2.984375 0.0546875 C4.10585937 0.08949219 4.10585937 0.08949219 5.25 0.125 C4.92 0.785 4.59 1.445 4.25 2.125 C3.59 2.125 2.93 2.125 2.25 2.125 C1.06424584 7.27987435 1.06424584 7.27987435 2.3125 12.125 C5.13643238 13.58251349 7.11588995 13.50876858 10.25 13.125 C12.59261608 11.74573227 12.59261608 11.74573227 14.25 10.125 C15.5312065 15.83219259 15.09429851 19.00526268 12.25 24.125 C9.625 27 9.625 27 7.25 29.125 C6.92 29.455 6.59 29.785 6.25 30.125 C4.315581 30.25083966 2.37597237 30.30078009 0.4375 30.3125 C-0.62082031 30.32667969 -1.67914063 30.34085938 -2.76953125 30.35546875 C-5.6704626 30.13115034 -7.29818353 29.62696021 -9.75 28.125 C-9.75 27.465 -9.75 26.805 -9.75 26.125 C-8.43 25.795 -7.11 25.465 -5.75 25.125 C-5.75 24.135 -5.75 23.145 -5.75 22.125 C-7.4 22.125 -9.05 22.125 -10.75 22.125 C-11.08 23.115 -11.41 24.105 -11.75 25.125 C-14.93791362 21.14010797 -15.31937792 17.63319136 -15.171875 12.69921875 C-14.48681545 8.51908689 -12.62677 5.21374253 -9.75 2.125 C-6.50593271 -0.04237254 -3.84589351 -0.09156889 0 0 Z " fill="#303233" transform="translate(198.75,127.875)"/>
<path d="M0 0 C1.50433594 0.01353516 1.50433594 0.01353516 3.0390625 0.02734375 C3.80992187 0.03894531 4.58078125 0.05054687 5.375 0.0625 C4 2.0625 4 2.0625 2.375 4.0625 C1.715 4.0625 1.055 4.0625 0.375 4.0625 C0.63893501 7.49480448 0.63893501 7.49480448 1.375 11.0625 C4.27938989 13.43977232 4.27938989 13.43977232 8 12.8125 C9.11375 12.565 10.2275 12.3175 11.375 12.0625 C11.705 11.4025 12.035 10.7425 12.375 10.0625 C13.035 10.0625 13.695 10.0625 14.375 10.0625 C14.97755925 16.59692034 14.52090536 20.95385242 10.859375 26.46875 C8.39305526 29.11679857 6.30976076 29.96902392 2.71875 30.328125 C1.31109375 30.32039063 1.31109375 30.32039063 -0.125 30.3125 C-1.0634375 30.31765625 -2.001875 30.3228125 -2.96875 30.328125 C-5.66547676 30.05845232 -7.31449293 29.4357259 -9.625 28.0625 C-9.625 27.4025 -9.625 26.7425 -9.625 26.0625 C-8.305 25.7325 -6.985 25.4025 -5.625 25.0625 C-5.625 24.0725 -5.625 23.0825 -5.625 22.0625 C-7.275 22.0625 -8.925 22.0625 -10.625 22.0625 C-10.955 23.0525 -11.285 24.0425 -11.625 25.0625 C-14.8898399 20.98145013 -15.07823114 17.45921776 -14.9140625 12.4296875 C-14.29667962 7.37382226 -11.28034529 4.36410219 -7.625 1.0625 C-4.98041621 -0.25979189 -2.94738699 -0.03427194 0 0 Z " fill="#303130" transform="translate(265.625,127.9375)"/>
<path d="M0 0 C13.68597918 -0.37577667 26.61360346 0.03607408 40 3 C40.80147461 3.17692383 41.60294922 3.35384766 42.42871094 3.53613281 C57.64812051 6.97699113 72.90274223 11.21243144 87 18 C87 18.66 87 19.32 87 20 C85.02 20.33 83.04 20.66 81 21 C81 21.66 81 22.32 81 23 C81.99 23 82.98 23 84 23 C84 23.66 84 24.32 84 25 C81.69 24.34 79.38 23.68 77 23 C77 22.34 77 21.68 77 21 C75.63875 20.7834375 75.63875 20.7834375 74.25 20.5625 C71.78523044 20.13590527 69.41152893 19.64925779 67 19 C67 18.34 67 17.68 67 17 C66.36835938 16.89042969 65.73671875 16.78085937 65.0859375 16.66796875 C59.69921873 15.71326211 54.3459702 14.66242398 49 13.5 C46.66688909 12.99896317 44.33356859 12.49890087 42 12 C41.08476562 11.80148437 40.16953125 11.60296875 39.2265625 11.3984375 C31.20455063 9.78439908 23.15530603 9.38883517 15 9 C18.75 7 18.75 7 21 7 C20.67 6.34 20.34 5.68 20 5 C16.97065509 4.34227572 16.97065509 4.34227572 14 4 C14 3.67 14 3.34 14 3 C9.38 2.34 4.76 1.68 0 1 C0 0.67 0 0.34 0 0 Z M64 14 C65 16 65 16 65 16 Z " fill="#75BEE4" transform="translate(242,0)"/>
<path d="M0 0 C0.495 1.485 0.495 1.485 1 3 C-3.19730912 7.31723224 -7.09201142 11.1104367 -12.5859375 13.671875 C-15.36802277 15.6647936 -15.94140749 16.74036269 -16.70654297 20.13085938 C-16.98008503 23.45830628 -17.15191699 26.74535536 -17.21035767 30.08145142 C-17.27691739 33.72245803 -17.45772111 37.35837928 -17.62109375 40.99609375 C-17.6641993 42.0586866 -17.6641993 42.0586866 -17.70817566 43.14274597 C-18.04170127 50.99026136 -19.20760429 58.35710053 -21 66 C-21.16870605 66.7336377 -21.33741211 67.46727539 -21.51123047 68.22314453 C-26.88083346 91.21041015 -35.46441958 111.66859924 -49 131 C-49.66 129.68 -50.32 128.36 -51 127 C-50.01 126.505 -50.01 126.505 -49 126 C-47.87775145 124.11986894 -47.87775145 124.11986894 -46.875 121.9375 C-46.34519531 120.83728516 -46.34519531 120.83728516 -45.8046875 119.71484375 C-45.53914063 119.14894531 -45.27359375 118.58304687 -45 118 C-44.34 118 -43.68 118 -43 118 C-42.67 115.03 -42.34 112.06 -42 109 C-40.68 109.33 -39.36 109.66 -38 110 C-38.185625 108.824375 -38.185625 108.824375 -38.375 107.625 C-37.97656314 103.77344372 -37.18789416 102.42445364 -35.125 99.25 C-31.91465331 94.24185916 -30.81240514 89.82386817 -30 84 C-29.67564642 82.33156251 -29.34465553 80.66436218 -29 79 C-28.34 79 -27.68 79 -27 79 C-26.89042969 78.21238281 -26.78085937 77.42476563 -26.66796875 76.61328125 C-25.83890346 70.91767012 -24.89140749 65.3368189 -23.5 59.75 C-20.59012373 47.47855209 -19.79943333 34.99178263 -19.34130859 22.42358398 C-19.0994923 16.1989846 -19.0994923 16.1989846 -18 14 C-17.34 14 -16.68 14 -16 14 C-15.67 13.01 -15.34 12.02 -15 11 C-13.67592331 10.31513275 -12.34090759 9.65129797 -11 9 C-10.401875 8.401875 -9.80375 7.80375 -9.1875 7.1875 C-6.36518915 4.36518915 -3.28103089 2.27148292 0 0 Z " fill="#81BAD7" transform="translate(438,124)"/>
<path d="M0 0 C0.7383609 -0.00276947 1.4767218 -0.00553894 2.23745728 -0.00839233 C12.2663151 -0.03580689 22.18854978 0.32435446 32.1875 1.125 C32.6825 2.61 32.6825 2.61 33.1875 4.125 C35.4975 4.125 37.8075 4.125 40.1875 4.125 C40.6825 5.115 40.6825 5.115 41.1875 6.125 C39.99825928 5.91351318 38.80901855 5.70202637 37.58374023 5.48413086 C25.68263447 3.47252554 14.09743176 2.62282382 2.03344727 2.67895508 C-0.7460303 2.68748781 -3.52345608 2.65849971 -6.30273438 2.62695312 C-23.46156982 2.5598298 -39.67810223 5.49232009 -56.02955627 10.63475037 C-59.99150842 11.83495988 -62.81841676 12.39655384 -66.8125 11.125 C-66.8125 10.795 -66.8125 10.465 -66.8125 10.125 C-63.32699352 9.12596948 -59.8406298 8.13283322 -56.34765625 7.16015625 C-55.20167969 6.83917969 -54.05570313 6.51820313 -52.875 6.1875 C-51.73160156 5.86910156 -50.58820313 5.55070313 -49.41015625 5.22265625 C-46.79899675 4.42598326 -44.40348431 3.56485142 -41.890625 2.5390625 C-37.79960943 0.9856425 -33.85168736 0.56726178 -29.5 0.4375 C-28.26407104 0.38843506 -28.26407104 0.38843506 -27.00317383 0.33837891 C-18.00646355 0.0368132 -9.00097845 0.02225579 0 0 Z " fill="#89BCD0" transform="translate(240.8125,521.875)"/>
<path d="M0 0 C3.67148645 -0.20397147 5.84157603 0.12468577 9 2 C10.27290894 2.54793213 10.27290894 2.54793213 11.5715332 3.10693359 C14 5 14 5 14.71948242 8.35400391 C14.78886639 9.72718571 14.83266036 11.10181809 14.85546875 12.4765625 C14.88804276 13.20241547 14.92061676 13.92826843 14.95417786 14.67611694 C15.05476958 16.99217159 15.12286318 19.30768593 15.1875 21.625 C15.26785673 23.94886853 15.3550615 26.27211003 15.45295715 28.5953064 C15.51225638 30.04054281 15.56045662 31.48628382 15.59672546 32.93228149 C15.65851873 34.6257341 15.81964946 36.31504486 16 38 C16.66 38.33 17.32 38.66 18 39 C19.14242743 43.68395246 19.08252495 48.21355271 19 53 C19.66 53.33 20.32 53.66 21 54 C20.67 54.33 20.34 54.66 20 55 C20.43577777 57.06540507 21.0364702 59.06309425 21.625 61.08984375 C22 63 22 63 21 65 C22.485 65.495 22.485 65.495 24 66 C24.33 66.99 24.66 67.98 25 69 C24.01 69.99 24.01 69.99 23 71 C23 70.34 23 69.68 23 69 C21.515 68.505 21.515 68.505 20 68 C17.78301656 62.50573668 16.3643949 56.7913053 14.875 51.0625 C14.70427979 50.41917725 14.53355957 49.77585449 14.35766602 49.11303711 C11.90953395 39.36559639 11.77748532 29.37391238 11.4375 19.375 C11.37272461 17.58255859 11.37272461 17.58255859 11.30664062 15.75390625 C11.20159693 12.83602594 11.09944352 9.91807562 11 7 C9.93458984 6.49339844 9.93458984 6.49339844 8.84765625 5.9765625 C7.92855469 5.53054687 7.00945313 5.08453125 6.0625 4.625 C5.14597656 4.18414062 4.22945312 3.74328125 3.28515625 3.2890625 C1 2 1 2 0 0 Z " fill="#76B5D4" transform="translate(34,148)"/>
<path d="M0 0 C2.475 0.495 2.475 0.495 5 1 C5 1.66 5 2.32 5 3 C5.763125 3.28875 6.52625 3.5775 7.3125 3.875 C10 5 10 5 13 7 C13 7.66 13 8.32 13 9 C14.32 9 15.64 9 17 9 C17 9.66 17 10.32 17 11 C18.051875 10.87625 18.051875 10.87625 19.125 10.75 C22 11 22 11 24.75 12.875 C28.77207753 15.50481992 32.32085345 16.21739626 37 17 C38.7015625 17.309375 38.7015625 17.309375 40.4375 17.625 C50.59811914 18.69453886 63.86707698 19.04089907 73 14 C79.82777125 11.89385282 86.90744266 11.45603584 94 11 C91.30843123 14.48612781 88.091768 15.01865036 83.9375 16.0625 C82.06384766 16.54396484 82.06384766 16.54396484 80.15234375 17.03515625 C78.76871703 17.35886326 77.38457751 17.68038421 76 18 C74.91054077 18.27469116 74.91054077 18.27469116 73.79907227 18.55493164 C66.2421901 20.30411588 58.79141604 20.33169751 51.0625 20.3125 C49.76892578 20.32861328 48.47535156 20.34472656 47.14257812 20.36132812 C36.24069897 20.36684806 26.98678344 18.63113833 17.4375 13.3125 C16.80835693 12.97017334 16.17921387 12.62784668 15.53100586 12.27514648 C9.90224457 9.12220723 4.70182529 5.43631045 0 1 C0 0.67 0 0.34 0 0 Z " fill="#74B5D4" transform="translate(67,526)"/>
<path d="M0 0 C-3.07053861 1.75738864 -5.51057675 2.31728824 -9.02734375 2.5625 C-9.98447266 2.63726562 -10.94160156 2.71203125 -11.92773438 2.7890625 C-12.92095703 2.85867188 -13.91417969 2.92828125 -14.9375 3 C-16.9054803 3.13846376 -18.87297401 3.28406564 -20.83984375 3.4375 C-21.70988037 3.49808594 -22.57991699 3.55867187 -23.47631836 3.62109375 C-26.25171453 4.03779249 -28.47832592 4.77310593 -31 6 C-31.33 6.66 -31.66 7.32 -32 8 C-35.0625 8.625 -35.0625 8.625 -38 9 C-38 8.34 -38 7.68 -38 7 C-37.01 7 -36.02 7 -35 7 C-35 6.34 -35 5.68 -35 5 C-35.7734375 5.19335938 -36.546875 5.38671875 -37.34375 5.5859375 C-39.50367667 6.12591917 -41.66384483 6.66493549 -43.82421875 7.203125 C-45.6620774 7.6642851 -47.49875368 8.13032759 -49.33203125 8.609375 C-52.41816847 9.41286635 -55.39347516 10.04832151 -58.5625 10.4375 C-62.05414758 10.84762476 -62.05414758 10.84762476 -65.1875 12.5 C-70.14116265 14.82913037 -75.61449869 14.74354756 -81 15 C-68.45687825 6.63791884 -50.52636685 4.64572293 -36 2 C-35.27683594 1.86577637 -34.55367187 1.73155273 -33.80859375 1.59326172 C-22.59234861 -0.42056411 -11.34908101 -0.21317447 0 0 Z " fill="#7DBDDB" transform="translate(230,0)"/>
<path d="M0 0 C0.33 0 0.66 0 1 0 C1.01417969 1.12019531 1.02835938 2.24039063 1.04296875 3.39453125 C1.08986994 4.86722869 1.13811734 6.33988368 1.1875 7.8125 C1.19330078 8.55048828 1.19910156 9.28847656 1.20507812 10.04882812 C1.25316515 12.49564662 1.25316515 12.49564662 2 16 C7.4436988 20.61189423 13.96124519 20.34638909 20.7890625 20.27734375 C25.38076565 19.88073679 27.47821312 18.97395337 31 16 C32.50804535 12.90243083 32.50804535 12.90243083 33 10 C33.99 10 34.98 10 36 10 C34.74784899 15.84337138 31.78100896 18.73102506 27 22 C18.99681176 24.66772941 10.50184644 23.48300013 3 20 C2.195625 19.505 1.39125 19.01 0.5625 18.5 C-2.68794667 17.8657665 -3.12689518 18.58121867 -5.8125 20.375 C-10.1842749 23.06136 -14.14715494 23.53599916 -19.1875 23.5625 C-19.86466064 23.57651855 -20.54182129 23.59053711 -21.23950195 23.60498047 C-26.2561029 23.50778575 -29.09700197 22.04921721 -33 19 C-33.598125 18.54625 -34.19625 18.0925 -34.8125 17.625 C-36.55054016 15.24662926 -36.68005856 12.87947295 -37 10 C-36.46375 10.721875 -35.9275 11.44375 -35.375 12.1875 C-34.59125 13.115625 -33.8075 14.04375 -33 15 C-32.21625 15.928125 -31.4325 16.85625 -30.625 17.8125 C-26.4908674 21.15566336 -21.48962478 20.54755292 -16.42578125 20.37109375 C-12.09027771 19.9014554 -8.93150088 18.85448155 -5 17 C-4.01 16.67 -3.02 16.34 -2 16 C-2 12.7 -2 9.4 -2 6 C-1.67 6 -1.34 6 -1 6 C-0.67 4.02 -0.34 2.04 0 0 Z " fill="#39606C" transform="translate(237,228)"/>
<path d="M0 0 C1.8125 0.0625 1.8125 0.0625 4 1 C5.81278756 4.4960903 7 7.03981755 7 11 C7.66 11 8.32 11 9 11 C9.67154933 12.28913487 10.33708859 13.58140204 11 14.875 C11.37125 15.59429687 11.7425 16.31359375 12.125 17.0546875 C13 19 13 19 13 21 C14.32 21 15.64 21 17 21 C17.33 23.31 17.66 25.62 18 28 C18.66 28 19.32 28 20 28 C23.71598757 31.30310006 26.52390856 34.99518865 29.44140625 39.00390625 C30.97032812 40.96199917 32.58669531 42.65401972 34.375 44.375 C35.24125 45.24125 36.1075 46.1075 37 47 C37 47.66 37 48.32 37 49 C37.61875 49.309375 38.2375 49.61875 38.875 49.9375 C40.25 50.625 41.625 51.3125 43 52 C43 52.66 43 53.32 43 54 C43.66 54 44.32 54 45 54 C45 54.66 45 55.32 45 56 C45.66 56 46.32 56 47 56 C47.495 57.98 47.495 57.98 48 60 C45.5 58.625 45.5 58.625 43 57 C43 56.34 43 55.68 43 55 C42.11634766 54.60748047 42.11634766 54.60748047 41.21484375 54.20703125 C38.88214566 52.9357725 37.39645632 51.59769469 35.5625 49.6875 C34.95921875 49.06617188 34.3559375 48.44484375 33.734375 47.8046875 C33.16203125 47.20914063 32.5896875 46.61359375 32 46 C31.113125 45.113125 30.22625 44.22625 29.3125 43.3125 C28.549375 42.549375 27.78625 41.78625 27 41 C26.236875 40.278125 25.47375 39.55625 24.6875 38.8125 C23 37 23 37 23 35 C22.34 35 21.68 35 21 35 C11.80148588 24.97172301 4.88525005 12.6279105 0 0 Z " fill="#85BDD5" transform="translate(59,228)"/>
<path d="M0 0 C0 0.33 0 0.66 0 1 C-4.70340824 0.38365007 -9.25844775 -0.47902345 -13.875 -1.5625 C-22.10778764 -3.35223644 -28.71870371 -3.20455219 -37 -2 C-38.7325 -2.12375 -38.7325 -2.12375 -40.5 -2.25 C-46.1315488 -2.37194299 -51.38071408 -0.05955759 -56.609375 1.80859375 C-59.08130737 2.6771875 -61.44815741 3.43936792 -64 4 C-64 4.99 -64 5.98 -64 7 C-65.65 7 -67.3 7 -69 7 C-67.71033186 3.13099559 -66.51777933 2.8791424 -62.9375 1.0625 C-43.14235937 -8.2761487 -19.97469255 -9.53337599 0 0 Z M-36 -2 C-34 -1 -34 -1 -34 -1 Z " fill="#8BBCD6" transform="translate(102,16)"/>
<path d="M0 0 C2.99069257 2.99069257 2.29284558 5.77122074 2.32226562 9.86328125 C2.31904297 10.89839844 2.31582031 11.93351562 2.3125 13 C2.32861328 14.00417969 2.34472656 15.00835937 2.36132812 16.04296875 C2.36761609 25.76416551 -0.03528261 33.66126407 -4.4375 42.25 C-5.01371094 43.38953125 -5.58992188 44.5290625 -6.18359375 45.703125 C-7.97292553 48.95085839 -9.89768657 51.95049042 -12 55 C-13.65 54.67 -15.3 54.34 -17 54 C-16 52 -16 52 -13 51 C-12.09162237 48.52260646 -12 46.66420516 -12 44 C-10.515 43.505 -10.515 43.505 -9 43 C-7.84478498 40.52869082 -7.84478498 40.52869082 -7 38 C-6.505 37.505 -6.505 37.505 -6 37 C-6 36.030625 -6 35.06125 -6 34.0625 C-6 30 -6 30 -4 28 C-4.33 27.34 -4.66 26.68 -5 26 C-4.34 25.34 -3.68 24.68 -3 24 C-2.29618843 22.01276732 -1.6288189 20.01222047 -1 18 C-0.67 17.34 -0.34 16.68 0 16 C0.07181821 13.28239892 0.09299506 10.59140612 0.0625 7.875 C0.05798828 7.12089844 0.05347656 6.36679688 0.04882812 5.58984375 C0.03703499 3.72652873 0.01909942 1.86325445 0 0 Z " fill="#7FBBDA" transform="translate(455,68)"/>
<path d="M0 0 C5.4829927 4.27858724 10.43812182 9.01357208 15.23046875 14.046875 C14.73546875 15.531875 14.73546875 15.531875 14.23046875 17.046875 C10.35546875 14.421875 10.35546875 14.421875 9.23046875 11.046875 C8.09609375 10.5725 6.96171875 10.098125 5.79296875 9.609375 C1.79804965 7.8572175 1.99960557 7.58514865 0.23046875 4.046875 C-2.0962499 3.03157959 -4.42987595 2.03199302 -6.76953125 1.046875 C-7.79560465 -0.26649896 -8.7968045 -1.59976605 -9.76953125 -2.953125 C-13.38186683 -5.07340893 -16.62751288 -6.34400465 -20.76953125 -6.953125 C-20.76953125 -7.613125 -20.76953125 -8.273125 -20.76953125 -8.953125 C-23.89451188 -8.98208476 -27.01945815 -8.99990983 -30.14453125 -9.015625 C-31.03398437 -9.02400391 -31.9234375 -9.03238281 -32.83984375 -9.04101562 C-33.690625 -9.04423828 -34.54140625 -9.04746094 -35.41796875 -9.05078125 C-36.20349121 -9.05601807 -36.98901367 -9.06125488 -37.79833984 -9.06665039 C-39.84725793 -9.07886453 -39.84725793 -9.07886453 -41.76953125 -7.953125 C-43.76913137 -7.913133 -45.77000367 -7.90965701 -47.76953125 -7.953125 C-35.36983112 -20.35282513 -11.18878966 -7.89054278 0 0 Z " fill="#83BDD9" transform="translate(423.76953125,11.953125)"/>
<path d="M0 0 C1.32 0.33 2.64 0.66 4 1 C3.34 1.99 2.68 2.98 2 4 C1.34 4 0.68 4 0 4 C-0.2475 4.5775 -0.495 5.155 -0.75 5.75 C-2.18299988 8.32939979 -3.78424676 10.06121592 -6 12 C-6.66 12 -7.32 12 -8 12 C-8 12.66 -8 13.32 -8 14 C-13.35971569 18.76705482 -19.82146684 22.10140667 -26.1875 25.3125 C-26.85201172 25.64975098 -27.51652344 25.98700195 -28.20117188 26.33447266 C-35.41138887 29.87693031 -41.05752235 31.39341713 -49 30 C-46 28 -46 28 -42.875 27.5 C-41.451875 27.2525 -41.451875 27.2525 -40 27 C-39.67 26.34 -39.34 25.68 -39 25 C-36.05859375 24.5859375 -36.05859375 24.5859375 -32.4375 24.375 C-31.23996094 24.30023437 -30.04242188 24.22546875 -28.80859375 24.1484375 C-27.41833984 24.07496094 -27.41833984 24.07496094 -26 24 C-26 23.34 -26 22.68 -26 22 C-25.401875 21.7525 -24.80375 21.505 -24.1875 21.25 C-21.8763038 20.13660865 -21.8763038 20.13660865 -20.5625 17.9375 C-18.54959295 15.44149526 -17.08231972 15.48668206 -14 15 C-13.67 14.34 -13.34 13.68 -13 13 C-12.34 13 -11.68 13 -11 13 C-10.67 12.01 -10.34 11.02 -10 10 C-8.34928604 8.97388051 -6.68029994 7.97691857 -5 7 C-2.31979608 4.61759651 -1.14462392 3.43387177 0 0 Z " fill="#87B9D7" transform="translate(418,515)"/>
<path d="M0 0 C4.85402451 0.03504711 9.9361629 1.8111629 13.4375 5.3125 C13.47813832 6.97867115 13.480221 8.64638095 13.4375 10.3125 C11.54239301 10.39410748 9.64625496 10.45196459 7.75 10.5 C6.16638672 10.55220703 6.16638672 10.55220703 4.55078125 10.60546875 C1.05591396 10.27659165 -0.79188553 9.43543836 -3.5625 7.3125 C-3.5625 6.6525 -3.5625 5.9925 -3.5625 5.3125 C-4.2225 5.3125 -4.8825 5.3125 -5.5625 5.3125 C-4.45106813 0.39044457 -4.45106813 0.39044457 0 0 Z " fill="#ECEDED" transform="translate(246.5625,191.6875)"/>
<path d="M0 0 C9.30336588 8.80318492 15.48783736 22.39992815 16.16796875 35.1484375 C16.26547124 51.25584955 16.26547124 51.25584955 11 57 C11 54.36 11 51.72 11 49 C11.66 49 12.32 49 13 49 C13.05420701 46.43721301 13.09377007 43.87558517 13.125 41.3125 C13.14175781 40.59126953 13.15851563 39.87003906 13.17578125 39.12695312 C13.21429042 34.91019907 12.78540185 31.80931157 11 28 C10.835 26.9275 10.67 25.855 10.5 24.75 C10.335 23.8425 10.17 22.935 10 22 C9.34 21.67 8.68 21.34 8 21 C7.6451046 19.00371336 7.31421071 17.00309329 7 15 C5.97741335 12.32554261 5.10788961 11.09481208 2.9375 9.1875 C0.34740822 6.26320283 0.29385997 3.82017958 0 0 Z " fill="#84BAD6" transform="translate(410,348)"/>
<path d="M0 0 C6.84162896 -0.65158371 6.84162896 -0.65158371 10 1.125 C11.47901666 3.89815624 11.38601984 5.91184125 11 9 C9.875 10.875 9.875 10.875 8 12 C4.33237794 12.54624158 2.6741242 12.47898298 -0.375 10.3125 C-2.31057067 7.55803405 -2.50734682 6.29775432 -2 3 C-1.34 2.01 -0.68 1.02 0 0 Z " fill="#F7F8F6" transform="translate(201,130)"/>
<path d="M0 0 C2 1.0625 2 1.0625 3 3 C2.875 6.5625 2.875 6.5625 2 10 C-1 12 -1 12 -4.5625 11.75 C-8 11 -8 11 -10 9 C-10.3125 5.5 -10.3125 5.5 -10 2 C-6.30513897 -0.46324069 -4.36706908 -0.38991688 0 0 Z " fill="#F2F5F5" transform="translate(276,130)"/>
<path d="M0 0 C5.94 0 11.88 0 18 0 C18 0.66 18 1.32 18 2 C16.35 2.33 14.7 2.66 13 3 C13 2.67 13 2.34 13 2 C11.41676312 1.972807 9.83338938 1.95351694 8.25 1.9375 C7.36828125 1.92589844 6.4865625 1.91429687 5.578125 1.90234375 C3.19181457 1.9927343 1.25016449 2.21294695 -1 3 C-2.20003343 4.81601365 -2.20003343 4.81601365 -3 7 C-3.34289062 7.60199219 -3.68578125 8.20398438 -4.0390625 8.82421875 C-5.16420214 11.37179102 -5.26692461 13.22436362 -5.25 16 C-5.25515625 16.845625 -5.2603125 17.69125 -5.265625 18.5625 C-4.98531155 21.13478811 -4.2948187 22.7803108 -3 25 C-2.5875 24.484375 -2.175 23.96875 -1.75 23.4375 C-1.1725 22.963125 -0.595 22.48875 0 22 C2.1875 22.3125 2.1875 22.3125 4 23 C3.67 24.32 3.34 25.64 3 27 C1.68 27 0.36 27 -1 27 C-1 27.66 -1 28.32 -1 29 C-2.32 28.67 -3.64 28.34 -5 28 C-5.33 26.35 -5.66 24.7 -6 23 C-6.66 23 -7.32 23 -8 23 C-9.02504161 17.87479197 -8.79681089 14.86195888 -7 10 C-7.04125 9.113125 -7.0825 8.22625 -7.125 7.3125 C-7 5 -7 5 -5.1875 3.1875 C-3 2 -3 2 0 2 C0 1.34 0 0.68 0 0 Z " fill="#75B2D6" transform="translate(257,127)"/>
<path d="M0 0 C-1.39533662 4.43970742 -3.56128532 6.90515679 -7 10 C-7.99 10.495 -7.99 10.495 -9 11 C-9 10.01 -9 9.02 -9 8 C-11.40081183 8.93055241 -11.40081183 8.93055241 -12.4375 12.375 C-14.4950495 17.14851485 -14.4950495 17.14851485 -17 19 C-17.66 19 -18.32 19 -19 19 C-19.33 19.99 -19.66 20.98 -20 22 C-21.29355827 23.37195574 -22.62298702 24.71182656 -24 26 C-25.98 25.34 -27.96 24.68 -30 24 C-30 23.67 -30 23.34 -30 23 C-28.02 23 -26.04 23 -24 23 C-23.64421875 21.92878906 -23.64421875 21.92878906 -23.28125 20.8359375 C-20.05322307 13.69097545 -8.63465748 0 0 0 Z " fill="#76BEDD" transform="translate(374,5)"/>
<path d="M0 0 C3.87741432 1.29247144 6.83723683 2.47091978 9 6 C9.52818153 10.70561725 9.34456544 15.28455814 9 20 C8.01 20.33 7.02 20.66 6 21 C5.979375 21.86625 5.95875 22.7325 5.9375 23.625 C4.61849768 28.37340834 1.83465488 30.13035761 -2 33 C-3.051875 33.928125 -3.051875 33.928125 -4.125 34.875 C-6.52722171 36.31633302 -8.24873472 36.22927211 -11 36 C-10.278125 35.443125 -9.55625 34.88625 -8.8125 34.3125 C-5.92913577 32.0270024 -5.92913577 32.0270024 -3.3125 29.25 C-1 27 -1 27 1 27 C1.68774405 25.67741528 2.34711373 24.34013497 3 23 C3.53625 21.96875 4.0725 20.9375 4.625 19.875 C6.58158306 15.36207726 6.26232223 10.82867214 6 6 C5.34 6 4.68 6 4 6 C4 5.34 4 4.68 4 4 C2.02 3.34 0.04 2.68 -2 2 C-1.34 1.34 -0.68 0.68 0 0 Z " fill="#91CBDD" transform="translate(257,188)"/>
<path d="M0 0 C2 3.75 2 3.75 2 6 C2.99 6 3.98 6 5 6 C5.061875 6.7425 5.12375 7.485 5.1875 8.25 C6.24866383 11.84163143 8.06166338 12.77833085 11 15 C11.69937532 16.31647119 12.36729133 17.65022151 13 19 C14.29470975 20.37086915 15.62150897 21.71340837 17 23 C16.67 23.66 16.34 24.32 16 25 C16.53625 25.2475 17.0725 25.495 17.625 25.75 C20.56424252 27.29696975 23.25754408 29.13014369 26 31 C24.32421875 31.73046875 24.32421875 31.73046875 22 32 C11.90935801 26.10452255 3.62612028 15.5886753 -1 5 C-0.6875 2.125 -0.6875 2.125 0 0 Z " fill="#89BAD3" transform="translate(6,115)"/>
<path d="M0 0 C2.1899142 2.1899142 2.73972043 2.96340505 3 6 C1.6875 8.75 1.6875 8.75 0 11 C-0.66 11 -1.32 11 -2 11 C-2.02904864 14.91665108 -2.04681517 18.8332744 -2.0625 22.75 C-2.07087891 23.86117188 -2.07925781 24.97234375 -2.08789062 26.1171875 C-2.09111328 27.18710937 -2.09433594 28.25703125 -2.09765625 29.359375 C-2.10289307 30.34389648 -2.10812988 31.32841797 -2.11352539 32.34277344 C-2.10436159 34.95902909 -2.10436159 34.95902909 -1.36889648 37.22753906 C-1.24716064 37.81245117 -1.1254248 38.39736328 -1 39 C-1.66 39.66 -2.32 40.32 -3 41 C-7.66180872 28.70725439 -7.19589472 16.07392741 -2.1328125 3.91796875 C-1.47658918 2.583648 -0.74923451 1.28440203 0 0 Z " fill="#80BAD5" transform="translate(52,362)"/>
<path d="M0 0 C0.33 0.99 0.66 1.98 1 3 C0.05988318 4.70116376 -0.94895617 6.36504293 -2 8 C-2.69822617 9.65369357 -3.37498605 11.31727014 -4 13 C-4.66 13 -5.32 13 -6 13 C-6.12375 13.969375 -6.2475 14.93875 -6.375 15.9375 C-6.58125 16.948125 -6.7875 17.95875 -7 19 C-7.66 19.33 -8.32 19.66 -9 20 C-9.63730634 21.77903078 -9.63730634 21.77903078 -10.03515625 23.9296875 C-10.28942383 25.12271484 -10.28942383 25.12271484 -10.54882812 26.33984375 C-10.71833984 27.17644531 -10.88785156 28.01304688 -11.0625 28.875 C-11.40627947 30.51849588 -11.75128286 32.16173634 -12.09765625 33.8046875 C-12.24726807 34.53671387 -12.39687988 35.26874023 -12.55102539 36.02294922 C-13 38 -13 38 -14 41 C-14.66 41 -15.32 41 -16 41 C-16.31130813 35.25218889 -15.30274358 30.73349116 -13.4375 25.3125 C-13.17155029 24.52665527 -12.90560059 23.74081055 -12.6315918 22.93115234 C-9.65600875 14.49674106 -5.46326739 7.09729601 0 0 Z " fill="#87BCD9" transform="translate(17,35)"/>
<path d="M0 0 C2.475 0.495 2.475 0.495 5 1 C5 1.66 5 2.32 5 3 C5.763125 3.28875 6.52625 3.5775 7.3125 3.875 C10 5 10 5 13 7 C13 7.66 13 8.32 13 9 C14.32 9 15.64 9 17 9 C17 9.66 17 10.32 17 11 C18.051875 10.87625 18.051875 10.87625 19.125 10.75 C22 11 22 11 24.75 12.875 C28.26945937 15.17618497 30.86660308 15.78260393 34.94921875 16.41015625 C37.3654408 17.10510773 38.38720611 18.11072716 40 20 C25.31780197 18.89190958 10.48816507 11.23844685 0 1 C0 0.67 0 0.34 0 0 Z " fill="#89BED5" transform="translate(67,526)"/>
<path d="M0 0 C-2.87408432 7.19351741 -10.8495462 12.63824083 -17.0625 16.9375 C-20.15997749 18.84756862 -20.15997749 18.84756862 -22 22 C-22.33 20.68 -22.66 19.36 -23 18 C-22.34 18 -21.68 18 -21 18 C-21 17.34 -21 16.68 -21 16 C-20.01 16 -19.02 16 -18 16 C-17.78918149 12.10540926 -17.78918149 12.10540926 -19 9 C-18.01 8.67 -17.02 8.34 -16 8 C-15.67 8.66 -15.34 9.32 -15 10 C-14.34 9.34 -13.68 8.68 -13 8 C-12.34 8.33 -11.68 8.66 -11 9 C-11.33 6.69 -11.66 4.38 -12 2 C-11.1028125 2.5259375 -11.1028125 2.5259375 -10.1875 3.0625 C-7.89186786 4.33304698 -7.89186786 4.33304698 -5 3 C-4.67 2.34 -4.34 1.68 -4 1 C-2 0 -2 0 0 0 Z " fill="#79BEDF" transform="translate(372,272)"/>
<path d="M0 0 C7.26 0 14.52 0 22 0 C22.33 1.32 22.66 2.64 23 4 C25.64 4.33 28.28 4.66 31 5 C31.33 5.99 31.66 6.98 32 8 C27.71 8 23.42 8 19 8 C19.66 7.67 20.32 7.34 21 7 C20.67 6.34 20.34 5.68 20 5 C16.97065509 4.34227572 16.97065509 4.34227572 14 4 C14 3.67 14 3.34 14 3 C9.38 2.34 4.76 1.68 0 1 C0 0.67 0 0.34 0 0 Z " fill="#6CBEE6" transform="translate(242,0)"/>
<path d="M0 0 C0.66 0.33 1.32 0.66 2 1 C1.01 1.33 0.02 1.66 -1 2 C-1.33 2.825 -1.66 3.65 -2 4.5 C-2.33 5.325 -2.66 6.15 -3 7 C-6.47325181 8.1577506 -9.36067448 8.06866652 -13 8 C-13 8.66 -13 9.32 -13 10 C-14.65 10.33 -16.3 10.66 -18 11 C-18.33 11.99 -18.66 12.98 -19 14 C-22.63 14.66 -26.26 15.32 -30 16 C-29.67 14.68 -29.34 13.36 -29 12 C-27.68 12 -26.36 12 -25 12 C-22.37331038 10.817272 -19.8559915 9.58969036 -17.3125 8.25 C-15.87954491 7.51567946 -14.44595442 6.78259747 -13.01171875 6.05078125 C-12.32255371 5.69709473 -11.63338867 5.3434082 -10.92333984 4.97900391 C-7.33225172 3.15109538 -3.74642182 1.48565003 0 0 Z " fill="#85C0DD" transform="translate(147,15)"/>
<path d="M0 0 C0.99 0.495 0.99 0.495 2 1 C2 6.61 2 12.22 2 18 C2.66 18 3.32 18 4 18 C4 18.66 4 19.32 4 20 C4.66 20.33 5.32 20.66 6 21 C5.835 21.66 5.67 22.32 5.5 23 C4.87816701 26.73099794 4.93591074 30.21873378 5 34 C4.01 33.67 3.02 33.34 2 33 C-0.82446796 26.48127759 -0.2240358 19.54452406 -0.125 12.5625 C-0.11597656 11.35400391 -0.10695312 10.14550781 -0.09765625 8.90039062 C-0.07420168 5.93338722 -0.04137794 2.96679857 0 0 Z " fill="#71BADB" transform="translate(0,79)"/>
<path d="M0 0 C3.40312738 1.05875074 6.01353231 2.00902154 9 4 C9.2208564 6.95064148 9.28060989 9.68368231 9.1875 12.625 C9.16719727 13.82769531 9.16719727 13.82769531 9.14648438 15.0546875 C9.11109051 17.03674378 9.05728234 19.01845551 9 21 C2.4033499 24.93261833 -1.45476695 26.13467808 -9.25 26.0625 C-10.51328125 26.05347656 -11.7765625 26.04445312 -13.078125 26.03515625 C-14.04234375 26.02355469 -15.0065625 26.01195312 -16 26 C-16 25.67 -16 25.34 -16 25 C-15.08476562 24.95101562 -14.16953125 24.90203125 -13.2265625 24.8515625 C-12.03804687 24.77679688 -10.84953125 24.70203125 -9.625 24.625 C-7.84996094 24.52058594 -7.84996094 24.52058594 -6.0390625 24.4140625 C-2.89437681 24.29782654 -2.89437681 24.29782654 -1 22 C0.2065625 21.7834375 0.2065625 21.7834375 1.4375 21.5625 C4.3898165 20.91443053 5.19210672 20.3757906 7 18 C7.39971946 15.55685965 7.39971946 15.55685965 7.25 12.9375 C7.23453125 12.05964844 7.2190625 11.18179688 7.203125 10.27734375 C7.13730791 7.96962973 7.13730791 7.96962973 6 6 C5.175 5.71125 4.35 5.4225 3.5 5.125 C1 4 1 4 0.1875 1.875 C0.125625 1.25625 0.06375 0.6375 0 0 Z " fill="#8CC7D6" transform="translate(226,223)"/>
<path d="M0 0 C5.66442374 0.36504064 10.00703705 1.0554321 15 4 C15 4.66 15 5.32 15 6 C15.66 6.33 16.32 6.66 17 7 C16.34 10.3 15.68 13.6 15 17 C14.34 16.67 13.68 16.34 13 16 C11.46331135 15.77532169 9.92031946 15.59203195 8.375 15.4375 C7.55773437 15.35371094 6.74046875 15.26992187 5.8984375 15.18359375 C5.27195313 15.12300781 4.64546875 15.06242188 4 15 C4 14.67 4 14.34 4 14 C7.3 14 10.6 14 14 14 C13.58849847 11.08601755 13.58849847 11.08601755 12 8 C10.06005682 6.74373723 8.09603457 5.86246587 5.9765625 4.9453125 C3.45923326 3.74137243 1.80442432 2.10516171 0 0 Z " fill="#314145" transform="translate(246,188)"/>
<path d="M0 0 C0.99 0.33 1.98 0.66 3 1 C2.505 1.61875 2.01 2.2375 1.5 2.875 C-0.5797463 7.20780479 -0.59329888 11.26131413 0 16 C0.94022226 18.24276373 0.94022226 18.24276373 2 20 C2.4125 19.484375 2.825 18.96875 3.25 18.4375 C3.8275 17.963125 4.405 17.48875 5 17 C7.1875 17.3125 7.1875 17.3125 9 18 C8.67 19.32 8.34 20.64 8 22 C6.68 22 5.36 22 4 22 C4 22.66 4 23.32 4 24 C4.66 24.33 5.32 24.66 6 25 C3 25 3 25 0 24 C-2.92217317 18.04742503 -3.85840897 12.60314593 -3 6 C-1.5 2.375 -1.5 2.375 0 0 Z " fill="#73ACCA" transform="translate(185,132)"/>
<path d="M0 0 C2.97 0.33 5.94 0.66 9 1 C9 1.99 9 2.98 9 4 C10.08861328 4.16822266 10.08861328 4.16822266 11.19921875 4.33984375 C14.12563993 5.02961387 16.22287809 6.05510814 18.8125 7.5625 C19.60269531 8.01753906 20.39289063 8.47257812 21.20703125 8.94140625 C21.79871094 9.29074219 22.39039062 9.64007813 23 10 C22.67 10.99 22.34 11.98 22 13 C19.93359375 13.73046875 19.93359375 13.73046875 17.4375 14.1875 C16.61121094 14.34605469 15.78492187 14.50460937 14.93359375 14.66796875 C14.29550781 14.77753906 13.65742187 14.88710938 13 15 C12.67 14.01 12.34 13.02 12 12 C13.65 11.67 15.3 11.34 17 11 C16.02417969 10.45730469 15.04835938 9.91460937 14.04296875 9.35546875 C12.75766633 8.6330725 11.47251813 7.91040182 10.1875 7.1875 C9.54490234 6.83107422 8.90230469 6.47464844 8.24023438 6.10742188 C5.02059039 4.28907372 2.63895383 2.63895383 0 0 Z " fill="#89C3DB" transform="translate(68,423)"/>
<path d="M0 0 C2.31 0 4.62 0 7 0 C3.60465818 3.74696297 -0.57849448 5.62904776 -5 8 C-1.37 8.66 2.26 9.32 6 10 C6 10.33 6 10.66 6 11 C-3.9975892 11.62054002 -3.9975892 11.62054002 -7.625 9.375 C-9.25083694 6.56673619 -9.70770032 4.21529643 -10 1 C-9.01 1 -8.02 1 -7 1 C-7 1.66 -7 2.32 -7 3 C-4.69 3 -2.38 3 0 3 C0 2.01 0 1.02 0 0 Z " fill="#75BCE0" transform="translate(394,425)"/>
<path d="M0 0 C0.33 0.66 0.66 1.32 1 2 C1.66 2 2.32 2 3 2 C2.67 2.99 2.34 3.98 2 5 C0.824375 5.12375 0.824375 5.12375 -0.375 5.25 C-3.14749104 5.72806339 -3.14749104 5.72806339 -4.3125 8.0625 C-4.6528125 9.0215625 -4.6528125 9.0215625 -5 10 C-5.66 10 -6.32 10 -7 10 C-7.12375 10.639375 -7.2475 11.27875 -7.375 11.9375 C-7.58125 12.618125 -7.7875 13.29875 -8 14 C-8.99 14.495 -8.99 14.495 -10 15 C-10.598125 16.155 -11.19625 17.31 -11.8125 18.5 C-13.64333561 21.87840987 -13.64333561 21.87840987 -16.75 22.9375 C-17.4925 22.958125 -18.235 22.97875 -19 23 C-19 22.34 -19 21.68 -19 21 C-18.34 21 -17.68 21 -17 21 C-16.72599365 20.40904541 -16.4519873 19.81809082 -16.16967773 19.20922852 C-15.04279166 17.08082274 -13.85651242 15.46717585 -12.28515625 13.65234375 C-11.76373047 13.04712891 -11.24230469 12.44191406 -10.70507812 11.81835938 C-10.16302734 11.19767578 -9.62097656 10.57699219 -9.0625 9.9375 C-8.52431641 9.31294922 -7.98613281 8.68839844 -7.43164062 8.04492188 C-5.03140731 5.27177932 -2.61718518 2.57175297 0 0 Z " fill="#8BC3D9" transform="translate(84,321)"/>
<path d="M0 0 C3.70831663 -0.02918874 7.41660342 -0.04686218 11.125 -0.0625 C12.17171875 -0.07087891 13.2184375 -0.07925781 14.296875 -0.08789062 C19.3090905 -0.10375207 24.07665912 -0.08177213 29 1 C29 1.66 29 2.32 29 3 C28.44054687 2.9278125 27.88109375 2.855625 27.3046875 2.78125 C12.99151179 1.12441937 -0.45899693 0.96915583 -13 9 C-12.67 7.68 -12.34 6.36 -12 5 C-11.34 5 -10.68 5 -10 5 C-9.34 3.68 -8.68 2.36 -8 1 C-5.36 1.33 -2.72 1.66 0 2 C0 1.34 0 0.68 0 0 Z " fill="#92C6D8" transform="translate(224,186)"/>
<path d="M0 0 C0.66 0.33 1.32 0.66 2 1 C-2.18243437 8.22420482 -8.83640055 15.65706783 -16 20 C-16.99 19.67 -17.98 19.34 -19 19 C-17.625 17.5 -17.625 17.5 -16 16 C-15.34 16 -14.68 16 -14 16 C-13.67 14.68 -13.34 13.36 -13 12 C-11.35 11.67 -9.7 11.34 -8 11 C-7.9175 10.21625 -7.835 9.4325 -7.75 8.625 C-7 6 -7 6 -5 4.875 C-4.34 4.58625 -3.68 4.2975 -3 4 C-2.67 3.01 -2.34 2.02 -2 1 C-1.34 0.67 -0.68 0.34 0 0 Z " fill="#85BEDA" transform="translate(419,405)"/>
<path d="M0 0 C0 0.33 0 0.66 0 1 C-10.02744425 2.01543739 -10.02744425 2.01543739 -14.9375 1.9375 C-18.116785 2.00238337 -19.29881585 2.48058392 -22 4 C-24.3243602 4.69730806 -26.65673706 5.36912152 -29 6 C-29.33 5.34 -29.66 4.68 -30 4 C-29.67 3.01 -29.34 2.02 -29 1 C-19.57905632 -1.43121127 -9.54229006 -2.2378729 0 0 Z " fill="#6EBDE3" transform="translate(403,3)"/>
<path d="M0 0 C9.43065148 4.01675896 16.90163633 10.47518572 22.35546875 19.17578125 C23.16600042 21.4698315 22.78419883 22.73731164 22 25 C21.731875 24.030625 21.46375 23.06125 21.1875 22.0625 C20.795625 21.051875 20.40375 20.04125 20 19 C19.01 18.67 18.02 18.34 17 18 C16.3125 15.9375 16.3125 15.9375 16 14 C15.34 14 14.68 14 14 14 C12.31066078 12.3563186 10.64740076 10.6857124 9 9 C7.6078125 7.9171875 7.6078125 7.9171875 6.1875 6.8125 C5.465625 6.214375 4.74375 5.61625 4 5 C4 4.34 4 3.68 4 3 C2.68 2.67 1.36 2.34 0 2 C0 1.34 0 0.68 0 0 Z " fill="#90C1D9" transform="translate(412,440)"/>
<path d="M0 0 C0.69328371 7.51827663 -0.32758025 12.02597761 -5 18 C-5.99 17.67 -6.98 17.34 -8 17 C-6.68 14.36 -5.36 11.72 -4 9 C-4.66 9 -5.32 9 -6 9 C-6.25 6.75 -6.25 6.75 -6 4 C-2.75675676 0 -2.75675676 0 0 0 Z " fill="#2B3032" transform="translate(280,138)"/>
<path d="M0 0 C1.72880982 -0.05449838 3.45812712 -0.09301688 5.1875 -0.125 C6.15042969 -0.14820312 7.11335937 -0.17140625 8.10546875 -0.1953125 C12.26644938 0.08545542 15.04655905 1.25270844 18.3125 3.8125 C20.39045425 6.5061444 20.24353345 7.67170958 20 11 C20.185625 11.804375 20.37125 12.60875 20.5625 13.4375 C21.08763609 16.51329712 20.63523761 18.96497585 20 22 C19.34 22 18.68 22 18 22 C18.03480469 21.443125 18.06960937 20.88625 18.10546875 20.3125 C18.2967527 14.92011444 18.22931414 9.5544465 15 5 C11.45136841 3.38864654 11.45136841 3.38864654 8 3 C8 2.67 8 2.34 8 2 C5.36 1.67 2.72 1.34 0 1 C0 0.67 0 0.34 0 0 Z " fill="#82BEDC" transform="translate(195,127)"/>
<path d="M0 0 C4.82217451 2.29508993 6.36889235 4.9228891 8.625 9.6875 C8.92349854 10.31454834 9.22199707 10.94159668 9.52954102 11.58764648 C15.53009716 24.34563025 15.53009716 24.34563025 15 30 C14.34 29.67 13.68 29.34 13 29 C12.1484375 26.27734375 12.1484375 26.27734375 11.375 22.9375 C11.11460937 21.83277344 10.85421875 20.72804688 10.5859375 19.58984375 C10.39257812 18.73519531 10.19921875 17.88054688 10 17 C9.34 17 8.68 17 8 17 C7.73445313 16.28972656 7.46890625 15.57945313 7.1953125 14.84765625 C6.84210938 13.92855469 6.48890625 13.00945313 6.125 12.0625 C5.77695312 11.14597656 5.42890625 10.22945312 5.0703125 9.28515625 C4.2180914 6.85058944 4.2180914 6.85058944 2 6 C1.27306096 4.02111039 0.60183749 2.02045442 0 0 Z " fill="#83BAD4" transform="translate(440,30)"/>
<path d="M0 0 C2.04119788 1.61594832 4.04072937 3.2856382 6 5 C6 5.66 6 6.32 6 7 C6.66 7 7.32 7 8 7 C9.9453125 9.1171875 9.9453125 9.1171875 12.125 11.875 C12.84945313 12.77992188 13.57390625 13.68484375 14.3203125 14.6171875 C16 17 16 17 16 19 C16.66 19 17.32 19 18 19 C17.67 19.66 17.34 20.32 17 21 C16.34 20.67 15.68 20.34 15 20 C15 19.34 15 18.68 15 18 C13.68 18 12.36 18 11 18 C11 16.68 11 15.36 11 14 C10.21625 13.7525 9.4325 13.505 8.625 13.25 C5.61694992 11.8175952 5.24509643 10.9690761 4 8 C3.34 7.67 2.68 7.34 2 7 C0.42451317 4.37418862 0 3.12900213 0 0 Z " fill="#82BDD8" transform="translate(389,323)"/>
<path d="M0 0 C0.66 0 1.32 0 2 0 C1.54617044 4.87866775 0.3639156 7.43820701 -3 11 C-6.45083995 13.30055997 -7.87175728 13.27010256 -11.9375 13.25 C-13.49791016 13.25773438 -13.49791016 13.25773438 -15.08984375 13.265625 C-17.93098495 13.00629936 -19.58707634 12.46519702 -22 11 C-22 10.34 -22 9.68 -22 9 C-20.68 9 -19.36 9 -18 9 C-18 9.66 -18 10.32 -18 11 C-16.41632253 10.85795259 -14.83306682 10.71119847 -13.25 10.5625 C-12.36828125 10.48128906 -11.4865625 10.40007812 -10.578125 10.31640625 C-8.27833048 10.03415874 -6.18698991 9.76495611 -4 9 C-2.80161791 6.67145537 -2.80161791 6.67145537 -2 4 C-1.34786461 2.65949948 -0.68620031 1.32338632 0 0 Z " fill="#29404A" transform="translate(211,145)"/>
<path d="M0 0 C0.66 0.33 1.32 0.66 2 1 C0.125 6.875 0.125 6.875 -1 8 C-1.23363881 9.84891946 -1.41303635 11.70488031 -1.5625 13.5625 C-1.64628906 14.57441406 -1.73007813 15.58632812 -1.81640625 16.62890625 C-1.87699219 17.41136719 -1.93757812 18.19382813 -2 19 C-1.01 19.33 -0.02 19.66 1 20 C0.34 20 -0.32 20 -1 20 C-1.33 20.99 -1.66 21.98 -2 23 C-5.26480534 18.91899333 -5.44630223 15.39931992 -5.296875 10.37109375 C-4.91370973 7.31081322 -3.89900564 5.41027639 -2 3 C-1.34 2.01 -0.68 1.02 0 0 Z " fill="#233944" transform="translate(256,130)"/>
<path d="M0 0 C-11.02702703 8 -11.02702703 8 -15 8 C-15 12.62 -15 17.24 -15 22 C-15.33 22 -15.66 22 -16 22 C-16.33 16.72 -16.66 11.44 -17 6 C-15.68 6.33 -14.36 6.66 -13 7 C-12.67 6.01 -12.34 5.02 -12 4 C-10.68352881 3.30062468 -9.34977849 2.63270867 -8 2 C-7.67 1.34 -7.34 0.68 -7 0 C-3.86650268 -1.04449911 -3.01031744 -0.93423645 0 0 Z " fill="#254148" transform="translate(252,220)"/>
<path d="M0 0 C0.99 0.144375 1.98 0.28875 3 0.4375 C6.99409465 1.00925179 10.99532937 1.50819834 15 2 C14.34 3.65 13.68 5.3 13 7 C10.36 6.67 7.72 6.34 5 6 C5 5.34 5 4.68 5 4 C3.35 3.67 1.7 3.34 0 3 C0 2.01 0 1.02 0 0 Z " fill="#6BBEEB" transform="translate(293,9)"/>
<path d="M0 0 C3 1 3 1 4.2890625 3.3359375 C4.95035156 4.84027344 4.95035156 4.84027344 5.625 6.375 C8.85533195 13.17827486 13.01656265 18.37425294 18 24 C17.34 24.66 16.68 25.32 16 26 C12 21.25 12 21.25 12 19 C11.34 19 10.68 19 10 19 C8.56412562 16.98379306 7.2702466 14.99207766 6 12.875 C5.64421875 12.30523437 5.2884375 11.73546875 4.921875 11.1484375 C2.72508044 7.54175987 1.18168894 4.04974648 0 0 Z " fill="#8DBBD2" transform="translate(45,495)"/>
<path d="M0 0 C-3 2 -3 2 -5.23828125 1.6328125 C-6.14964844 1.42398437 -7.06101562 1.21515625 -8 1 C-10.39445293 0.90862918 -12.7913097 0.86995007 -15.1875 0.875 C-16.41855469 0.87242188 -17.64960938 0.86984375 -18.91796875 0.8671875 C-21.91246397 0.78611051 -21.91246397 0.78611051 -24 2 C-25.99960012 2.039992 -28.00047242 2.04346799 -30 2 C-22.9009336 -5.0990664 -8.65651244 -2.71576861 0 0 Z " fill="#93C4DC" transform="translate(406,2)"/>
<path d="M0 0 C0.99 0.33 1.98 0.66 3 1 C9.81574013 2.75332445 17.02040004 2.15246699 24 2 C23.67 3.32 23.34 4.64 23 6 C7.25512528 5.40546697 7.25512528 5.40546697 0 2 C0 1.34 0 0.68 0 0 Z " fill="#8DC5D8" transform="translate(240,248)"/>
<path d="M0 0 C0.66 0.33 1.32 0.66 2 1 C-4.41655541 7.77303071 -4.41655541 7.77303071 -10.0234375 8.265625 C-11.68246094 8.25789062 -11.68246094 8.25789062 -13.375 8.25 C-14.47585937 8.25515625 -15.57671875 8.2603125 -16.7109375 8.265625 C-20.09832226 7.99205949 -22.83444028 7.20501669 -26 6 C-23.53869326 5.1480092 -22.08209008 4.98358198 -19.5 5.5 C-14.27903275 6.24585246 -9.22415892 5.54946655 -4 5 C-4 4.34 -4 3.68 -4 3 C-2 1.375 -2 1.375 0 0 Z " fill="#90CBDC" transform="translate(268,241)"/>
<path d="M0 0 C0.33 0 0.66 0 1 0 C1.59732819 2.76264289 2 5.16032769 2 8 C1.01 9.485 1.01 9.485 0 11 C-2.31 10.67 -4.62 10.34 -7 10 C-6.67 9.01 -6.34 8.02 -6 7 C-5.34 7 -4.68 7 -4 7 C-3.71125 6.401875 -3.4225 5.80375 -3.125 5.1875 C-2 3 -2 3 0 0 Z " fill="#6BBFED" transform="translate(212,149)"/>
<path d="M0 0 C0.33 0 0.66 0 1 0 C1.23492361 5.75562843 0.99636642 10.56544696 -1 16 C-3.96124555 18.96124555 -6.8018498 18.95957658 -10.89453125 19.09765625 C-11.85746094 19.08605469 -12.82039063 19.07445312 -13.8125 19.0625 C-15.27623047 19.04896484 -15.27623047 19.04896484 -16.76953125 19.03515625 C-17.87361328 19.01775391 -17.87361328 19.01775391 -19 19 C-19 18.67 -19 18.34 -19 18 C-18.32453125 17.95101562 -17.6490625 17.90203125 -16.953125 17.8515625 C-16.06109375 17.77679688 -15.1690625 17.70203125 -14.25 17.625 C-13.36828125 17.55539063 -12.4865625 17.48578125 -11.578125 17.4140625 C-8.94460774 16.99110367 -7.2398936 16.43198381 -5 15 C-1.45932405 9.9418915 -0.42969744 6.12318859 0 0 Z " fill="#6BA3C2" transform="translate(280,140)"/>
<path d="M0 0 C0.66 0.33 1.32 0.66 2 1 C0.54753932 5.53997711 -1.83631659 8.34493308 -5.0625 11.8125 C-5.52205078 12.31458984 -5.98160156 12.81667969 -6.45507812 13.33398438 C-7.610392 14.58090905 -8.80223996 15.79379016 -10 17 C-10.33 17 -10.66 17 -11 17 C-11.375 14.75 -11.375 14.75 -11 12 C-9.03277992 10.61876037 -7.03131672 9.28511874 -5 8 C-4.04768403 5.87880872 -4.04768403 5.87880872 -4 4 C-2.68 4 -1.36 4 0 4 C0 2.68 0 1.36 0 0 Z " fill="#86BDDB" transform="translate(384,255)"/>
<path d="M0 0 C0.33 0.66 0.66 1.32 1 2 C0.328125 3.734375 0.328125 3.734375 -0.75 5.75 C-2.09789333 8.2801752 -3.31069922 10.72946773 -4.4375 13.375 C-6.31382157 16.52722024 -7.63094887 16.82767977 -11 18 C-7.95355965 11.42184562 -4.57644793 5.63013182 0 0 Z " fill="#97C6D7" transform="translate(64,344)"/>
<path d="M0 0 C7.35678392 -0.36180905 7.35678392 -0.36180905 10 1.125 C11.47901666 3.89815624 11.38601984 5.91184125 11 9 C9.875 10.875 9.875 10.875 8 12 C4.8125 12.1875 4.8125 12.1875 2 12 C5.75 9 5.75 9 8 9 C8.33 7.68 8.66 6.36 9 5 C4.18790099 2.70954986 4.18790099 2.70954986 -1 2 C-0.67 1.34 -0.34 0.68 0 0 Z " fill="#DBE6E8" transform="translate(201,130)"/>
<path d="M0 0 C0.66 0.33 1.32 0.66 2 1 C1.01 1.99 0.02 2.98 -1 4 C-0.67 2.68 -0.34 1.36 0 0 Z M-1 4 C-1 4.66 -1 5.32 -1 6 C-1.9590625 6.1546875 -1.9590625 6.1546875 -2.9375 6.3125 C-3.618125 6.539375 -4.29875 6.76625 -5 7 C-5.33 7.99 -5.66 8.98 -6 10 C-7.29355827 11.37195574 -8.62298702 12.71182656 -10 14 C-11.98 13.34 -13.96 12.68 -16 12 C-16 11.67 -16 11.34 -16 11 C-14.02 11 -12.04 11 -10 11 C-9.773125 10.21625 -9.54625 9.4325 -9.3125 8.625 C-8 6 -8 6 -5.5 4.6875 C-3 4 -3 4 -1 4 Z " fill="#77B9D7" transform="translate(360,17)"/>
<path d="M0 0 C0.66 0.33 1.32 0.66 2 1 C2 3 2 3 0.75 4.5 C-1.07013782 6.06011813 -2.81977934 7.0226597 -5 8 C-5 8.66 -5 9.32 -5 10 C-5.99 10 -6.98 10 -8 10 C-8 10.66 -8 11.32 -8 12 C-10.31 12.66 -12.62 13.32 -15 14 C-10.2347969 9.0759568 -5.11342667 4.55740358 0 0 Z " fill="#8AC1D0" transform="translate(100,307)"/>
<path d="M0 0 C0.66 0.33 1.32 0.66 2 1 C2.33 1.99 2.66 2.98 3 4 C5.31029085 4.74259349 7.645752 5.411438 10 6 C10.33 6.33 10.66 6.66 11 7 C12.34747084 7.23075082 13.70377565 7.41153063 15.0625 7.5625 C16.361875 7.706875 17.66125 7.85125 19 8 C19 8.33 19 8.66 19 9 C13.46267313 9.22149307 9.27848804 8.84133304 4 7 C1.7124024 7.27640014 1.7124024 7.27640014 0 8 C-0.79953138 4.71303767 -1.09658936 3.28976808 0 0 Z " fill="#6EBDEB" transform="translate(250,151)"/>
<path d="M0 0 C-1 3 -1 3 -2.65625 4.20703125 C-5.77760273 5.26308892 -8.22867063 4.99887653 -11.5 4.6875 C-13.18609375 4.53861328 -13.18609375 4.53861328 -14.90625 4.38671875 C-17.36391701 4.07951037 -19.6257757 3.68084373 -22 3 C-22 2.34 -22 1.68 -22 1 C-20.08574219 1.01740234 -20.08574219 1.01740234 -18.1328125 1.03515625 C-16.46354313 1.04453417 -14.79427217 1.05363437 -13.125 1.0625 C-12.28324219 1.07087891 -11.44148437 1.07925781 -10.57421875 1.08789062 C-9.76855469 1.09111328 -8.96289062 1.09433594 -8.1328125 1.09765625 C-7.38918457 1.10289307 -6.64555664 1.10812988 -5.87939453 1.11352539 C-3.6373629 0.9780948 -2.26719544 0 0 0 Z " fill="#96D3E8" transform="translate(230,249)"/>
<path d="M0 0 C0.53625 0.721875 1.0725 1.44375 1.625 2.1875 C7.89241591 9.6094399 12.40121763 10.95935531 22 12 C22 12.33 22 12.66 22 13 C11.23280264 13.62721538 11.23280264 13.62721538 6.4375 11.1875 C5.2309375 10.1046875 5.2309375 10.1046875 4 9 C3.401875 8.54625 2.80375 8.0925 2.1875 7.625 C0.44945984 5.24662926 0.31994144 2.87947295 0 0 Z " fill="#234E5A" transform="translate(200,238)"/>
<path d="M0 0 C0.99 0 1.98 0 3 0 C1.74784899 5.84337138 -1.21899104 8.73102506 -6 12 C-9.01490557 13.00496852 -11.04181692 13.10335303 -14.1875 13.0625 C-15.53908203 13.04896484 -15.53908203 13.04896484 -16.91796875 13.03515625 C-17.60503906 13.02355469 -18.29210937 13.01195312 -19 13 C-19 12.67 -19 12.34 -19 12 C-18.35933594 11.90203125 -17.71867188 11.8040625 -17.05859375 11.703125 C-11.2472586 10.69848286 -6.75475995 9.56606996 -2 6 C-0.49195465 2.90243083 -0.49195465 2.90243083 0 0 Z " fill="#295666" transform="translate(270,238)"/>
<path d="M0 0 C0.99 1.32 1.98 2.64 3 4 C3.4125 3.484375 3.825 2.96875 4.25 2.4375 C4.8275 1.963125 5.405 1.48875 6 1 C8.1875 1.3125 8.1875 1.3125 10 2 C9.67 3.32 9.34 4.64 9 6 C7.68 6 6.36 6 5 6 C5 6.66 5 7.32 5 8 C3.68 7.67 2.36 7.34 1 7 C0.67 4.69 0.34 2.38 0 0 Z " fill="#71A4BE" transform="translate(251,148)"/>
<path d="M0 0 C2 3.75 2 3.75 2 6 C2.99 6 3.98 6 5 6 C5.061875 6.7425 5.12375 7.485 5.1875 8.25 C6.24185138 11.8185739 7.99909773 12.92245228 11 15 C10.34 15.66 9.68 16.32 9 17 C4.49752529 13.52137571 0.892212 10.55837275 -1 5 C-0.6875 2.125 -0.6875 2.125 0 0 Z " fill="#7BB8D5" transform="translate(6,115)"/>
<path d="M0 0 C3.40312738 1.05875074 6.01353231 2.00902154 9 4 C9.2208564 6.95064148 9.28060989 9.68368231 9.1875 12.625 C9.17396484 13.42679688 9.16042969 14.22859375 9.14648438 15.0546875 C9.11109051 17.03674378 9.05728234 19.01845551 9 21 C8.67 21 8.34 21 8 21 C7.90912109 19.62714844 7.90912109 19.62714844 7.81640625 18.2265625 C7.73261719 17.03804687 7.64882812 15.84953125 7.5625 14.625 C7.48128906 13.44164062 7.40007812 12.25828125 7.31640625 11.0390625 C7.18915064 8.08481099 7.18915064 8.08481099 6 6 C4.7625 5.566875 4.7625 5.566875 3.5 5.125 C1 4 1 4 0.1875 1.875 C0.125625 1.25625 0.06375 0.6375 0 0 Z " fill="#8ABECE" transform="translate(226,223)"/>
<path d="M0 0 C0 0.33 0 0.66 0 1 C-0.56509277 1.08564209 -1.13018555 1.17128418 -1.71240234 1.25952148 C-4.26714633 1.64869818 -6.82106747 2.04303485 -9.375 2.4375 C-10.70917969 2.63956055 -10.70917969 2.63956055 -12.0703125 2.84570312 C-13.34648437 3.04389648 -13.34648437 3.04389648 -14.6484375 3.24609375 C-15.82672119 3.42676392 -15.82672119 3.42676392 -17.02880859 3.61108398 C-19.06611684 3.92238238 -19.06611684 3.92238238 -21 5 C-22.99960012 5.039992 -25.00047242 5.04346799 -27 5 C-20.44865022 -1.55134978 -8.50420103 -0.33520208 0 0 Z " fill="#324D58" transform="translate(243,187)"/>
<path d="M0 0 C2 1 2 1 2.61328125 2.77734375 C3.01318934 5.07580538 3.16776746 7.23011379 3.1875 9.5625 C3.20167969 10.32691406 3.21585937 11.09132813 3.23046875 11.87890625 C3 14 3 14 1 17 C0 16 0 16 -0.09765625 12.40234375 C-0.0909822 10.91403133 -0.07902183 9.42573568 -0.0625 7.9375 C-0.05798828 7.17888672 -0.05347656 6.42027344 -0.04882812 5.63867188 C-0.0370068 3.75908129 -0.01907078 1.87953101 0 0 Z " fill="#8CB4D2" transform="translate(435,467)"/>
<path d="M0 0 C2.1899142 2.1899142 2.73972043 2.96340505 3 6 C1.6875 8.75 1.6875 8.75 0 11 C-0.66 11 -1.32 11 -2 11 C-2.33 11.66 -2.66 12.32 -3 13 C-3.93045933 10.44855176 -4.08564091 9.25993522 -3.22265625 6.640625 C-2.83980469 5.85171875 -2.45695312 5.0628125 -2.0625 4.25 C-1.68222656 3.45078125 -1.30195312 2.6515625 -0.91015625 1.828125 C-0.60980469 1.22484375 -0.30945312 0.6215625 0 0 Z " fill="#86C1DC" transform="translate(52,362)"/>
<path d="M0 0 C0.66 0.33 1.32 0.66 2 1 C2.46450943 7.50313209 1.32575612 11.4174808 -2 17 C-2.99 17 -3.98 17 -5 17 C-4.34 16.67 -3.68 16.34 -3 16 C-3.04125 15.236875 -3.0825 14.47375 -3.125 13.6875 C-3 11 -3 11 -1 8 C-0.54860541 5.9507906 -0.54860541 5.9507906 -0.375 3.8125 C-0.189375 1.9253125 -0.189375 1.9253125 0 0 Z " fill="#293F44" transform="translate(262,195)"/>
<path d="M0 0 C0.66 0.33 1.32 0.66 2 1 C-0.75155386 5.65647576 -3.17454764 8.2725704 -8 11 C-8.66 11 -9.32 11 -10 11 C-8.55218207 7.55571735 -6.72305391 5.63869038 -3.875 3.25 C-3.15054688 2.63640625 -2.42609375 2.0228125 -1.6796875 1.390625 C-0.84824219 0.70226562 -0.84824219 0.70226562 0 0 Z " fill="#8BBDDC" transform="translate(59,444)"/>
<path d="M0 0 C7.827522 0.26489076 14.07728579 1.24145567 21 5 C17.87820592 6.00693162 16.01030331 5.97289724 12.890625 5.00390625 C11.75947266 4.66069336 11.75947266 4.66069336 10.60546875 4.31054688 C9.43951172 3.94026367 9.43951172 3.94026367 8.25 3.5625 C7.45722656 3.31951172 6.66445313 3.07652344 5.84765625 2.82617188 C3.89564654 2.22645805 1.94743117 1.61441879 0 1 C0 0.67 0 0.34 0 0 Z " fill="#95C0D4" transform="translate(314,537)"/>
<path d="M0 0 C2.55271657 2.55271657 2.28414902 4.27880927 2.328125 7.76586914 C2.32296875 8.52375732 2.3178125 9.28164551 2.3125 10.0625 C2.31121094 10.82876709 2.30992187 11.59503418 2.30859375 12.38452148 C2.21144704 18.11192715 1.30736597 22.71228632 -1 28 C-3.1015625 24.390625 -3.1015625 24.390625 -2.1875 20.875 C-1.50754787 19.2288001 -0.79653111 17.59306222 0 16 C0.07181821 13.28239892 0.09299506 10.59140612 0.0625 7.875 C0.05798828 7.12089844 0.05347656 6.36679688 0.04882812 5.58984375 C0.03703499 3.72652873 0.01909942 1.86325445 0 0 Z " fill="#6BB6E2" transform="translate(455,68)"/>
<path d="M0 0 C2.79297711 0.44099639 5.31340243 1.10446748 8 2 C7.67 3.32 7.34 4.64 7 6 C5.68 6.33 4.36 6.66 3 7 C1.68 5.02 0.36 3.04 -1 1 C-0.67 0.67 -0.34 0.34 0 0 Z " fill="#75BBE0" transform="translate(330,20)"/>
<path d="M0 0 C1.21816406 0.03480469 1.21816406 0.03480469 2.4609375 0.0703125 C3.68683594 0.09738281 3.68683594 0.09738281 4.9375 0.125 C5.87722656 0.15980469 5.87722656 0.15980469 6.8359375 0.1953125 C7.1659375 1.1853125 7.4959375 2.1753125 7.8359375 3.1953125 C10.1459375 3.1953125 12.4559375 3.1953125 14.8359375 3.1953125 C15.1659375 3.8553125 15.4959375 4.5153125 15.8359375 5.1953125 C9.2359375 4.2053125 2.6359375 3.2153125 -4.1640625 2.1953125 C-2.1640625 0.1953125 -2.1640625 0.1953125 0 0 Z " fill="#95C3D6" transform="translate(266.1640625,522.8046875)"/>
<path d="M0 0 C0.33 0.99 0.66 1.98 1 3 C0.50628906 3.32613281 0.01257812 3.65226562 -0.49609375 3.98828125 C-1.13675781 4.42527344 -1.77742188 4.86226562 -2.4375 5.3125 C-3.07558594 5.74175781 -3.71367187 6.17101562 -4.37109375 6.61328125 C-6.2885684 8.0034052 -6.2885684 8.0034052 -7 11 C-7.66 11 -8.32 11 -9 11 C-9 11.66 -9 12.32 -9 13 C-10.32 12.67 -11.64 12.34 -13 12 C-11.3989569 10.3719224 -9.79405264 8.74764115 -8.1875 7.125 C-7.29417969 6.22007813 -6.40085937 5.31515625 -5.48046875 4.3828125 C-3 2 -3 2 0 0 Z " fill="#8FBCD5" transform="translate(31,22)"/>
<path d="M0 0 C0.98484375 0.01804687 1.9696875 0.03609375 2.984375 0.0546875 C4.10585937 0.08949219 4.10585937 0.08949219 5.25 0.125 C4.92 0.785 4.59 1.445 4.25 2.125 C2.32421875 2.72265625 2.32421875 2.72265625 -0.0625 3.1875 C-1.23232422 3.42146484 -1.23232422 3.42146484 -2.42578125 3.66015625 C-3.19277344 3.81355469 -3.95976562 3.96695313 -4.75 4.125 C-6.08531635 4.45029853 -7.41939662 4.78093093 -8.75 5.125 C-9.08 4.135 -9.41 3.145 -9.75 2.125 C-6.40060119 0.09941119 -3.88037449 -0.09238987 0 0 Z " fill="#233944" transform="translate(198.75,127.875)"/>
<path d="M0 0 C0.66 0.33 1.32 0.66 2 1 C1.649375 1.94875 1.29875 2.8975 0.9375 3.875 C-0.35026777 6.87060172 -0.35026777 6.87060172 1 9 C0.01 9.33 -0.98 9.66 -2 10 C-2.33 9.34 -2.66 8.68 -3 8 C-3.99 8 -4.98 8 -6 8 C-6.33 8.99 -6.66 9.98 -7 11 C-7.33 10.01 -7.66 9.02 -8 8 C-2.25 3 -2.25 3 0 3 C0 2.01 0 1.02 0 0 Z M-10 11 C-9.01 11.495 -9.01 11.495 -8 12 C-8.99 12.495 -8.99 12.495 -10 13 C-10 12.34 -10 11.68 -10 11 Z " fill="#70BBE7" transform="translate(32,22)"/>
<path d="M0 0 C0.66 0.33 1.32 0.66 2 1 C1.34 4.3 0.68 7.6 0 11 C-0.66 10.67 -1.32 10.34 -2 10 C-3.53668865 9.77532169 -5.07968054 9.59203195 -6.625 9.4375 C-7.44226563 9.35371094 -8.25953125 9.26992187 -9.1015625 9.18359375 C-9.72804687 9.12300781 -10.35453125 9.06242188 -11 9 C-11 8.67 -11 8.34 -11 8 C-7.7 8 -4.4 8 -1 8 C-1.66 5.69 -2.32 3.38 -3 1 C-2.01 0.67 -1.02 0.34 0 0 Z " fill="#505555" transform="translate(261,194)"/>
<path d="M0 0 C1.65 0 3.3 0 5 0 C5 0.66 5 1.32 5 2 C8.96 2 12.92 2 17 2 C15 4 15 4 12.5390625 4.265625 C11.57742188 4.26046875 10.61578125 4.2553125 9.625 4.25 C8.19027344 4.25773438 8.19027344 4.25773438 6.7265625 4.265625 C3.98941342 3.99896864 2.34012543 3.39742087 0 2 C0 1.34 0 0.68 0 0 Z " fill="#2A4049" transform="translate(256,154)"/>
<path d="M0 0 C5.61 0 11.22 0 17 0 C17 0.99 17 1.98 17 3 C11.30948637 2.4618629 5.65134116 1.8599867 0 1 C0 0.67 0 0.34 0 0 Z " fill="#86C1DD" transform="translate(335,543)"/>
<path d="M0 0 C1.32 0.66 2.64 1.32 4 2 C2.85569823 5.87302138 1.76679902 9.00263439 -1 12 C-1.66 12 -2.32 12 -3 12 C-1.125 6.25 -1.125 6.25 0 4 C0 2.68 0 1.36 0 0 Z " fill="#85BCD8" transform="translate(428,497)"/>
<path d="M0 0 C4.51478398 0.53115106 7.34666857 2.36620292 11 5 C10.67 6.98 10.34 8.96 10 11 C9.01 10.34 8.02 9.68 7 9 C7.66 8.67 8.32 8.34 9 8 C8.3503125 7.50628906 7.700625 7.01257813 7.03125 6.50390625 C6.1959375 5.86324219 5.360625 5.22257812 4.5 4.5625 C3.6646875 3.92441406 2.829375 3.28632813 1.96875 2.62890625 C1.3190625 2.09136719 0.669375 1.55382812 0 1 C0 0.67 0 0.34 0 0 Z " fill="#91C3D7" transform="translate(107,288)"/>
<path d="M0 0 C-0.14168137 1.43791516 -0.28851043 2.8753237 -0.4375 4.3125 C-0.51871094 5.11300781 -0.59992187 5.91351563 -0.68359375 6.73828125 C-1 9 -1 9 -2 12 C-2.66 12 -3.32 12 -4 12 C-4.15384615 4 -4.15384615 4 -3 1 C-1 0 -1 0 0 0 Z " fill="#7CB7D4" transform="translate(5,64)"/>
<path d="M0 0 C-0.99 0 -1.98 0 -3 0 C-3 0.66 -3 1.32 -3 2 C-4.78810766 2.69670416 -6.58062052 3.38211189 -8.375 4.0625 C-9.37273437 4.44535156 -10.37046875 4.82820313 -11.3984375 5.22265625 C-14 6 -14 6 -16 5 C-14.09118566 3.96455826 -12.17260796 2.94709915 -10.25 1.9375 C-8.64898437 1.08478516 -8.64898437 1.08478516 -7.015625 0.21484375 C-3.97406463 -1.01044806 -2.95106435 -1.25348607 0 0 Z " fill="#91C1D6" transform="translate(77,438)"/>
<path d="M0 0 C0.33 0.66 0.66 1.32 1 2 C1.66 2 2.32 2 3 2 C2.67 2.99 2.34 3.98 2 5 C0.824375 5.12375 0.824375 5.12375 -0.375 5.25 C-3.14749104 5.72806339 -3.14749104 5.72806339 -4.3125 8.0625 C-4.539375 8.701875 -4.76625 9.34125 -5 10 C-5.66 9.67 -6.32 9.34 -7 9 C-5.44499019 5.18315774 -2.96404505 2.80804268 0 0 Z " fill="#9BC8DD" transform="translate(84,321)"/>
<path d="M0 0 C0.33 0.66 0.66 1.32 1 2 C0.67 2.66 0.34 3.32 0 4 C-0.2275015 5.87056791 -0.40962811 7.74685958 -0.5625 9.625 C-0.64628906 10.62789062 -0.73007813 11.63078125 -0.81640625 12.6640625 C-0.87699219 13.43492187 -0.93757812 14.20578125 -1 15 C0.98 15.495 0.98 15.495 3 16 C2.34 16 1.68 16 1 16 C1.33 16.99 1.66 17.98 2 19 C0.68 18.34 -0.64 17.68 -2 17 C-2 11.72 -2 6.44 -2 1 C-1.34 0.67 -0.68 0.34 0 0 Z " fill="#94CFE2" transform="translate(240,227)"/>
<path d="M0 0 C2.97 0 5.94 0 9 0 C4.34714182 3.10190545 -0.41532676 4.33846504 -6 4 C-6.33 3.34 -6.66 2.68 -7 2 C-4.69 2 -2.38 2 0 2 C0 1.34 0 0.68 0 0 Z M-3 4 C-1 5 -1 5 -1 5 Z " fill="#6EB2D5" transform="translate(69,10)"/>
<path d="M0 0 C0 0.33 0 0.66 0 1 C-4.7749209 1.95498418 -9.15139376 2.24243031 -14 2 C-14.66 1.34 -15.32 0.68 -16 0 C-10.03241883 -2.28545662 -6.07806891 -1.79172099 0 0 Z " fill="#8EC5DD" transform="translate(212,525)"/>
<path d="M0 0 C0.33 0 0.66 0 1 0 C1.36279456 1.28926992 1.71496698 2.58153272 2.0625 3.875 C2.25972656 4.59429687 2.45695312 5.31359375 2.66015625 6.0546875 C3 8 3 8 2 10 C2.99 10.33 3.98 10.66 5 11 C5.33 11.99 5.66 12.98 6 14 C5.34 14.66 4.68 15.32 4 16 C4 15.34 4 14.68 4 14 C3.01 13.67 2.02 13.34 1 13 C0.67 8.71 0.34 4.42 0 0 Z " fill="#69B9DC" transform="translate(53,203)"/>
<path d="M0 0 C4.29 0.33 8.58 0.66 13 1 C13 1.66 13 2.32 13 3 C9.04 3 5.08 3 1 3 C0.67 2.01 0.34 1.02 0 0 Z " fill="#8AC0D6" transform="translate(264,1)"/>
<path d="M0 0 C0.99 0.495 0.99 0.495 2 1 C2.33 1.99 2.66 2.98 3 4 C4.32848691 5.00642948 5.66150329 6.00692179 7 7 C7 7.66 7 8.32 7 9 C1.125 8.125 1.125 8.125 0 7 C-0.04092937 4.66702567 -0.04241723 2.33294775 0 0 Z " fill="#6EBDE8" transform="translate(432,22)"/>
<path d="M0 0 C1.63001953 0.01353516 1.63001953 0.01353516 3.29296875 0.02734375 C4.12441406 0.03894531 4.95585937 0.05054688 5.8125 0.0625 C1.7160657 2.29858494 -1.53908318 2.76736242 -6.1875 3.0625 C-7.1775 2.4025 -8.1675 1.7425 -9.1875 1.0625 C-5.90230525 -0.03256492 -3.45086585 -0.03710608 0 0 Z " fill="#84C1DB" transform="translate(378.1875,542.9375)"/>
<path d="M0 0 C1.65 0 3.3 0 5 0 C4.67 0.66 4.34 1.32 4 2 C7.63 2.66 11.26 3.32 15 4 C15 4.33 15 4.66 15 5 C4.8719787 5.6286358 4.8719787 5.6286358 1.3125 3.0625 C0 1 0 1 0 0 Z " fill="#98C6DD" transform="translate(385,431)"/>
<path d="M0 0 C1.65 0.33 3.3 0.66 5 1 C4.67 1.99 4.34 2.98 4 4 C1.93359375 4.73046875 1.93359375 4.73046875 -0.5625 5.1875 C-1.38878906 5.34605469 -2.21507813 5.50460937 -3.06640625 5.66796875 C-4.02353516 5.83232422 -4.02353516 5.83232422 -5 6 C-5.33 5.01 -5.66 4.02 -6 3 C-4.02 2.34 -2.04 1.68 0 1 C0 0.67 0 0.34 0 0 Z " fill="#7EB4D3" transform="translate(86,432)"/>
<path d="M0 0 C2.1875 -0.3125 2.1875 -0.3125 5 0 C7.8125 2.5 7.8125 2.5 10 5 C9.34 5.66 8.68 6.32 8 7 C6.66382648 6.02471263 5.3311249 5.04466681 4 4.0625 C3.2575 3.51722656 2.515 2.97195313 1.75 2.41015625 C1.1725 1.94480469 0.595 1.47945313 0 1 C0 0.67 0 0.34 0 0 Z " fill="#8AC1DA" transform="translate(59,416)"/>
<path d="M0 0 C3.40597755 1.13532585 3.53452572 1.48116822 5.0625 4.5 C6.42445528 7.33019068 6.42445528 7.33019068 9 9 C8.67 10.32 8.34 11.64 8 13 C7.67 12.01 7.34 11.02 7 10 C6.34 10 5.68 10 5 10 C3.7109375 8.3203125 3.7109375 8.3203125 2.375 6.125 C1.92898437 5.40570313 1.48296875 4.68640625 1.0234375 3.9453125 C0 2 0 2 0 0 Z " fill="#93C1D5" transform="translate(50,403)"/>
<path d="M0 0 C4.59306496 1.4859916 7.43569245 3.85014682 11 7 C10.67 7.66 10.34 8.32 10 9 C9.01 8.67 8.02 8.34 7 8 C6.67 7.34 6.34 6.68 6 6 C5.01 5.67 4.02 5.34 3 5 C3 4.34 3 3.68 3 3 C2.01 2.67 1.02 2.34 0 2 C0 1.34 0 0.68 0 0 Z " fill="#8BBCD8" transform="translate(374,311)"/>
<path d="M0 0 C0.6875 1.625 0.6875 1.625 1 4 C-0.4375 7.25 -0.4375 7.25 -2 10 C-2.66 9.67 -3.32 9.34 -4 9 C-4 7.35 -4 5.7 -4 4 C-4.66 3.67 -5.32 3.34 -6 3 C-5.195625 2.87625 -4.39125 2.7525 -3.5625 2.625 C-2.716875 2.41875 -1.87125 2.2125 -1 2 C-0.67 1.34 -0.34 0.68 0 0 Z " fill="#6DBCE8" transform="translate(406,214)"/>
<path d="M0 0 C0.66 0.33 1.32 0.66 2 1 C1.1875 3.9375 1.1875 3.9375 0 7 C-0.99 7.33 -1.98 7.66 -3 8 C-3 8.66 -3 9.32 -3 10 C-3.66 10 -4.32 10 -5 10 C-3.84414715 6.08788267 -2.64465038 3.1254959 0 0 Z " fill="#293F4A" transform="translate(256,130)"/>
<path d="M0 0 C0.66 0.33 1.32 0.66 2 1 C0.25 4.875 0.25 4.875 -2 6 C-2.33 6.99 -2.66 7.98 -3 9 C-4.65 9.33 -6.3 9.66 -8 10 C-7.04367001 8.70684939 -6.08486149 7.41553147 -5.125 6.125 C-4.59132813 5.40570312 -4.05765625 4.68640625 -3.5078125 3.9453125 C-2 2 -2 2 0 0 Z " fill="#92C7DA" transform="translate(362,12)"/>
<path d="M0 0 C4.56454251 0.54339792 7.9728176 1.79463821 12 4 C11.67 4.99 11.34 5.98 11 7 C9.948125 6.360625 8.89625 5.72125 7.8125 5.0625 C4.89171588 3.38245548 2.3828257 2.41003948 -1 2 C-0.67 1.34 -0.34 0.68 0 0 Z " fill="#7AB5D4" transform="translate(404,3)"/>
<path d="M0 0 C4.28477792 2.30718811 7.72291137 4.32966073 11 8 C5.97734643 6.81819916 2.9050849 5.55007718 -1 2 C-0.67 1.34 -0.34 0.68 0 0 Z " fill="#8CC7DE" transform="translate(362,301)"/>
<path d="M0 0 C2.9375 0.375 2.9375 0.375 6 1 C6.33 1.66 6.66 2.32 7 3 C5.68 3 4.36 3 3 3 C2.67 4.65 2.34 6.3 2 8 C1.01 7.67 0.02 7.34 -1 7 C-1 6.01 -1 5.02 -1 4 C-0.34 4 0.32 4 1 4 C1.33 3.34 1.66 2.68 2 2 C1.34 2 0.68 2 0 2 C0 1.34 0 0.68 0 0 Z " fill="#6DBDEA" transform="translate(377,256)"/>
<path d="M0 0 C1.65 0.33 3.3 0.66 5 1 C4.01 1.495 4.01 1.495 3 2 C3 2.66 3 3.32 3 4 C3.66 4.33 4.32 4.66 5 5 C2.03 5 -0.94 5 -4 5 C-4.33 4.34 -4.66 3.68 -5 3 C-3.35 2.67 -1.7 2.34 0 2 C0 1.34 0 0.68 0 0 Z " fill="#6FB6DD" transform="translate(339,538)"/>
<path d="M0 0 C0.66 0 1.32 0 2 0 C0.25740319 9.59453303 0.25740319 9.59453303 -3 13 C-2.45144652 8.428721 -1.58255197 4.32564205 0 0 Z " fill="#97C4D6" transform="translate(408,212)"/>
<path d="M0 0 C0.66 0 1.32 0 2 0 C0.84414715 3.91211733 -0.35534962 6.8745041 -3 10 C-3.99 9.67 -4.98 9.34 -6 9 C-4.625 6.5 -4.625 6.5 -3 4 C-2.34 4 -1.68 4 -1 4 C-0.67 2.68 -0.34 1.36 0 0 Z " fill="#233E49" transform="translate(278,146)"/>
<path d="M0 0 C-0.33 0.99 -0.66 1.98 -1 3 C-6.94 3.495 -6.94 3.495 -13 4 C-10.56272708 2.37515139 -8.62713877 1.34310925 -5.9375 0.3125 C-5.24527344 0.04050781 -4.55304688 -0.23148438 -3.83984375 -0.51171875 C-2 -1 -2 -1 0 0 Z " fill="#93C6DD" transform="translate(162,11)"/>
<path d="M0 0 C0.99386719 0.00902344 1.98773438 0.01804687 3.01171875 0.02734375 C4.15060547 0.04474609 4.15060547 0.04474609 5.3125 0.0625 C5.3125 0.3925 5.3125 0.7225 5.3125 1.0625 C-0.06777025 2.25338986 -5.14041384 3.3544519 -10.6875 3.0625 C-7.3968001 -0.2281999 -4.43626547 -0.05219136 0 0 Z " fill="#91C8DE" transform="translate(137.6875,542.9375)"/>
<path d="M0 0 C0.75 1.6875 0.75 1.6875 1 4 C-0.80450953 6.87384851 -2.01312923 8.64363 -5.25 9.8125 C-5.8275 9.874375 -6.405 9.93625 -7 10 C-6.67 9.01 -6.34 8.02 -6 7 C-5.34 7 -4.68 7 -4 7 C-3.71125 6.401875 -3.4225 5.80375 -3.125 5.1875 C-2 3 -2 3 0 0 Z " fill="#72AAC9" transform="translate(212,149)"/>
<path d="M0 0 C-0.64453125 0.36738281 -1.2890625 0.73476562 -1.953125 1.11328125 C-4.75554635 3.69642918 -4.58893007 5.44262411 -4.75 9.1875 C-4.80671875 10.27417969 -4.8634375 11.36085937 -4.921875 12.48046875 C-4.94765625 13.31191406 -4.9734375 14.14335937 -5 15 C-5.33 15 -5.66 15 -6 15 C-6 10.05 -6 5.1 -6 0 C-3.50907189 -1.24546405 -2.58919267 -0.7767578 0 0 Z " fill="#A4C4D5" transform="translate(426,138)"/>
<path d="M0 0 C0.99 0 1.98 0 3 0 C4.28317892 3.84953676 4.06643637 6.94738135 4 11 C0.85041169 7.57653445 0.43820891 4.55737263 0 0 Z " fill="#7DC1E1" transform="translate(453,59)"/>
<path d="M0 0 C-0.33 1.65 -0.66 3.3 -1 5 C-2.65 5.33 -4.3 5.66 -6 6 C-6.33 4.68 -6.66 3.36 -7 2 C-4.35261084 0.5393715 -3.10551666 0 0 0 Z " fill="#6EBEEA" transform="translate(47,17)"/>
<path d="M0 0 C3.81287042 1.44626119 5.32707177 3.30194812 7 7 C6.6875 9.3125 6.6875 9.3125 6 11 C5.731875 10.030625 5.46375 9.06125 5.1875 8.0625 C4.795625 7.051875 4.40375 6.04125 4 5 C3.01 4.67 2.02 4.34 1 4 C0.3125 1.9375 0.3125 1.9375 0 0 Z " fill="#7DB8CF" transform="translate(428,454)"/>
<path d="M0 0 C2.31 0 4.62 0 7 0 C4.45543849 2.96865509 1.51005335 4.3619751 -2 6 C-2 5.01 -2 4.02 -2 3 C-1.34 3 -0.68 3 0 3 C0 2.01 0 1.02 0 0 Z " fill="#96C5D9" transform="translate(394,425)"/>
<path d="M0 0 C0.99 0.33 1.98 0.66 3 1 C1.68 2.65 0.36 4.3 -1 6 C-2.32 5.67 -3.64 5.34 -5 5 C-3.35 3.35 -1.7 1.7 0 0 Z " fill="#70B3C5" transform="translate(106,303)"/>
<path d="M0 0 C0.66 0.33 1.32 0.66 2 1 C1.44570313 1.39832031 0.89140625 1.79664063 0.3203125 2.20703125 C-0.40414063 2.73683594 -1.12859375 3.26664062 -1.875 3.8125 C-2.59429687 4.33457031 -3.31359375 4.85664063 -4.0546875 5.39453125 C-6.23028655 7.03272777 -6.23028655 7.03272777 -8 10 C-8.33 8.68 -8.66 7.36 -9 6 C-8.34 6 -7.68 6 -7 6 C-7 5.34 -7 4.68 -7 4 C-6.01 4 -5.02 4 -4 4 C-3.67 3.01 -3.34 2.02 -3 1 C-2.01 0.67 -1.02 0.34 0 0 Z " fill="#97C7E0" transform="translate(358,284)"/>
<path d="M0 0 C0.66 0.33 1.32 0.66 2 1 C0.68775452 4.93673644 -0.91910327 7.22719294 -4 10 C-4.66 9.67 -5.32 9.34 -6 9 C-5.34 7.35 -4.68 5.7 -4 4 C-2.68 4 -1.36 4 0 4 C0 2.68 0 1.36 0 0 Z " fill="#7FB8D3" transform="translate(384,255)"/>
<path d="M0 0 C5.02470674 2.37277818 6.56030983 5.21097855 9 10 C4.71095765 8.4114658 2.67654474 5.56872632 0 2 C0 1.34 0 0.68 0 0 Z " fill="#90C7DA" transform="translate(201,238)"/>
<path d="M0 0 C3.375 0.6875 3.375 0.6875 7 2 C8.4375 4.625 8.4375 4.625 9 7 C4.58110387 5.64978174 2.65654657 3.73884332 0 0 Z " fill="#2D454C" transform="translate(222,218)"/>
<path d="M0 0 C0.33 0 0.66 0 1 0 C1.268125 0.845625 1.53625 1.69125 1.8125 2.5625 C3.0478595 6.13854067 4.476988 9.53860908 6 13 C5.01 13 4.02 13 3 13 C0.33409063 8.44573816 -0.31563182 5.26053037 0 0 Z " fill="#36555C" transform="translate(209,197)"/>
<path d="M0 0 C1.95216435 1.95216435 2.84826645 3.53199953 4 6 C3.01 6.495 3.01 6.495 2 7 C0.02 5.68 -1.96 4.36 -4 3 C-2.68 2.01 -1.36 1.02 0 0 Z " fill="#6FBDEC" transform="translate(26,137)"/>
<path d="M0 0 C0.66 0.33 1.32 0.66 2 1 C2 4.63 2 8.26 2 12 C-0.25900493 9.74099507 -0.34458029 9.05816925 -0.6875 6 C-0.77386719 5.29875 -0.86023438 4.5975 -0.94921875 3.875 C-1 2 -1 2 0 0 Z " fill="#79BCDC" transform="translate(279,128)"/>
<path d="M0 0 C2.6855594 2.6855594 3.06049974 5.37621328 4 9 C3.34 9 2.68 9 2 9 C1.67 9.66 1.34 10.32 1 11 C1 9.35 1 7.7 1 6 C0.34 6 -0.32 6 -1 6 C-0.67 4.02 -0.34 2.04 0 0 Z " fill="#6CBBEB" transform="translate(449,47)"/>
<path d="M0 0 C1 3 1 3 0.00390625 5.04296875 C-0.47175781 5.75066406 -0.94742187 6.45835938 -1.4375 7.1875 C-1.91058594 7.90292969 -2.38367188 8.61835937 -2.87109375 9.35546875 C-3.24363281 9.89816406 -3.61617187 10.44085938 -4 11 C-4.99 10.67 -5.98 10.34 -7 10 C-3.535 5.05 -3.535 5.05 0 0 Z " fill="#91C0D5" transform="translate(17,35)"/>
<path d="M0 0 C4.96916636 0.51405169 9.29026351 1.23384882 14 3 C14 3.33 14 3.66 14 4 C6.25 4.125 6.25 4.125 4 3 C4 2.34 4 1.68 4 1 C2.68 0.67 1.36 0.34 0 0 Z " fill="#99C7D9" transform="translate(294,7)"/>
<path d="M0 0 C2.375 -0.1875 2.375 -0.1875 5 0 C7 3 7 3 7 7 C6.34 7 5.68 7 5 7 C3.7109375 5.46875 3.7109375 5.46875 2.375 3.5 C1.70597656 2.52546875 1.70597656 2.52546875 1.0234375 1.53125 C0.68570313 1.0259375 0.34796875 0.520625 0 0 Z " fill="#2B3F44" transform="translate(214,211)"/>
<path d="M0 0 C0.66 0 1.32 0 2 0 C4.28571429 8.42857143 4.28571429 8.42857143 4 13 C1.47519307 10.47519307 1.44261367 8.86176966 0.875 5.375 C0.70742188 4.37210938 0.53984375 3.36921875 0.3671875 2.3359375 C0.24601562 1.56507813 0.12484375 0.79421875 0 0 Z " fill="#85BACF" transform="translate(50,201)"/>
<path d="M0 0 C0.33 0.66 0.66 1.32 1 2 C1.66 2.33 2.32 2.66 3 3 C3 5.64 3 8.28 3 11 C2.01 11.495 2.01 11.495 1 12 C-0.26237731 9.47524538 -0.09856404 7.68799534 -0.0625 4.875 C-0.05347656 3.96492187 -0.04445312 3.05484375 -0.03515625 2.1171875 C-0.02355469 1.41851562 -0.01195312 0.71984375 0 0 Z " fill="#243D4A" transform="translate(184,138)"/>
<path d="M0 0 C1.53202706 0.25195908 3.05257128 0.57596777 4.5625 0.9375 C5.38878906 1.13214844 6.21507812 1.32679688 7.06640625 1.52734375 C8.02353516 1.76130859 8.02353516 1.76130859 9 2 C8.34 2.66 7.68 3.32 7 4 C1.54545455 3.54545455 1.54545455 3.54545455 -1 1 C-0.67 0.67 -0.34 0.34 0 0 Z " fill="#8DC3DB" transform="translate(400,436)"/>
<path d="M0 0 C0.66 0.33 1.32 0.66 2 1 C0.25 4.875 0.25 4.875 -2 6 C-3.13350534 8.01669827 -3.13350534 8.01669827 -4 10 C-5 8 -5 8 -4.25 5.5625 C-3.06901019 3.14147089 -2.0168441 1.74181991 0 0 Z " fill="#7BB9D3" transform="translate(76,330)"/>
<path d="M0 0 C-0.33 0.99 -0.66 1.98 -1 3 C-6.28 3 -11.56 3 -17 3 C-17 2.67 -17 2.34 -17 2 C-16.08476562 1.93941406 -15.16953125 1.87882813 -14.2265625 1.81640625 C-12.44378906 1.69072266 -12.44378906 1.69072266 -10.625 1.5625 C-9.44164062 1.48128906 -8.25828125 1.40007812 -7.0390625 1.31640625 C-4.40001916 1.04164724 -2.56464354 0 0 0 Z " fill="#8ABED0" transform="translate(230,249)"/>
<path d="M0 0 C0.66 0.99 1.32 1.98 2 3 C0.906875 2.79375 -0.18625 2.5875 -1.3125 2.375 C-5.0838401 1.59653475 -5.0838401 1.59653475 -8 4 C-8.66 3.34 -9.32 2.68 -10 2 C-6.32003497 -0.45331002 -4.34586828 -0.39507893 0 0 Z " fill="#E0EFF0" transform="translate(276,130)"/>
<path d="M0 0 C1.65 0 3.3 0 5 0 C4.34 2.64 3.68 5.28 3 8 C2.67 8 2.34 8 2 8 C2 6.35 2 4.7 2 3 C1.01 3.33 0.02 3.66 -1 4 C-0.67 2.68 -0.34 1.36 0 0 Z " fill="#3A3837" transform="translate(196,130)"/>
<path d="M0 0 C0.33 0.99 0.66 1.98 1 3 C0.01 3.33 -0.98 3.66 -2 4 C-2.33 5.98 -2.66 7.96 -3 10 C-3.66 9.67 -4.32 9.34 -5 9 C-4.67 7.02 -4.34 5.04 -4 3 C-2.68 2.67 -1.36 2.34 0 2 C0 1.34 0 0.68 0 0 Z " fill="#79B8D3" transform="translate(13,44)"/>
<path d="M0 0 C0.66 0.33 1.32 0.66 2 1 C1.67 1.66 1.34 2.32 1 3 C0.34 3 -0.32 3 -1 3 C-1 3.99 -1 4.98 -1 6 C-2.65 6 -4.3 6 -6 6 C-5 3 -5 3 -2.5625 1.25 C-1.716875 0.8375 -0.87125 0.425 0 0 Z " fill="#8BBED7" transform="translate(39,17)"/>
<path d="M0 0 C-0.66 0.66 -1.32 1.32 -2 2 C-4.8203125 1.9765625 -4.8203125 1.9765625 -8.125 1.625 C-9.22070312 1.51414063 -10.31640625 1.40328125 -11.4453125 1.2890625 C-12.28835937 1.19367188 -13.13140625 1.09828125 -14 1 C-14 0.67 -14 0.34 -14 0 C-12.41773035 -0.19627391 -10.83410729 -0.38165538 -9.25 -0.5625 C-8.36828125 -0.66691406 -7.4865625 -0.77132812 -6.578125 -0.87890625 C-4.11567549 -0.99456676 -2.33461936 -0.73638695 0 0 Z " fill="#396373" transform="translate(228,249)"/>
<path d="M0 0 C0.598125 0.763125 1.19625 1.52625 1.8125 2.3125 C3.84004112 4.91335259 3.84004112 4.91335259 5.75 6.6875 C7 8 7 8 7 10 C3.17398693 8.54875366 1.77670876 6.64225296 0 3 C0 2.01 0 1.02 0 0 Z " fill="#285968" transform="translate(200,238)"/>
<path d="M0 0 C0.99 0.33 1.98 0.66 3 1 C0.42215154 3.64752004 -1.91648098 5.94432065 -5 8 C-4.67 6.68 -4.34 5.36 -4 4 C-3.34 4 -2.68 4 -2 4 C-1.34 2.68 -0.68 1.36 0 0 Z " fill="#96D0E4" transform="translate(216,187)"/>
<path d="M0 0 C1.98 0.495 1.98 0.495 4 1 C3.67 2.32 3.34 3.64 3 5 C1.68 4.67 0.36 4.34 -1 4 C-0.67 2.68 -0.34 1.36 0 0 Z " fill="#D6DBDD" transform="translate(257,149)"/>
<path d="M0 0 C1.98 0.495 1.98 0.495 4 1 C3.67 2.32 3.34 3.64 3 5 C1.68 4.67 0.36 4.34 -1 4 C-0.67 2.68 -0.34 1.36 0 0 Z " fill="#D8DAD8" transform="translate(190,149)"/>
<path d="M0 0 C0.99773437 0.02320312 1.99546875 0.04640625 3.0234375 0.0703125 C4.52777344 0.09738281 4.52777344 0.09738281 6.0625 0.125 C6.83335937 0.14820312 7.60421875 0.17140625 8.3984375 0.1953125 C7.0784375 1.5153125 5.7584375 2.8353125 4.3984375 4.1953125 C4.0684375 3.5353125 3.7384375 2.8753125 3.3984375 2.1953125 C0.7584375 2.1953125 -1.8815625 2.1953125 -4.6015625 2.1953125 C-2.6015625 0.1953125 -2.6015625 0.1953125 0 0 Z " fill="#2A424C" transform="translate(262.6015625,127.8046875)"/>
<path d="M0 0 C0.9590625 0.2784375 0.9590625 0.2784375 1.9375 0.5625 C2.9584375 0.7790625 2.9584375 0.7790625 4 1 C4.33 0.67 4.66 0.34 5 0 C6.66617115 -0.04063832 8.33388095 -0.042721 10 0 C7.93243723 2.7972908 6.85559629 3.02692273 3.3125 3.6875 C2.219375 3.790625 1.12625 3.89375 0 4 C0 2.68 0 1.36 0 0 Z " fill="#96C3D8" transform="translate(117,27)"/>
<path d="M0 0 C1.43655854 -0.08131463 2.8744483 -0.13933559 4.3125 -0.1875 C5.51326172 -0.23970703 5.51326172 -0.23970703 6.73828125 -0.29296875 C9.47851584 0.06198392 10.29171079 0.89366282 12 3 C3.96428571 2.19642857 3.96428571 2.19642857 0 0 Z " fill="#8FC8DC" transform="translate(95,543)"/>
<path d="M0 0 C1.32 0 2.64 0 4 0 C2.25 5.75 2.25 5.75 0 8 C0 5.36 0 2.72 0 0 Z " fill="#96C5DE" transform="translate(421,397)"/>
<path d="M0 0 C0.66 0 1.32 0 2 0 C2 0.66 2 1.32 2 2 C2.66 2 3.32 2 4 2 C4 2.66 4 3.32 4 4 C4.66 4 5.32 4 6 4 C6.33 5.32 6.66 6.64 7 8 C4.5 6.625 4.5 6.625 2 5 C2 4.34 2 3.68 2 3 C1.01 2.67 0.02 2.34 -1 2 C-0.67 1.34 -0.34 0.68 0 0 Z " fill="#90C1DC" transform="translate(100,280)"/>
<path d="M0 0 C5 7.5 5 7.5 5 11 C4.34 11 3.68 11 3 11 C0 4.5 0 4.5 0 0 Z " fill="#88C6D6" transform="translate(199,238)"/>
<path d="M0 0 C-0.33 3.63 -0.66 7.26 -1 11 C-1.33 11 -1.66 11 -2 11 C-2.33 7.7 -2.66 4.4 -3 1 C-1 0 -1 0 0 0 Z " fill="#92BEDB" transform="translate(51,190)"/>
<path d="M0 0 C1.65 0 3.3 0 5 0 C6.231394 3.69418201 5.64432764 6.2056261 5 10 C4.67 10 4.34 10 4 10 C3.896875 8.906875 3.79375 7.81375 3.6875 6.6875 C3.02692273 3.14440371 2.7972908 2.06756277 0 0 Z " fill="#89BFDA" transform="translate(42,152)"/>
<path d="M0 0 C0.66 0.33 1.32 0.66 2 1 C2.125 7.75 2.125 7.75 1 10 C0.34 10 -0.32 10 -1 10 C-0.67 6.7 -0.34 3.4 0 0 Z " fill="#72B9DA" transform="translate(214,139)"/>
<path d="M0 0 C4.29 0 8.58 0 13 0 C13 0.66 13 1.32 13 2 C11.35 2.33 9.7 2.66 8 3 C8 2.67 8 2.34 8 2 C5.36 1.67 2.72 1.34 0 1 C0 0.67 0 0.34 0 0 Z " fill="#679BB6" transform="translate(262,127)"/>
<path d="M0 0 C0.33 0.99 0.66 1.98 1 3 C-1.3431213 2.74438677 -3.67843403 2.40729228 -6 2 C-6.33 1.34 -6.66 0.68 -7 0 C-4.3333581 -1.33332095 -2.83319697 -0.67102033 0 0 Z " fill="#71BCD4" transform="translate(412,440)"/>
<path d="M0 0 C0.66 0.99 1.32 1.98 2 3 C0.02 5.97 0.02 5.97 -2 9 C-2.66 7.68 -3.32 6.36 -4 5 C-3.34 4.67 -2.68 4.34 -2 4 C-0.86649466 1.98330173 -0.86649466 1.98330173 0 0 Z " fill="#95C4D9" transform="translate(391,246)"/>
<path d="M0 0 C0.721875 0.391875 1.44375 0.78375 2.1875 1.1875 C1.61 1.31125 1.0325 1.435 0.4375 1.5625 C-1.83585767 2.19398824 -3.7378529 3.07608191 -5.8125 4.1875 C-6.4725 3.5275 -7.1325 2.8675 -7.8125 2.1875 C-3.50480769 -1.0125 -3.50480769 -1.0125 0 0 Z " fill="#87C6D6" transform="translate(237.8125,245.8125)"/>
<path d="M0 0 C0.66 0.33 1.32 0.66 2 1 C1.25 2.9375 1.25 2.9375 0 5 C-2 5.875 -2 5.875 -4 6 C-4.66 5.34 -5.32 4.68 -6 4 C-5.38125 3.896875 -4.7625 3.79375 -4.125 3.6875 C-1.63473516 3.12474627 -1.63473516 3.12474627 0 0 Z " fill="#8FCFDF" transform="translate(232,241)"/>
<path d="M0 0 C0.99 0.33 1.98 0.66 3 1 C3.66 4.3 4.32 7.6 5 11 C3 10 3 10 2.1484375 7.71484375 C1.89320312 6.79832031 1.63796875 5.88179687 1.375 4.9375 C1.11460938 4.01839844 0.85421875 3.09929687 0.5859375 2.15234375 C0.39257812 1.44207031 0.19921875 0.73179687 0 0 Z " fill="#93C3D8" transform="translate(54,216)"/>
<path d="M0 0 C4 4.625 4 4.625 4 8 C2.02 7.01 0.04 6.02 -2 5 C-1.34 4.67 -0.68 4.34 0 4 C0 2.68 0 1.36 0 0 Z " fill="#8DC7DB" transform="translate(211,207)"/>
<path d="M0 0 C0.66 0 1.32 0 2 0 C1.67 2.97 1.34 5.94 1 9 C-0.73543126 6.39685311 -1.61121812 5.01305957 -2 2 C-1.34 1.34 -0.68 0.68 0 0 Z " fill="#6DBDEE" transform="translate(411,192)"/>
<path d="M0 0 C0.66 0.309375 1.32 0.61875 2 0.9375 C5.70476015 2.24960255 9.09263991 2.60264135 13 3 C13 3.33 13 3.66 13 4 C11.58376784 4.05447047 10.16691809 4.09300508 8.75 4.125 C7.96109375 4.14820313 7.1721875 4.17140625 6.359375 4.1953125 C3.79268059 3.9828378 2.2083933 3.28654105 0 2 C0 1.34 0 0.68 0 0 Z " fill="#78B5D7" transform="translate(256,156)"/>
<path d="M0 0 C0 1.65 0 3.3 0 5 C-1.32 5.33 -2.64 5.66 -4 6 C-4.33 5.01 -4.66 4.02 -5 3 C-2.25 0 -2.25 0 0 0 Z " fill="#323F43" transform="translate(280,138)"/>
<path d="M0 0 C1.75 0.125 1.75 0.125 4 1 C6.25 4.0625 6.25 4.0625 8 7 C7.01 7 6.02 7 5 7 C2 3.66666667 2 3.66666667 2 1 C1.34 0.67 0.68 0.34 0 0 Z " fill="#99C0D5" transform="translate(55,513)"/>
<path d="M0 0 C0.33 0.66 0.66 1.32 1 2 C-0.65 3.65 -2.3 5.3 -4 7 C-4.66 6.67 -5.32 6.34 -6 6 C-4.95125002 3.37812506 -4.35068687 2.20628639 -1.875 0.75 C-1.25625 0.5025 -0.6375 0.255 0 0 Z " fill="#7FBED8" transform="translate(59,355)"/>
<path d="M0 0 C1.98 1.65 3.96 3.3 6 5 C4.02 5.99 4.02 5.99 2 7 C0.5393715 4.35261084 0 3.10551666 0 0 Z " fill="#8FC5DC" transform="translate(389,323)"/>
<path d="M0 0 C0.33 0.99 0.66 1.98 1 3 C-0.96466413 4.06775224 -2.96855359 5.06553465 -5 6 C-5.66 5.67 -6.32 5.34 -7 5 C-5 2 -5 2 -2.9375 1.375 C-2.298125 1.25125 -1.65875 1.1275 -1 1 C-0.67 0.67 -0.34 0.34 0 0 Z " fill="#6CABC2" transform="translate(118,296)"/>
<path d="M0 0 C0.33 0.99 0.66 1.98 1 3 C1.804375 3.12375 2.60875 3.2475 3.4375 3.375 C4.7059375 3.684375 4.7059375 3.684375 6 4 C6.33 4.66 6.66 5.32 7 6 C4.125 5.75 4.125 5.75 1 5 C-0.375 2.9375 -0.375 2.9375 -1 1 C-0.67 0.67 -0.34 0.34 0 0 Z " fill="#7CB3C4" transform="translate(349,291)"/>
<path d="M0 0 C0.66 0 1.32 0 2 0 C1.3125 2.4375 1.3125 2.4375 0 5 C-2.625 5.8125 -2.625 5.8125 -5 6 C-3.38405168 3.95880212 -1.7143618 1.95927063 0 0 Z " fill="#8DCBE1" transform="translate(271,243)"/>
<path d="M0 0 C0.53625 0.2475 1.0725 0.495 1.625 0.75 C-3.55078125 3.97265625 -3.55078125 3.97265625 -5.375 4.75 C-6.365 4.42 -7.355 4.09 -8.375 3.75 C-2.95961538 -0.31153846 -2.95961538 -0.31153846 0 0 Z " fill="#305563" transform="translate(235.375,244.25)"/>
<path d="M0 0 C1 3 1 3 0.0625 5.1875 C-0.4634375 6.0846875 -0.4634375 6.0846875 -1 7 C-1.66 7 -2.32 7 -3 7 C-2.625 4.0625 -2.625 4.0625 -2 1 C-1.34 0.67 -0.68 0.34 0 0 Z " fill="#71BFE6" transform="translate(63,97)"/>
<path d="M0 0 C-1.04874998 2.62187494 -1.64931313 3.79371361 -4.125 5.25 C-4.74375 5.4975 -5.3625 5.745 -6 6 C-6.33 5.01 -6.66 4.02 -7 3 C-2.25 0 -2.25 0 0 0 Z " fill="#92C5DD" transform="translate(374,5)"/>
<path d="M0 0 C0.33 0.66 0.66 1.32 1 2 C2.32 1.34 3.64 0.68 5 0 C5 1.32 5 2.64 5 4 C3.68 4.33 2.36 4.66 1 5 C0.67 3.35 0.34 1.7 0 0 Z " fill="#80C3E7" transform="translate(44,461)"/>
<path d="M0 0 C0.928125 0.2784375 0.928125 0.2784375 1.875 0.5625 C4.04160178 1.23686176 4.04160178 1.23686176 6 0 C6.66 1.32 7.32 2.64 8 4 C7.01 4.495 7.01 4.495 6 5 C3.98079663 3.69593116 1.98075027 2.36176581 0 1 C0 0.67 0 0.34 0 0 Z " fill="#6BBEE2" transform="translate(112,289)"/>
<path d="M0 0 C1.65 0.33 3.3 0.66 5 1 C4.01 1.33 3.02 1.66 2 2 C2 2.99 2 3.98 2 5 C1.01 4.67 0.02 4.34 -1 4 C-0.67 2.68 -0.34 1.36 0 0 Z " fill="#93D5EB" transform="translate(268,236)"/>
<path d="M0 0 C3.63 0 7.26 0 11 0 C11 0.99 11 1.98 11 3 C7.37 2.34 3.74 1.68 0 1 C0 0.67 0 0.34 0 0 Z " fill="#5F94AE" transform="translate(195,127)"/>
</svg>
