<?xml version="1.0" encoding="UTF-8"?>
<svg version="1.1" xmlns="http://www.w3.org/2000/svg" width="169" height="169">
<path d="M0 0 C24.20531749 0.02831031 43.48429352 9.99058984 61.0625 26.625 C66.93678194 32.71956752 71.00357072 39.80974245 74.9375 47.25 C76.5191839 50.20843201 77.41871378 51.39747102 80.125 53.5625 C82.3125 55.3125 82.3125 55.3125 82.625 58.0625 C82.4703125 59.17625 82.4703125 59.17625 82.3125 60.3125 C81.3225 59.9825 80.3325 59.6525 79.3125 59.3125 C79.52471191 60.13754028 79.52471191 60.13754028 79.74121094 60.97924805 C81.52516825 68.70842338 81.61038651 76.2197355 81.5625 84.125 C81.57023438 85.42115234 81.57796875 86.71730469 81.5859375 88.05273438 C81.58335937 89.29990234 81.58078125 90.54707031 81.578125 91.83203125 C81.57586914 92.95714111 81.57361328 94.08225098 81.57128906 95.24145508 C81.30889333 98.35530024 80.55972574 100.47309615 79.3125 103.3125 C78.98872407 104.73656804 78.69604691 106.16812602 78.4375 107.60546875 C77.41971226 112.3738832 75.63037277 116.35573435 73.3125 120.625 C72.92094727 121.35485107 72.52939453 122.08470215 72.12597656 122.83666992 C67.24979498 131.62246983 61.27392762 139.11291909 53.3125 145.3125 C52.1678125 146.5190625 52.1678125 146.5190625 51 147.75 C37.7158089 160.41632175 18.63512059 164.54122143 0.875 164.375 C-0.04732422 164.37048828 -0.96964844 164.36597656 -1.91992188 164.36132812 C-4.17585048 164.34963938 -6.43163967 164.33325455 -8.6875 164.3125 C-4.40452469 165.36869003 -0.25764354 165.42952092 4.125 165.375 C4.81787109 165.37048828 5.51074219 165.36597656 6.22460938 165.36132812 C7.92061068 165.34963156 9.61656703 165.33169924 11.3125 165.3125 C11.3125 165.9725 11.3125 166.6325 11.3125 167.3125 C-12.23827485 168.39022484 -34.02191191 164.12687319 -52.42578125 148.41015625 C-56.29496183 144.82164162 -60.03643466 141.12230731 -63.6875 137.3125 C-60.56568733 142.0425192 -57.60492383 145.48020561 -53.04296875 148.85546875 C-51.6875 150.3125 -51.6875 150.3125 -51.6875 154.3125 C-67.07412698 147.23192829 -76.8238907 129.05745385 -82.82421875 114.06640625 C-84.0259936 110.2326901 -83.95872202 107.31302479 -83.6875 103.3125 C-83.96493334 98.25311166 -83.96493334 98.25311166 -86.6875 94.3125 C-89.02361334 71.00569487 -80.06162083 46.51789393 -65.55078125 28.5 C-58.65654099 20.40613303 -58.65654099 20.40613303 -55.6875 18.3125 C-54.35248027 18.6390137 -53.01915002 18.97250425 -51.6875 19.3125 C-49.57713495 18.06609882 -49.57713495 18.06609882 -47.5625 16.1875 C-37.99137255 8.39166232 -27.05373262 5.33623172 -15.38647461 1.89746094 C-10.25613188 0.13107192 -5.7881675 0.02970635 0 0 Z M-35.5390625 37.49609375 C-36.12429687 38.23988281 -36.70953125 38.98367187 -37.3125 39.75 C-38.22902344 40.86181641 -38.22902344 40.86181641 -39.1640625 41.99609375 C-42.22138231 46.64478772 -42.88453322 50.56006994 -43.3125 56.0625 C-44.16646535 62.63461734 -45.98377399 65.49447329 -50.6484375 70.0234375 C-57.60360797 77.83134917 -59.06717138 88.71477812 -58.96484375 98.765625 C-57.97116345 111.47353642 -52.09425434 121.76403648 -43.01953125 130.45703125 C-33.42658111 138.08961302 -21.8087148 141.43220166 -9.6875 140.3125 C-0.55174053 138.85518716 9.56687972 135.86798413 15.625 128.5 C19.64398291 125.22873484 23.67102976 125.86264982 28.7265625 125.671875 C35.28730746 125.01437115 40.10834523 122.12480503 45.125 118 C52.77312375 108.60373367 53.62182846 101.09974953 52.875 89.25 C52.3611378 80.20494513 52.24400391 71.22242698 52.52563477 62.16577148 C52.6709844 53.32803699 50.68516593 46.06957657 45.125 39.10546875 C39.63495988 33.67458855 32.96679355 31.22239463 25.3671875 31.13549805 C24.38516357 31.12266281 23.40313965 31.10982758 22.39135742 31.09660339 C21.33408447 31.08921646 20.27681152 31.08182953 19.1875 31.07421875 C18.08962158 31.066147 16.99174316 31.05807526 15.8605957 31.04975891 C13.53387016 31.03592949 11.20712443 31.02520223 8.88037109 31.01733398 C6.51605224 31.00584728 4.15175864 30.98544853 1.78759766 30.95581055 C-1.64177955 30.91282928 -5.07038577 30.89691924 -8.5 30.88671875 C-9.5410791 30.86921066 -10.5821582 30.85170258 -11.65478516 30.83366394 C-20.12034384 30.85825245 -28.67423564 32.23932907 -35.5390625 37.49609375 Z M-83.6875 76.3125 C-83.71661321 79.3958134 -83.73433682 82.47909125 -83.75 85.5625 C-83.75837891 86.43519531 -83.76675781 87.30789062 -83.77539062 88.20703125 C-83.77861328 89.05136719 -83.78183594 89.89570312 -83.78515625 90.765625 C-83.79039307 91.54067383 -83.79562988 92.31572266 -83.80102539 93.11425781 C-83.68786998 95.30533598 -83.29302448 97.20887861 -82.6875 99.3125 C-82.0275 98.9825 -81.3675 98.6525 -80.6875 98.3125 C-80.74808594 97.64605469 -80.80867188 96.97960937 -80.87109375 96.29296875 C-81.4765625 89.6328125 -82.08203125 82.97265625 -82.6875 76.3125 C-83.0175 76.3125 -83.3475 76.3125 -83.6875 76.3125 Z M-82.6875 100.3125 C-81.6975 103.6125 -80.7075 106.9125 -79.6875 110.3125 C-79.0275 109.6525 -78.3675 108.9925 -77.6875 108.3125 C-78.98905006 104.23285719 -78.98905006 104.23285719 -80.6875 100.3125 C-81.3475 100.3125 -82.0075 100.3125 -82.6875 100.3125 Z M-78.6875 110.3125 C-78.3575 111.3025 -78.0275 112.2925 -77.6875 113.3125 C-77.6875 112.3225 -77.6875 111.3325 -77.6875 110.3125 C-78.0175 110.3125 -78.3475 110.3125 -78.6875 110.3125 Z M-77.6875 113.3125 C-77.3575 114.9625 -77.0275 116.6125 -76.6875 118.3125 C-76.0275 118.3125 -75.3675 118.3125 -74.6875 118.3125 C-75.3475 116.6625 -76.0075 115.0125 -76.6875 113.3125 C-77.0175 113.3125 -77.3475 113.3125 -77.6875 113.3125 Z M-74.6875 121.3125 C-73.6875 123.3125 -73.6875 123.3125 -73.6875 123.3125 Z M-72.6875 124.3125 C-72.0275 125.9625 -71.3675 127.6125 -70.6875 129.3125 C-70.0275 128.9825 -69.3675 128.6525 -68.6875 128.3125 C-69.3475 126.9925 -70.0075 125.6725 -70.6875 124.3125 C-71.3475 124.3125 -72.0075 124.3125 -72.6875 124.3125 Z M-68.6875 129.3125 C-69.0175 129.9725 -69.3475 130.6325 -69.6875 131.3125 C-69.0275 131.9725 -68.3675 132.6325 -67.6875 133.3125 C-68.0175 131.9925 -68.3475 130.6725 -68.6875 129.3125 Z M-28.6875 159.3125 C-28.0275 159.9725 -27.3675 160.6325 -26.6875 161.3125 C-25.6975 160.9825 -24.7075 160.6525 -23.6875 160.3125 C-25.3375 159.9825 -26.9875 159.6525 -28.6875 159.3125 Z " fill="#5676FB" transform="translate(86.6875,-0.3125)"/>
<path d="M0 0 C1.20833496 0.01047363 2.41666992 0.02094727 3.66162109 0.03173828 C26.49753269 0.49689714 47.06684006 12.68340906 62.8125 29.01953125 C67.57089757 34.59803143 71.08580168 40.91771186 74.5 47.375 C76.0816839 50.33343201 76.98121378 51.52247102 79.6875 53.6875 C81.875 55.4375 81.875 55.4375 82.1875 58.1875 C82.084375 58.93 81.98125 59.6725 81.875 60.4375 C80.39 59.9425 80.39 59.9425 78.875 59.4375 C79.01719971 59.98680176 79.15939941 60.53610352 79.3059082 61.10205078 C81.10241361 68.85621821 81.138292 76.38226292 81.0625 84.3125 C81.0615332 86.26929687 81.0615332 86.26929687 81.06054688 88.265625 C81.01205464 98.7183956 81.01205464 98.7183956 79.875 102.4375 C79.215 102.4375 78.555 102.4375 77.875 102.4375 C77.88285522 100.74222168 77.88285522 100.74222168 77.89086914 99.01269531 C77.90898226 94.81576328 77.92045512 90.61883469 77.92993164 86.421875 C77.93495741 84.60611388 77.94177903 82.7903568 77.95043945 80.97460938 C77.96258189 78.3632711 77.96824591 75.75198638 77.97265625 73.140625 C77.97781754 72.33006653 77.98297882 71.51950806 77.98829651 70.68438721 C78.0260686 66.52647503 78.0260686 66.52647503 77.36790466 62.44110107 C76.875 60.4375 76.875 60.4375 76.875 56.4375 C76.215 56.4375 75.555 56.4375 74.875 56.4375 C74.524375 55.53 74.17375 54.6225 73.8125 53.6875 C70.17723053 45.27347255 65.51338145 37.57946222 59.16015625 30.9609375 C57.875 29.4375 57.875 29.4375 57.875 27.4375 C57.30652344 27.18355469 56.73804688 26.92960937 56.15234375 26.66796875 C53.59844703 25.28807601 51.63964964 23.64020939 49.4375 21.75 C31.38401814 7.30721451 10.41727892 4.4375 -12.125 4.4375 C-12.74375 4.788125 -13.3625 5.13875 -14 5.5 C-16.125 6.4375 -16.125 6.4375 -18.3125 6.1875 C-20.125 5.4375 -20.125 5.4375 -21.125 3.4375 C-14.05272728 0.16201251 -7.73037159 -0.06945047 0 0 Z " fill="#C4D3F3" transform="translate(87.125,-0.4375)"/>
<path d="M0 0 C0.66 0.66 1.32 1.32 2 2 C1.38511719 3.25490234 1.38511719 3.25490234 0.7578125 4.53515625 C-3.3351178 13.3770607 -5.08325399 21.23763023 -6 31 C-6.35557234 33.98169057 -6.7413598 36.95931042 -7.125 39.9375 C-7.29512424 41.30067502 -7.46447508 42.66394693 -7.6328125 44.02734375 C-7.75398437 45.00832031 -7.87515625 45.98929688 -8 47 C-8.33 47 -8.66 47 -9 47 C-9 50.96 -9 54.92 -9 59 C-8.505 58.505 -8.505 58.505 -8 58 C-8.08937803 56.47480724 -8.24537146 54.95318071 -8.4375 53.4375 C-8.53933594 52.61121094 -8.64117188 51.78492188 -8.74609375 50.93359375 C-8.82988281 50.29550781 -8.91367188 49.65742187 -9 49 C-8.34 49.33 -7.68 49.66 -7 50 C-6.5859375 52.50390625 -6.5859375 52.50390625 -6.375 55.5625 C-6.30023437 56.57441406 -6.22546875 57.58632812 -6.1484375 58.62890625 C-6.09945313 59.41136719 -6.05046875 60.19382813 -6 61 C-6.66 61 -7.32 61 -8 61 C-7.6390625 62.05960938 -7.278125 63.11921875 -6.90625 64.2109375 C-6.43734207 65.59890499 -5.96860069 66.98692875 -5.5 68.375 C-5.14228516 69.42300781 -5.14228516 69.42300781 -4.77734375 70.4921875 C-3 75.7734375 -3 75.7734375 -3 78 C-2.071875 78.0928125 -2.071875 78.0928125 -1.125 78.1875 C1 79 1 79 2.25 81.5625 C2.4975 82.366875 2.745 83.17125 3 84 C2.34 84 1.68 84 1 84 C2.11854586 87.72614153 2.11854586 87.72614153 5 90 C6.01866229 91.65532623 7.01810813 93.32260138 8 95 C8.66 95.66 9.32 96.32 10 97 C10.721875 98.0725 11.44375 99.145 12.1875 100.25 C14.5732276 103.68573347 17.2950097 106.06475132 20.64453125 108.54296875 C22 110 22 110 22 114 C6.61337302 106.91942829 -3.1363907 88.74495385 -9.13671875 73.75390625 C-10.3384936 69.9201901 -10.27122202 67.00052479 -10 63 C-10.27743334 57.94061166 -10.27743334 57.94061166 -13 54 C-14.80566381 35.98535412 -9.83934325 15.26996 0 0 Z M-1 81 C0 83 0 83 0 83 Z " fill="#D3DAEC" transform="translate(13,40)"/>
<path d="M0 0 C5.42410744 4.78597716 8.72773225 10.71515224 12.09375 17.0625 C13.71790259 20.1012371 14.99514787 21.99625062 17.75 24.125 C20 26 20 26 20.3125 28.75 C20.209375 29.4925 20.10625 30.235 20 31 C19.01 30.67 18.02 30.34 17 30 C17.21329956 30.82395264 17.21329956 30.82395264 17.4309082 31.66455078 C19.22741361 39.41871821 19.263292 46.94476292 19.1875 54.875 C19.18685547 56.17953125 19.18621094 57.4840625 19.18554688 58.828125 C19.13705464 69.2808956 19.13705464 69.2808956 18 73 C17.34 73 16.68 73 16 73 C16.00523682 71.86981445 16.01047363 70.73962891 16.01586914 69.57519531 C16.03398226 65.37826328 16.04545512 61.18133469 16.05493164 56.984375 C16.05995741 55.16861388 16.06677903 53.3528568 16.07543945 51.53710938 C16.08758189 48.9257711 16.09324591 46.31448638 16.09765625 43.703125 C16.10539818 42.48728729 16.10539818 42.48728729 16.11329651 41.24688721 C16.1510686 37.08897503 16.1510686 37.08897503 15.49290466 33.00360107 C15 31 15 31 15 27 C14.34 27 13.68 27 13 27 C12.649375 26.0925 12.29875 25.185 11.9375 24.25 C8.37565253 15.9446495 3.40969904 8.21293206 -2 1 C-1.34 0.67 -0.68 0.34 0 0 Z " fill="#B7C5F4" transform="translate(149,29)"/>
<path d="M0 0 C0.99 0.33 1.98 0.66 3 1 C3 1.66 3 2.32 3 3 C3.66 3 4.32 3 5 3 C5 3.66 5 4.32 5 5 C5.81597656 5.39251953 5.81597656 5.39251953 6.6484375 5.79296875 C9.37690281 7.19346008 11.98932676 8.74430919 14.625 10.3125 C25.20384168 16.78271512 25.20384168 16.78271512 37 20 C38.134375 20.33 39.26875 20.66 40.4375 21 C46.62687859 22.73736943 52.52589526 23.11923986 58.9375 23.0625 C59.62134766 23.05798828 60.30519531 23.05347656 61.00976562 23.04882812 C62.67321604 23.0371956 64.3366205 23.01926694 66 23 C66 23.66 66 24.32 66 25 C41.95948965 26.100136 20.66995756 21.51235437 1.8203125 5.76171875 C0 4 0 4 -2 1 C-1.34 0.67 -0.68 0.34 0 0 Z " fill="#C3D0EC" transform="translate(32,142)"/>
<path d="M0 0 C1.612164 0.01665459 1.612164 0.01665459 3.25689697 0.03364563 C5.08834259 0.03421211 5.08834259 0.03421211 6.95678711 0.03479004 C8.2704425 0.06059647 9.5840979 0.08640289 10.93756104 0.11299133 C12.29946596 0.12232147 13.6613877 0.12943664 15.02331543 0.13442993 C18.60106055 0.15348485 22.1777843 0.20256992 25.75512695 0.25794983 C29.40824568 0.30917647 33.06153011 0.33195109 36.71490479 0.35713196 C43.87812992 0.41069246 51.04051465 0.49598412 58.20318604 0.60127258 C58.20318604 1.26127258 58.20318604 1.92127258 58.20318604 2.60127258 C58.94568604 2.68377258 59.68818604 2.76627258 60.45318604 2.85127258 C63.71539958 3.74096719 65.01273481 5.08631007 67.20318604 7.60127258 C62.20318604 5.60127258 62.20318604 5.60127258 59.87623596 4.5471344 C56.94990923 3.51165029 54.71873905 3.34761864 51.62188721 3.34248352 C49.97944283 3.33302704 49.97944283 3.33302704 48.30381775 3.32337952 C47.12978897 3.32742798 45.95576019 3.33147644 44.74615479 3.33564758 C43.5292244 3.33373413 42.31229401 3.33182068 41.05848694 3.32984924 C38.48554274 3.32848919 35.91259163 3.33217307 33.33966064 3.3405304 C29.41575549 3.35120439 25.49231107 3.34064296 21.56842041 3.32783508 C19.0651642 3.32915725 16.56190827 3.33172083 14.05865479 3.33564758 C12.8906987 3.33159912 11.72274261 3.32755066 10.51939392 3.32337952 C4.39247382 3.35835361 -0.93179689 3.79692761 -6.79681396 5.60127258 C-3.62382959 0.7790684 -3.62382959 0.7790684 0 0 Z " fill="#7584ED" transform="translate(62.79681396484375,27.398727416992188)"/>
<path d="M0 0 C1.02158203 0.00322266 2.04316406 0.00644531 3.09570312 0.00976562 C4.15080078 0.01814453 5.20589844 0.02652344 6.29296875 0.03515625 C7.36740234 0.03966797 8.44183594 0.04417969 9.54882812 0.04882812 C12.19276558 0.06057896 14.83658827 0.07700838 17.48046875 0.09765625 C17.48046875 0.42765625 17.48046875 0.75765625 17.48046875 1.09765625 C10.22046875 1.09765625 2.96046875 1.09765625 -4.51953125 1.09765625 C-4.51953125 2.08765625 -4.51953125 3.07765625 -4.51953125 4.09765625 C-5.91365234 4.37029297 -5.91365234 4.37029297 -7.3359375 4.6484375 C-15.00044284 6.04971673 -15.00044284 6.04971673 -22.26953125 8.72265625 C-26.6273299 10.5663403 -30.83067444 10.82406098 -35.51953125 11.09765625 C-35.51953125 11.75765625 -35.51953125 12.41765625 -35.51953125 13.09765625 C-37.16953125 13.09765625 -38.81953125 13.09765625 -40.51953125 13.09765625 C-32.46060609 6.04609674 -22.25962518 1.65015234 -11.51953125 2.09765625 C-11.18953125 1.76765625 -10.85953125 1.43765625 -10.51953125 1.09765625 C-6.96497358 0.20578826 -3.65566551 -0.02042271 0 0 Z " fill="#8597E1" transform="translate(81.51953125,1.90234375)"/>
<path d="M0 0 C1.53914063 0.2475 1.53914063 0.2475 3.109375 0.5 C10.69966604 1.44795192 18.39498789 1.03986569 26.02734375 0.9609375 C33.74548492 0.9125479 41.32163689 1.20261783 49 2 C49 2.33 49 2.66 49 3 C33.8437031 6.45021393 16.94765177 6.58956068 2 2 C1.34 1.34 0.68 0.68 0 0 Z " fill="#7B92ED" transform="translate(61,159)"/>
<path d="M0 0 C1.79727539 0.00809692 1.79727539 0.00809692 3.63085938 0.01635742 C23.27474989 0.3538034 23.27474989 0.3538034 29.71875 6.07421875 C30.29109375 6.74904297 30.29109375 6.74904297 30.875 7.4375 C29.54134524 7.1473066 28.20809785 6.85524108 26.875 6.5625 C26.1325 6.40007813 25.39 6.23765625 24.625 6.0703125 C22.52136239 5.5862368 20.44053716 5.00203807 18.375 4.375 C12.61297385 2.92501645 6.77648592 3.22461991 0.875 3.3125 C-0.85943359 3.32603516 -0.85943359 3.32603516 -2.62890625 3.33984375 C-5.46115647 3.36325078 -8.29296619 3.39604005 -11.125 3.4375 C-11.455 4.0975 -11.785 4.7575 -12.125 5.4375 C-14.77360427 6.03105614 -17.41697322 6.17959269 -20.125 6.4375 C-20.455 5.4475 -20.785 4.4575 -21.125 3.4375 C-14.05122752 0.1613179 -7.73145338 -0.06578367 0 0 Z " fill="#EEF3FE" transform="translate(87.125,-0.4375)"/>
<path d="M0 0 C1.90549866 1.60291696 2.89495123 2.58010824 3.50732422 5.02783203 C4.01627081 11.98151304 4.14972205 18.90338136 4.125 25.875 C4.12886719 26.98875 4.13273438 28.1025 4.13671875 29.25 C4.13542969 30.31992188 4.13414062 31.38984375 4.1328125 32.4921875 C4.13168457 33.45495605 4.13055664 34.41772461 4.12939453 35.40966797 C4.01199221 37.75992956 3.66758566 39.75195336 3 42 C2.34 42 1.68 42 1 42 C1.00523682 40.86981445 1.01047363 39.73962891 1.01586914 38.57519531 C1.03398226 34.37826328 1.04545512 30.18133469 1.05493164 25.984375 C1.05995741 24.16861388 1.06677903 22.3528568 1.07543945 20.53710938 C1.08758189 17.9257711 1.09324591 15.31448638 1.09765625 12.703125 C1.10281754 11.89256653 1.10797882 11.08200806 1.11329651 10.24688721 C1.11365296 6.6579583 0.97045947 3.45259214 0 0 Z " fill="#9CADED" transform="translate(164,60)"/>
<path d="M0 0 C0.495 1.485 0.495 1.485 1 3 C-2.2942064 6.67068713 -4.14037561 8.32191288 -9 9 C-10.093125 9.495 -11.18625 9.99 -12.3125 10.5 C-21.45639419 14.02891734 -32.75611085 13.80618063 -42 11 C-42 10.34 -42 9.68 -42 9 C-40.88625 9.165 -39.7725 9.33 -38.625 9.5 C-24.57100206 11.1766173 -13.06072857 8.55775487 -1 1 C-0.67 0.67 -0.34 0.34 0 0 Z " fill="#858BE9" transform="translate(101,129)"/>
<path d="M0 0 C0.66 0.66 1.32 1.32 2 2 C1.38511719 3.25490234 1.38511719 3.25490234 0.7578125 4.53515625 C-3.35278414 13.41522507 -5.20647929 21.2314864 -6 31 C-7.33333333 31 -8.66666667 31 -10 31 C-10.33416583 25.22804477 -9.25524588 20.88909831 -7.25 15.5 C-6.87101563 14.41912109 -6.87101563 14.41912109 -6.484375 13.31640625 C-4.76146674 8.55256491 -2.62275811 4.33325252 0 0 Z " fill="#C4CEEE" transform="translate(13,40)"/>
<path d="M0 0 C3.85577028 5.78365542 1.96148196 13.38981152 1 20 C0.67 20 0.34 20 0 20 C0 16.37 0 12.74 0 9 C-0.66 9 -1.32 9 -2 9 C-2 15.27 -2 21.54 -2 28 C-2.66 27.67 -3.32 27.34 -4 27 C-4.05455124 24.33305052 -4.09393392 21.66724502 -4.125 19 C-4.14175781 18.25621094 -4.15851562 17.51242188 -4.17578125 16.74609375 C-4.22147163 11.49169994 -3.57616758 7.02610082 -2 2 C-1.34 1.34 -0.68 0.68 0 0 Z " fill="#E2E6F8" transform="translate(4,67)"/>
<path d="M0 0 C0.33 0 0.66 0 1 0 C1.33 7.59 1.66 15.18 2 23 C2.33 22.67 2.66 22.34 3 22 C2.91062197 20.47480724 2.75462854 18.95318071 2.5625 17.4375 C2.46066406 16.61121094 2.35882813 15.78492187 2.25390625 14.93359375 C2.17011719 14.29550781 2.08632812 13.65742187 2 13 C2.66 13.33 3.32 13.66 4 14 C4.4140625 16.50390625 4.4140625 16.50390625 4.625 19.5625 C4.69976563 20.57441406 4.77453125 21.58632812 4.8515625 22.62890625 C4.92503906 23.80259766 4.92503906 23.80259766 5 25 C4.34 25 3.68 25 3 25 C3.22816406 25.60328125 3.45632813 26.2065625 3.69140625 26.828125 C3.97886719 27.62734375 4.26632813 28.4265625 4.5625 29.25 C4.85253906 30.03890625 5.14257812 30.8278125 5.44140625 31.640625 C6.04522837 34.19103452 5.8473932 35.55322229 5 38 C4.34 37.01 3.68 36.02 3 35 C2.34 35 1.68 35 1 35 C1.03255208 33.14453125 1.06510417 31.2890625 1.09765625 29.43359375 C1.04298333 26.87379352 1.04298333 26.87379352 0.5 23.875 C-0.11910632 19.07692603 -0.107711 14.39312171 -0.0625 9.5625 C-0.05798828 8.64017578 -0.05347656 7.71785156 -0.04882812 6.76757812 C-0.03713938 4.51164952 -0.02075455 2.25586033 0 0 Z " fill="#CDD3EA" transform="translate(2,76)"/>
<path d="M0 0 C8.90819642 3.21412948 18.1847938 9.42385108 24 17 C24 17.66 24 18.32 24 19 C22.68 18.67 21.36 18.34 20 18 C20 17.34 20 16.68 20 16 C19.44183594 15.75121094 18.88367188 15.50242187 18.30859375 15.24609375 C15.60678529 13.7877572 13.42733283 12.01922609 11.0625 10.0625 C8.50997738 7.95183601 6.12806452 6.07284237 3.24609375 4.43359375 C1 3 1 3 0 0 Z " fill="#BBCAEF" transform="translate(125,11)"/>
<path d="M0 0 C0.99 0.33 1.98 0.66 3 1 C2.60167969 1.38027344 2.20335937 1.76054688 1.79296875 2.15234375 C-3.1343163 7.6311011 -4.07383878 12.99125719 -4.88598633 20.09545898 C-5.59072455 25.60528679 -5.59072455 25.60528679 -8.0859375 28.01171875 C-9.03339844 28.50091797 -9.03339844 28.50091797 -10 29 C-10 28.01 -10 27.02 -10 26 C-9.34 26 -8.68 26 -8 26 C-8 22.04 -8 18.08 -8 14 C-7.34 14 -6.68 14 -6 14 C-5.814375 12.39125 -5.814375 12.39125 -5.625 10.75 C-4.75609756 5.53658537 -4.75609756 5.53658537 -3 3 C-2.01 2.67 -1.02 2.34 0 2 C0 1.34 0 0.68 0 0 Z " fill="#7989E7" transform="translate(49,37)"/>
<path d="M0 0 C1.76921585 5.30764754 -1.69131159 10.14947976 -4 15 C-7.86425128 22.44463575 -12.16024764 28.96499756 -18 35 C-18 31.03055432 -16.52573366 29.98982607 -14 27 C-8.76291356 19.75416807 -5.28031646 12.30436665 -2.1640625 3.9921875 C-1 1 -1 1 0 0 Z " fill="#BACAF8" transform="translate(165,103)"/>
<path d="M0 0 C2.78388975 1.70625501 3.85384206 2.47626739 4.75 5.6875 C4.8325 6.450625 4.915 7.21375 5 8 C5.61875 8.061875 6.2375 8.12375 6.875 8.1875 C9 9 9 9 10.25 11.5625 C10.4975 12.366875 10.745 13.17125 11 14 C9.68 13.34 8.36 12.68 7 12 C6.01 12.99 5.02 13.98 4 15 C3.13153169 13.25705322 2.28069373 11.50531337 1.4375 9.75 C0.72400391 8.28820312 0.72400391 8.28820312 -0.00390625 6.796875 C-1.03510273 3.90143703 -1.11346788 2.80033839 0 0 Z " fill="#D8E0F3" transform="translate(5,110)"/>
<path d="M0 0 C4.85012534 0.5938929 9.30968035 1.65990867 14 3 C19.02870097 3.8716415 23.8376919 4.10763105 28.9375 4.0625 C29.62134766 4.05798828 30.30519531 4.05347656 31.00976562 4.04882812 C32.67321604 4.0371956 34.3366205 4.01926694 36 4 C36 4.66 36 5.32 36 6 C22.97901645 6.46395172 11.39465445 6.32461464 -1 2 C-0.67 1.34 -0.34 0.68 0 0 Z " fill="#CED3E1" transform="translate(62,161)"/>
<path d="M0 0 C0.47308594 0.38671875 0.94617187 0.7734375 1.43359375 1.171875 C6.33904287 5.03503571 11.19610545 7.71606001 17 10 C17 10.33 17 10.66 17 11 C14.03 10.67 11.06 10.34 8 10 C8 9.34 8 8.68 8 8 C6.576875 8.2784375 6.576875 8.2784375 5.125 8.5625 C2 9 2 9 0 8 C0 5.36 0 2.72 0 0 Z " fill="#6B7FF1" transform="translate(41,127)"/>
<path d="M0 0 C0.33 0 0.66 0 1 0 C1.22048002 1.74457488 1.44076872 3.48917412 1.66015625 5.23388672 C1.84539507 6.70568743 2.03159661 8.1773673 2.21875 9.64892578 C2.71136161 13.55426041 3.145907 17.4542248 3.5 21.375 C3.63315645 25.03572825 3.63315645 25.03572825 6 27 C6.26991906 29.68839385 6.08737357 32.29141936 6 35 C-1.02607123 27.97392877 -0.03885197 13.96090613 -0.0625 4.75 C-0.04684498 3.166607 -0.02804921 1.58322194 0 0 Z " fill="#788EED" transform="translate(5,79)"/>
<path d="M0 0 C0.99 0 1.98 0 3 0 C2.7834375 0.74121094 2.566875 1.48242188 2.34375 2.24609375 C-0.14139137 11.64591087 -0.31246017 20.33687989 0 30 C-2.59668928 27.40331072 -2.25722357 26.30612788 -2.265625 22.6953125 C-2.26820312 21.63699219 -2.27078125 20.57867187 -2.2734375 19.48828125 C-2.26570313 18.37839844 -2.25796875 17.26851562 -2.25 16.125 C-2.25773437 15.02285156 -2.26546875 13.92070313 -2.2734375 12.78515625 C-2.27085938 11.72425781 -2.26828125 10.66335937 -2.265625 9.5703125 C-2.26336914 8.59852051 -2.26111328 7.62672852 -2.25878906 6.62548828 C-1.99449165 3.9441162 -1.36742059 2.29691353 0 0 Z " fill="#7B88E8" transform="translate(29,76)"/>
<path d="M0 0 C10.04462016 6.24569331 10.04462016 6.24569331 13 11 C13 11.99 13 12.98 13 14 C9.87311213 12.58378621 7.46099085 10.87668024 4.875 8.625 C4.19179688 8.03976563 3.50859375 7.45453125 2.8046875 6.8515625 C0.99345245 4.99328239 0.01347365 3.3717373 -1 1 C-0.67 0.67 -0.34 0.34 0 0 Z " fill="#E8E9F2" transform="translate(22,140)"/>
<path d="M0 0 C1.70884005 1.62339805 3.37446717 3.29319053 5 5 C5 5.66 5 6.32 5 7 C5.66 7.33 6.32 7.66 7 8 C6.67 8.99 6.34 9.98 6 11 C4.1875 10.8125 4.1875 10.8125 2 10 C0.1875 7.75 0.1875 7.75 -1 5 C-0.6875 2.1875 -0.6875 2.1875 0 0 Z " fill="#CBD3EA" transform="translate(11,122)"/>
<path d="M0 0 C0.66 0.66 1.32 1.32 2 2 C-0.97 8.93 -0.97 8.93 -4 16 C-4.66 14.68 -5.32 13.36 -6 12 C-4.8828125 8.984375 -4.8828125 8.984375 -3.125 5.75 C-2.55007812 4.67234375 -1.97515625 3.5946875 -1.3828125 2.484375 C-0.92648438 1.66453125 -0.47015625 0.8446875 0 0 Z " fill="#C8D8EF" transform="translate(13,40)"/>
<path d="M0 0 C0.33 0 0.66 0 1 0 C1.3125 2.6875 1.3125 2.6875 1 6 C-1.375 8.875 -1.375 8.875 -4 11 C-4.66 11 -5.32 11 -6 11 C-6 11.66 -6 12.32 -6 13 C-7.32 13.33 -8.64 13.66 -10 14 C-8.625 12 -8.625 12 -7 10 C-6.34 10 -5.68 10 -5 10 C-4.731875 9.46375 -4.46375 8.9275 -4.1875 8.375 C-2.79166667 5.58333333 -1.39583333 2.79166667 0 0 Z " fill="#909CED" transform="translate(138,107)"/>
<path d="M0 0 C2.5 1.6875 2.5 1.6875 5 4 C5.3125 6.75 5.3125 6.75 5 9 C4.01 8.67 3.02 8.34 2 8 C1.67 8.66 1.34 9.32 1 10 C0.63720544 8.71073008 0.28503302 7.41846728 -0.0625 6.125 C-0.35833984 5.04605469 -0.35833984 5.04605469 -0.66015625 3.9453125 C-1 2 -1 2 0 0 Z " fill="#F3F4F8" transform="translate(164,51)"/>
<path d="M0 0 C0.33 0.99 0.66 1.98 1 3 C-1.06756277 5.7972908 -2.14440371 6.02692273 -5.6875 6.6875 C-6.780625 6.790625 -7.87375 6.89375 -9 7 C-8.07347299 5.82460004 -7.13336613 4.65989423 -6.1875 3.5 C-5.66542969 2.8503125 -5.14335937 2.200625 -4.60546875 1.53125 C-3 0 -3 0 0 0 Z " fill="#97AAE8" transform="translate(34,18)"/>
<path d="M0 0 C0.99 0.33 1.98 0.66 3 1 C3 1.66 3 2.32 3 3 C3.66 3 4.32 3 5 3 C5 3.66 5 4.32 5 5 C5.66 5.33 6.32 5.66 7 6 C7.33 6.99 7.66 7.98 8 9 C2.98886765 7.5682479 1.05530451 5.01554307 -2 1 C-1.34 0.67 -0.68 0.34 0 0 Z " fill="#A8B7EC" transform="translate(32,142)"/>
<path d="M0 0 C0.33 0.99 0.66 1.98 1 3 C-1.25 5.5625 -1.25 5.5625 -4 8 C-6.3125 7.8125 -6.3125 7.8125 -8 7 C-8 6.34 -8 5.68 -8 5 C-6.25 3.7109375 -6.25 3.7109375 -4 2.375 C-3.2575 1.92898437 -2.515 1.48296875 -1.75 1.0234375 C-1.1725 0.68570313 -0.595 0.34796875 0 0 Z " fill="#7A87ED" transform="translate(101,129)"/>
<path d="M0 0 C2.24759674 1.75898875 2.97660927 2.92263068 3.8125 5.6875 C4.04997952 9.88297148 3.17974998 12.97497066 2 17 C1.67 17 1.34 17 1 17 C1.01160156 16.10796875 1.02320313 15.2159375 1.03515625 14.296875 C1.04417969 13.12640625 1.05320313 11.9559375 1.0625 10.75 C1.07410156 9.58984375 1.08570313 8.4296875 1.09765625 7.234375 C1.01782092 4.59022872 0.78643778 2.50173909 0 0 Z " fill="#8DA0EC" transform="translate(164,60)"/>
<path d="M0 0 C4.87440007 0.48744001 9.33909281 1.57319168 14 3 C13.67 3.66 13.34 4.32 13 5 C11.22773547 4.71715982 9.457212 4.42339502 7.6875 4.125 C6.20830078 3.88136719 6.20830078 3.88136719 4.69921875 3.6328125 C2 3 2 3 -1 1 C-0.67 0.67 -0.34 0.34 0 0 Z " fill="#D2D9EE" transform="translate(62,161)"/>
<path d="M0 0 C0.99 0.33 1.98 0.66 3 1 C3 1.66 3 2.32 3 3 C3.66 3 4.32 3 5 3 C5.66 4.65 6.32 6.3 7 8 C6.01 8.99 5.02 9.98 4 11 C2.68 7.37 1.36 3.74 0 0 Z " fill="#8399EC" transform="translate(15,122)"/>
<path d="M0 0 C2.475 0.495 2.475 0.495 5 1 C4.34 3.31 3.68 5.62 3 8 C1.5 6.8125 1.5 6.8125 0 5 C-0.1875 2.3125 -0.1875 2.3125 0 0 Z " fill="#637FF0" transform="translate(11,111)"/>
<path d="M0 0 C2 0 2 0 3.625 1.5 C5.61605945 5.12010808 5.2050035 7.89993009 5 12 C2.65085508 9.65085508 2.26859643 8.04320554 1.375 4.875 C1.11460938 3.96492188 0.85421875 3.05484375 0.5859375 2.1171875 C0.39257812 1.41851562 0.19921875 0.71984375 0 0 Z " fill="#A2B4F4" transform="translate(6,102)"/>
<path d="M0 0 C0 0.66 0 1.32 0 2 C-6.4 4.21538462 -6.4 4.21538462 -9.4375 3.125 C-9.953125 2.75375 -10.46875 2.3825 -11 2 C-9.73392393 1.46770674 -8.46189588 0.94955456 -7.1875 0.4375 C-6.47980469 0.14746094 -5.77210937 -0.14257812 -5.04296875 -0.44140625 C-3 -1 -3 -1 0 0 Z " fill="#B6C5F2" transform="translate(60,7)"/>
<path d="M0 0 C1.32 0.66 2.64 1.32 4 2 C4 2.66 4 3.32 4 4 C4.66 4 5.32 4 6 4 C6 4.66 6 5.32 6 6 C3.03 5.01 0.06 4.02 -3 3 C-2.01 2.01 -1.02 1.02 0 0 Z " fill="#677FF0" transform="translate(54,153)"/>
<path d="M0 0 C0.33 0 0.66 0 1 0 C0.88648483 1.81325551 0.75887039 3.62563357 0.625 5.4375 C0.55539062 6.44683594 0.48578125 7.45617188 0.4140625 8.49609375 C0.27742187 9.32238281 0.14078125 10.14867187 0 11 C-0.99 11.495 -0.99 11.495 -2 12 C-3.12377697 8.69564916 -2.89554742 6.9493138 -1.5625 3.75 C-1.27503906 3.04359375 -0.98757812 2.3371875 -0.69140625 1.609375 C-0.46324219 1.07828125 -0.23507812 0.5471875 0 0 Z " fill="#5D74EE" transform="translate(10,52)"/>
<path d="M0 0 C-0.66 1.32 -1.32 2.64 -2 4 C-4.97 4 -7.94 4 -11 4 C-3 0 -3 0 0 0 Z " fill="#96A1ED" transform="translate(93,135)"/>
<path d="M0 0 C3.63 1.65 7.26 3.3 11 5 C11 5.33 11 5.66 11 6 C8.03 5.67 5.06 5.34 2 5 C1.34 3.35 0.68 1.7 0 0 Z " fill="#848DE9" transform="translate(47,132)"/>
<path d="M0 0 C0.99 0.33 1.98 0.66 3 1 C2.071875 1.763125 1.14375 2.52625 0.1875 3.3125 C-1.98276101 5.11848552 -4.05568065 6.9476629 -6 9 C-5.12467243 5.71752159 -4.49145848 3.49145848 -2.0625 1.0625 C-1.381875 0.711875 -0.70125 0.36125 0 0 Z " fill="#A3B2EE" transform="translate(143,139)"/>
<path d="M0 0 C0.33 1.32 0.66 2.64 1 4 C0.34 4 -0.32 4 -1 4 C-1 4.66 -1 5.32 -1 6 C-1.66 6 -2.32 6 -3 6 C-3.33 6.99 -3.66 7.98 -4 9 C-4.66 8.67 -5.32 8.34 -6 8 C-4.02 5.36 -2.04 2.72 0 0 Z " fill="#99AAE9" transform="translate(22,27)"/>
<path d="M0 0 C0.66 0.66 1.32 1.32 2 2 C1.01 4.31 0.02 6.62 -1 9 C-2.1875 7.3125 -2.1875 7.3125 -3 5 C-1.625 2.25 -1.625 2.25 0 0 Z " fill="#D1DEF5" transform="translate(13,40)"/>
<path d="M0 0 C3.37503669 1.1858237 5.64722731 2.27573689 8 5 C5.125 4.75 5.125 4.75 2 4 C0.625 1.9375 0.625 1.9375 0 0 Z " fill="#ADBAE5" transform="translate(125,11)"/>
<path d="M0 0 C1.32 0.99 2.64 1.98 4 3 C3.34 4.32 2.68 5.64 2 7 C0.4375 5.75 0.4375 5.75 -1 4 C-0.6875 1.8125 -0.6875 1.8125 0 0 Z " fill="#EAF0F9" transform="translate(5,110)"/>
<path d="M0 0 C0.66 0 1.32 0 2 0 C0.7508258 3.45925163 -0.67527795 6.14693203 -3 9 C-2.5020163 5.26512223 -2.12508244 3.18762365 0 0 Z " fill="#8087E7" transform="translate(35,67)"/>
<path d="" fill="#F0F0FF" transform="translate(0,0)"/>
<path d="M0 0 C2 1 2 1 2 1 Z " fill="#E1E1F7" transform="translate(72,168)"/>
<path d="M0 0 C2 1 2 1 2 1 Z " fill="#E7E7F2" transform="translate(67,167)"/>
<path d="M0 0 C2 1 2 1 2 1 Z " fill="#F2F2F6" transform="translate(50,161)"/>
<path d="M0 0 C2 1 2 1 2 1 Z " fill="#F2EFF5" transform="translate(48,160)"/>
<path d="M0 0 C2 1 2 1 2 1 Z " fill="#EFEFF3" transform="translate(38,154)"/>
<path d="M0 0 C2 1 2 1 2 1 Z " fill="#EEEEF4" transform="translate(35,154)"/>
<path d="" fill="#EAEAEA" transform="translate(0,0)"/>
<path d="" fill="#EAEADF" transform="translate(0,0)"/>
<path d="" fill="#EEEEFF" transform="translate(0,0)"/>
<path d="" fill="#DFDFE7" transform="translate(0,0)"/>
<path d="" fill="#EAEAF8" transform="translate(0,0)"/>
<path d="" fill="#E0E0E0" transform="translate(0,0)"/>
<path d="" fill="#E8E8E8" transform="translate(0,0)"/>
<path d="" fill="#E9E9F0" transform="translate(0,0)"/>
</svg>
