<?xml version="1.0" encoding="UTF-8"?>
<svg version="1.1" xmlns="http://www.w3.org/2000/svg" width="188" height="188">
<path d="M0 0 C1.60232231 0.00068733 1.60232231 0.00068733 3.23701477 0.00138855 C5.48525103 0.00439873 7.73348543 0.01224787 9.98168945 0.0246582 C13.4247169 0.04296309 16.86747573 0.04516734 20.31054688 0.04492188 C22.49870024 0.04983588 24.68685179 0.05566369 26.875 0.0625 C27.90421066 0.06361282 28.93342133 0.06472565 29.99382019 0.06587219 C31.43100151 0.07544197 31.43100151 0.07544197 32.8972168 0.08520508 C33.73770065 0.08901688 34.57818451 0.09282867 35.44413757 0.09675598 C37.66717824 0.22632455 39.60399114 0.6132028 41.73828125 1.23046875 C43.15685025 7.3520776 42.13191237 11.04465589 39.73828125 16.76171875 C39.42375 17.55646606 39.10921875 18.35121338 38.78515625 19.17004395 C37.44713123 22.54945313 36.07151391 25.91320312 34.69921875 29.27880859 C33.69906333 31.74722653 32.71836405 34.22277746 31.73828125 36.69921875 C31.42375 37.45046021 31.10921875 38.20170166 30.78515625 38.97570801 C28.90051782 43.7448605 28.27545834 47.12594112 29.73828125 52.23046875 C31.19257186 54.14140394 31.19257186 54.14140394 33.25390625 55.4140625 C34.0008374 55.94136963 34.74776855 56.46867676 35.51733398 57.01196289 C36.33274658 57.55844482 37.14815918 58.10492676 37.98828125 58.66796875 C39.71490645 59.88217615 41.44011262 61.09840338 43.1640625 62.31640625 C44.0710791 62.94901367 44.9780957 63.58162109 45.91259766 64.23339844 C50.74559665 67.649152 55.46113002 71.21652185 60.17578125 74.79296875 C61.51527832 75.79251587 61.51527832 75.79251587 62.88183594 76.81225586 C73.25695619 84.66340174 73.25695619 84.66340174 74.30078125 90.23046875 C73.09585337 96.65675076 65.55549085 100.86610425 60.61328125 104.66796875 C59.8241333 105.27850098 59.03498535 105.8890332 58.22192383 106.51806641 C51.90601404 111.38240858 45.50378776 116.12332351 39.0690918 120.82885742 C32.96155056 125.30281985 26.93485806 129.87533129 20.92578125 134.48046875 C-5.18504473 154.47474936 -5.18504473 154.47474936 -11.89477539 154.50512695 C-13.04929703 154.51465897 -14.20381866 154.52419098 -15.39332581 154.53401184 C-16.64024704 154.53310043 -17.88716827 154.53218903 -19.171875 154.53125 C-20.45025742 154.53553513 -21.72863983 154.53982025 -23.04576111 154.54423523 C-25.75012941 154.54998264 -28.4541165 154.55140878 -31.15844727 154.54614258 C-34.62787477 154.54033762 -38.0967702 154.55730492 -41.56610966 154.58048725 C-44.87219451 154.59873435 -48.17824881 154.59504019 -51.484375 154.59375 C-52.73332047 154.60295975 -53.98226593 154.61216949 -55.26905823 154.62165833 C-56.4204277 154.61542953 -57.57179718 154.60920074 -58.75805664 154.6027832 C-60.28336754 154.60372734 -60.28336754 154.60372734 -61.8394928 154.60469055 C-63.03849464 154.41945076 -63.03849464 154.41945076 -64.26171875 154.23046875 C-66.26171875 151.23046875 -66.26171875 151.23046875 -65.76953125 147.58984375 C-63.66890856 139.26153228 -60.31402817 131.23664533 -57.27880859 123.21240234 C-56.45113403 121.01780349 -55.63335998 118.81970156 -54.81640625 116.62109375 C-54.56019501 115.95329895 -54.30398376 115.28550415 -54.04000854 114.59747314 C-52.73092901 111.06287382 -51.60396583 107.99662806 -52.26171875 104.23046875 C-53.78167571 102.42926997 -53.78167571 102.42926997 -55.9609375 101.03125 C-56.75185791 100.46680176 -57.54277832 99.90235352 -58.35766602 99.32080078 C-59.21287842 98.73411621 -60.06809082 98.14743164 -60.94921875 97.54296875 C-62.7025861 96.29794909 -64.45518785 95.05185056 -66.20703125 93.8046875 C-67.07102539 93.1967334 -67.93501953 92.5887793 -68.82519531 91.96240234 C-72.05174629 89.66890007 -75.19894794 87.28441321 -78.32421875 84.85546875 C-79.33355469 84.07171875 -80.34289062 83.28796875 -81.3828125 82.48046875 C-82.33285156 81.73796875 -83.28289062 80.99546875 -84.26171875 80.23046875 C-85.22207031 79.48796875 -86.18242188 78.74546875 -87.171875 77.98046875 C-88.51572266 76.92859375 -88.51572266 76.92859375 -89.88671875 75.85546875 C-90.66273437 75.24960938 -91.43875 74.64375 -92.23828125 74.01953125 C-95.21054517 71.391545 -97.01936211 69.32107364 -97.88671875 65.41796875 C-96.40856071 57.87936272 -87.42831264 52.90993877 -81.51171875 48.66796875 C-79.81633566 47.43499289 -78.12102516 46.20191721 -76.42578125 44.96875 C-75.56629883 44.34693848 -74.70681641 43.72512695 -73.82128906 43.08447266 C-69.82960373 40.1931279 -65.85653741 37.27673476 -61.88671875 34.35546875 C-61.11344238 33.78731445 -60.34016602 33.21916016 -59.54345703 32.63378906 C-53.43651596 28.13235213 -47.40796577 23.53310794 -41.38671875 18.91796875 C-29.57859642 9.89835344 -29.57859642 9.89835344 -23.88671875 5.85546875 C-22.95085937 5.18773437 -22.015 4.52 -21.05078125 3.83203125 C-14.22676185 -0.08652331 -7.68370576 -0.0539628 0 0 Z M-28.26171875 53.23046875 C-31.00981712 54.81969223 -31.00981712 54.81969223 -33.82421875 57.04296875 C-34.79488281 57.77128906 -35.76554687 58.49960938 -36.765625 59.25 C-39.25549152 61.14795706 -39.25549152 61.14795706 -41.26171875 63.23046875 C-41.54996505 66.09704446 -41.54996505 66.09704446 -40.26171875 69.23046875 C-37.90293836 71.75359681 -35.17644363 73.70734601 -32.38671875 75.73046875 C-31.58967529 76.32851318 -30.79263184 76.92655762 -29.97143555 77.54272461 C-27.4135021 79.45537312 -24.83853693 81.34336369 -22.26171875 83.23046875 C-20.53559193 84.51185454 -18.81032338 85.79439735 -17.0859375 87.078125 C-13.17607972 89.98065919 -9.26482134 92.88060579 -5.31103516 95.72314453 C-3.95874835 96.71778579 -2.63143871 97.74742926 -1.33349609 98.81201172 C0.64257672 100.45450091 0.64257672 100.45450091 3.73828125 102.23046875 C7.83780702 101.54519299 10.45033012 99.03018311 13.48828125 96.29296875 C14.266875 95.60332031 15.04546875 94.91367188 15.84765625 94.203125 C17.95895532 92.28198857 17.95895532 92.28198857 18.73828125 89.23046875 C15.67748686 84.25349837 10.97423684 81.24723406 6.30078125 77.91796875 C4.60286275 76.69060388 2.9063012 75.46136016 1.2109375 74.23046875 C0.32293457 73.5859375 -0.56506836 72.94140625 -1.47998047 72.27734375 C-7.22551225 68.04963281 -12.85873179 63.67089 -18.49389648 59.29760742 C-19.33509033 58.65025635 -20.17628418 58.00290527 -21.04296875 57.3359375 C-21.78611328 56.75996826 -22.52925781 56.18399902 -23.29492188 55.59057617 C-25.31711562 54.05672654 -25.31711562 54.05672654 -28.26171875 53.23046875 Z " fill="#5052E7" transform="translate(105.26171875,18.76953125)"/>
<path d="M0 0 C0.66 0.33 1.32 0.66 2 1 C0.25 4 0.25 4 -2 7 C-3.32 7 -4.64 7 -6 7 C-6.2475 7.5775 -6.495 8.155 -6.75 8.75 C-9.28929846 13.32073723 -12.60254325 15.35284518 -17.1328125 17.79296875 C-19.941055 19.6083389 -22.07655909 21.95719346 -24.32421875 24.4140625 C-26.1201489 26.11370735 -27.79749049 26.90291667 -30 28 C-32.22018648 29.75738829 -32.22018648 29.75738829 -34.3125 31.8125 C-35.03050781 32.47894531 -35.74851562 33.14539063 -36.48828125 33.83203125 C-38.30730982 35.94093907 -38.30730982 35.94093907 -37.73046875 38.76171875 C-37.48941406 39.50035156 -37.24835937 40.23898438 -37 41 C-35.02 40.505 -35.02 40.505 -33 40 C-32.76539063 40.7425 -32.53078125 41.485 -32.2890625 42.25 C-30.77284498 45.48459737 -29.19490134 46.83487452 -26.375 49 C-25.488125 49.68320313 -24.60125 50.36640625 -23.6875 51.0703125 C-21.29970279 52.78480643 -18.89033439 54.35681603 -16.375 55.875 C-14.704375 56.926875 -14.704375 56.926875 -13 58 C-13 58.66 -13 59.32 -13 60 C-11.68 60 -10.36 60 -9 60 C-9 60.66 -9 61.32 -9 62 C-8.34 62 -7.68 62 -7 62 C-7 62.66 -7 63.32 -7 64 C-6.01 64.309375 -6.01 64.309375 -5 64.625 C-2.38712737 65.82256662 -0.08758128 67.05620798 2.3125 68.625 C3.00988281 69.07101563 3.70726562 69.51703125 4.42578125 69.9765625 C6.41087221 72.52811862 6.50823069 74.53838804 6.35327148 77.72070312 C5.68528496 82.03053186 4.02955263 85.92393328 2.375 89.9375 C1.64315581 91.78982174 0.91270698 93.64269534 0.18359375 95.49609375 C-0.18266113 96.41632324 -0.54891602 97.33655273 -0.92626953 98.28466797 C-2.52845496 102.33639747 -4.06796117 106.40746508 -5.5625 110.5 C-5.82562988 111.18698975 -6.08875977 111.87397949 -6.35986328 112.58178711 C-7.79642873 116.54549655 -7.99070205 118.94882135 -7 123 C0.58053728 123.05076484 8.1610306 123.08576094 15.74169922 123.10986328 C18.31984088 123.11991262 20.89797118 123.13355426 23.47607422 123.15087891 C27.18459889 123.17517367 30.89297268 123.18649396 34.6015625 123.1953125 C35.75177887 123.20563507 36.90199524 123.21595764 38.08706665 123.22659302 C43.43814038 123.22734102 48.01322695 123.21379019 53 121 C50.86182873 123.56533229 49.66743139 124.87468637 46.33053589 125.50120544 C45.31508698 125.50137161 44.29963806 125.50153778 43.25341797 125.50170898 C42.09897186 125.51108994 40.94452576 125.52047089 39.75509644 125.53013611 C37.89245651 125.51328514 37.89245651 125.51328514 35.9921875 125.49609375 C34.71522003 125.49754898 33.43825256 125.49900421 32.12258911 125.50050354 C29.42378896 125.49884341 26.72639821 125.48935331 24.02783203 125.46655273 C20.56621538 125.43811031 17.10547935 125.44092219 13.64379692 125.45364285 C10.3432033 125.46225917 7.04275343 125.44716265 3.7421875 125.43359375 C1.87347488 125.43799721 1.87347488 125.43799721 -0.0329895 125.44248962 C-1.75520218 125.42346336 -1.75520218 125.42346336 -3.51220703 125.40405273 C-4.52606476 125.39864975 -5.53992249 125.39324677 -6.58450317 125.38768005 C-7.38161713 125.25974564 -8.17873108 125.13181122 -9 125 C-11 122 -11 122 -10.5078125 118.359375 C-8.40718981 110.03106353 -5.05230942 102.00617658 -2.01708984 93.98193359 C-1.18941528 91.78733474 -0.37164123 89.58923281 0.4453125 87.390625 C0.70152374 86.7228302 0.95773499 86.0550354 1.22171021 85.36700439 C2.53078974 81.83240507 3.65775292 78.76615931 3 75 C1.48004304 73.19880122 1.48004304 73.19880122 -0.69921875 71.80078125 C-1.49013916 71.23633301 -2.28105957 70.67188477 -3.09594727 70.09033203 C-3.95115967 69.50364746 -4.80637207 68.91696289 -5.6875 68.3125 C-7.44086735 67.06748034 -9.1934691 65.82138181 -10.9453125 64.57421875 C-11.80930664 63.96626465 -12.67330078 63.35831055 -13.56347656 62.73193359 C-16.79002754 60.43843132 -19.93722919 58.05394446 -23.0625 55.625 C-24.07183594 54.84125 -25.08117187 54.0575 -26.12109375 53.25 C-27.07113281 52.5075 -28.02117188 51.765 -29 51 C-29.96035156 50.2575 -30.92070312 49.515 -31.91015625 48.75 C-33.25400391 47.698125 -33.25400391 47.698125 -34.625 46.625 C-35.78902344 45.71621094 -35.78902344 45.71621094 -36.9765625 44.7890625 C-39.94882642 42.16107625 -41.75764336 40.09060489 -42.625 36.1875 C-41.13398843 28.583341 -32.02474787 23.58218742 -26.0625 19.3125 C-24.39015114 18.09830864 -22.7182852 16.8834519 -21.046875 15.66796875 C-20.20962891 15.06130371 -19.37238281 14.45463867 -18.50976562 13.82958984 C-14.58194661 10.96625563 -10.69594862 8.04808765 -6.8125 5.125 C-6.12357666 4.60719971 -5.43465332 4.08939941 -4.72485352 3.5559082 C-3.14932836 2.37136852 -1.57456757 1.18581227 0 0 Z " fill="#92CCC4" transform="translate(50,48)"/>
<path d="M0 0 C0.226875 0.556875 0.45375 1.11375 0.6875 1.6875 C4.12220715 7.73912688 10.22479247 11.51673682 15.75 15.5 C17.44479591 16.73720595 19.13878852 17.97551296 20.83203125 19.21484375 C21.68877441 19.84116699 22.54551758 20.46749023 23.42822266 21.11279297 C27.45369661 24.06674339 31.45424099 27.05191757 35.4375 30.0625 C36.14036133 30.58585937 36.84322266 31.10921875 37.56738281 31.6484375 C46.52114247 38.44609319 46.52114247 38.44609319 47.5625 44 C46.33021648 50.57217876 38.48218213 54.87980275 33.4375 58.75 C32.64408203 59.36182129 31.85066406 59.97364258 31.03320312 60.60400391 C28.6917491 62.40654432 26.34600318 64.203387 24 66 C22.74087172 66.97133642 21.48175581 67.94268886 20.22265625 68.9140625 C19.14899609 69.73510597 18.07482086 70.55547658 17 71.375 C16.071875 72.08398438 15.14375 72.79296875 14.1875 73.5234375 C12 75 12 75 10 75 C10.25 72.625 10.25 72.625 11 70 C12.8125 68.9375 12.8125 68.9375 15 68 C15.639375 67.360625 16.27875 66.72125 16.9375 66.0625 C19.12464107 63.87535893 21.3464265 62.56492796 24 61 C24.474375 60.525625 24.94875 60.05125 25.4375 59.5625 C28.17949906 56.82050094 31.56770663 54.79955332 34.9453125 52.9140625 C36.90438275 51.73227519 38.46211057 50.69836485 40 49 C40.65191735 46.1096408 40.33541429 44.01872858 40 41 C40 39.68 40 38.36 40 37 C38.02964744 34.77323718 38.02964744 34.77323718 34.8125 33.6875 C30.52724371 31.91243568 25.12588019 29.55483085 23.17285156 25.12304688 C21.73389375 22.51830558 20.17092113 21.37573405 17.75390625 19.65234375 C16.91666016 19.04712891 16.07941406 18.44191406 15.21679688 17.81835938 C14.34087891 17.19767578 13.46496094 16.57699219 12.5625 15.9375 C10.83301851 14.69886913 9.1050894 13.45806713 7.37890625 12.21484375 C6.6113501 11.66948975 5.84379395 11.12413574 5.05297852 10.56225586 C3.16837323 9.12812704 1.50851793 7.82563095 0 6 C-0.1875 2.8125 -0.1875 2.8125 0 0 Z " fill="#DFB7E2" transform="translate(132,65)"/>
<path d="M0 0 C0.96772842 -0.00315216 1.93545685 -0.00630432 2.93251038 -0.009552 C3.96597092 -0.00752777 4.99943146 -0.00550354 6.06420898 -0.00341797 C7.13525375 -0.00437469 8.20629852 -0.00533142 9.30979919 -0.00631714 C11.56997741 -0.00699657 13.83015759 -0.00515879 16.09033203 -0.00097656 C19.55106988 0.00438024 23.01167826 -0.0009323 26.47241211 -0.00732422 C28.66967802 -0.0066635 30.86694385 -0.00538246 33.06420898 -0.00341797 C34.61743614 -0.00645432 34.61743614 -0.00645432 36.20204163 -0.009552 C37.16661789 -0.00639984 38.13119415 -0.00324768 39.125 0 C40.3947744 0.00119339 40.3947744 0.00119339 41.69020081 0.00241089 C43.92163246 0.125203 45.85660134 0.50815264 47.99780273 1.12939453 C49.42748673 7.286662 48.36303433 11.12109348 46.03295898 16.90673828 C45.72079941 17.71808731 45.40863983 18.52943634 45.08702087 19.3653717 C44.0930359 21.93863992 43.07712524 24.50257647 42.06030273 27.06689453 C41.37979687 28.81697492 40.7007444 30.56762118 40.02319336 32.31884766 C38.36481534 36.59576356 36.68672795 40.86445428 34.99780273 45.12939453 C34.66780273 45.12939453 34.33780273 45.12939453 33.99780273 45.12939453 C34.56541949 40.1082311 35.68148661 35.78105574 37.46655273 31.05908203 C37.70692261 30.41496368 37.94729248 29.77084534 38.19494629 29.10720825 C38.95593724 27.07037479 39.72613682 25.03720511 40.49780273 23.00439453 C41.26830212 20.96404267 42.03667442 18.92295797 42.80065918 16.88015747 C43.49254379 15.0316243 44.19127359 13.18565745 44.89038086 11.33984375 C45.84207286 8.58086011 46.46234405 5.9874375 46.99780273 3.12939453 C39.32993377 3.00214591 31.66233922 2.9148546 23.99365234 2.85473633 C21.38742904 2.82966249 18.78127556 2.79559483 16.17529297 2.75219727 C12.41933923 2.69123563 8.66431889 2.6631118 4.90795898 2.64111328 C3.75135269 2.61530685 2.5947464 2.58950043 1.40309143 2.56291199 C-5.29955668 2.56061178 -9.69338599 3.35757261 -15.29200745 7.15046692 C-15.85637009 7.47351303 -16.42073273 7.79655914 -17.00219727 8.12939453 C-17.66219727 7.79939453 -18.32219727 7.46939453 -19.00219727 7.12939453 C-17.61353404 6.14008543 -16.21589875 5.16336375 -14.81469727 4.19189453 C-14.03739258 3.64662109 -13.26008789 3.10134766 -12.45922852 2.53955078 C-8.46580919 0.24762014 -4.53971989 0.00426262 0 0 Z " fill="#DACAED" transform="translate(99.002197265625,18.87060546875)"/>
<path d="M0 0 C0.66 0.33 1.32 0.66 2 1 C0.25 4 0.25 4 -2 7 C-3.32 7 -4.64 7 -6 7 C-6.2475 7.5775 -6.495 8.155 -6.75 8.75 C-9.28929846 13.32073723 -12.60254325 15.35284518 -17.1328125 17.79296875 C-19.941055 19.6083389 -22.07655909 21.95719346 -24.32421875 24.4140625 C-26.1201489 26.11370735 -27.79749049 26.90291667 -30 28 C-32.22018648 29.75738829 -32.22018648 29.75738829 -34.3125 31.8125 C-35.03050781 32.47894531 -35.74851562 33.14539063 -36.48828125 33.83203125 C-38.30730982 35.94093907 -38.30730982 35.94093907 -37.73046875 38.76171875 C-37.48941406 39.50035156 -37.24835937 40.23898438 -37 41 C-40 39 -40 39 -40.75 35.375 C-40.5397715 31.5773239 -39.45922667 29.93182142 -36.6875 27.375 C-34.81388607 25.87195844 -32.92986295 24.4272491 -31 23 C-29.96166016 22.22148682 -29.96166016 22.22148682 -28.90234375 21.42724609 C-24.05949969 17.80228308 -19.18014665 14.22951794 -14.28808594 10.67138672 C-11.10929353 8.3493623 -7.95720857 5.99288923 -4.8125 3.625 C-3.87019531 2.91601562 -2.92789063 2.20703125 -1.95703125 1.4765625 C-1.31121094 0.98929688 -0.66539063 0.50203125 0 0 Z " fill="#5CE090" transform="translate(50,48)"/>
<path d="M0 0 C0.66 0 1.32 0 2 0 C1.42462033 6.82653841 -0.93857271 12.86128688 -3.3125 19.25 C-3.70373047 20.31863281 -4.09496094 21.38726562 -4.49804688 22.48828125 C-4.88669922 23.54917969 -5.27535156 24.61007813 -5.67578125 25.703125 C-6.05943848 26.75177734 -6.4430957 27.80042969 -6.83837891 28.88085938 C-7.61010619 30.95307201 -8.40399145 33.01717255 -9.22021484 35.07226562 C-9.59484863 36.03326172 -9.96948242 36.99425781 -10.35546875 37.984375 C-10.69602295 38.83225586 -11.03657715 39.68013672 -11.38745117 40.55371094 C-12.09974976 43.39836293 -11.64779343 45.17539516 -11 48 C-3.41946272 48.05076484 4.1610306 48.08576094 11.74169922 48.10986328 C14.31984088 48.11991262 16.89797118 48.13355426 19.47607422 48.15087891 C23.18459889 48.17517367 26.89297268 48.18649396 30.6015625 48.1953125 C31.75177887 48.20563507 32.90199524 48.21595764 34.08706665 48.22659302 C39.43814038 48.22734102 44.01322695 48.21379019 49 46 C46.86182873 48.56533229 45.66743139 49.87468637 42.33053589 50.50120544 C41.31508698 50.50137161 40.29963806 50.50153778 39.25341797 50.50170898 C38.09897186 50.51108994 36.94452576 50.52047089 35.75509644 50.53013611 C34.51333649 50.51890213 33.27157654 50.50766815 31.9921875 50.49609375 C30.71522003 50.49754898 29.43825256 50.49900421 28.12258911 50.50050354 C25.42378896 50.49884341 22.72639821 50.48935331 20.02783203 50.46655273 C16.56621538 50.43811031 13.10547935 50.44092219 9.64379692 50.45364285 C6.3432033 50.46225917 3.04275343 50.44716265 -0.2578125 50.43359375 C-1.50362091 50.43652939 -2.74942932 50.43946503 -4.0329895 50.44248962 C-5.18113129 50.42980545 -6.32927307 50.41712128 -7.51220703 50.40405273 C-8.52606476 50.39864975 -9.53992249 50.39324677 -10.58450317 50.38768005 C-11.7801741 50.19577843 -11.7801741 50.19577843 -13 50 C-15 47 -15 47 -14.50390625 43.359375 C-12.59798945 35.80907107 -9.66034192 28.53572008 -6.9375 21.25 C-6.10261423 19.00900352 -5.26950337 16.76740345 -4.44081116 14.52410889 C-3.9281819 13.13700493 -3.41196634 11.75121925 -2.8915863 10.36700439 C-1.62101629 6.93527459 -0.59266145 3.61397939 0 0 Z " fill="#BAC8D1" transform="translate(54,123)"/>
<path d="M0 0 C3 1 3 1 4 3 C4.3359375 5.8515625 4.3359375 5.8515625 4 9 C2.1015625 11.3359375 2.1015625 11.3359375 -0.375 13.375 C-1.18710938 14.06335938 -1.99921875 14.75171875 -2.8359375 15.4609375 C-5 17 -5 17 -7 17 C-7.10453491 17.86963379 -7.10453491 17.86963379 -7.21118164 18.75683594 C-8.30217528 21.85929633 -10.00849292 22.92207656 -12.62109375 24.890625 C-13.55630859 25.59960938 -14.49152344 26.30859375 -15.45507812 27.0390625 C-16.93137695 28.13347656 -16.93137695 28.13347656 -18.4375 29.25 C-19.41783203 29.99507812 -20.39816406 30.74015625 -21.40820312 31.5078125 C-28.71603136 37 -28.71603136 37 -31 37 C-30.75 34.625 -30.75 34.625 -30 32 C-28.1875 30.9375 -28.1875 30.9375 -26 30 C-25.360625 29.360625 -24.72125 28.72125 -24.0625 28.0625 C-21.87535893 25.87535893 -19.6535735 24.56492796 -17 23 C-16.525625 22.525625 -16.05125 22.05125 -15.5625 21.5625 C-12.82050094 18.82050094 -9.43229337 16.79955332 -6.0546875 14.9140625 C-4.09340243 13.73093912 -2.53515123 12.70473189 -1 11 C-0.41996637 8.15560433 -0.71514412 5.94351078 -1 3 C-0.67 2.01 -0.34 1.02 0 0 Z " fill="#CA6DE4" transform="translate(173,103)"/>
<path d="M0 0 C2.07325706 4.14651412 -0.0385196 9.41156968 -1.375 13.625 C-2.56318221 17.04464637 -4.0462668 19.94198282 -6 23 C-7.74322932 26.89663023 -8.83765963 30.89762222 -10 35 C-10.51458755 36.54376265 -11.03565267 38.08537818 -11.5625 39.625 C-12.40406813 42.09500245 -13.07018831 44.36653894 -13.5625 46.9375 C-14 49 -14 49 -16 51 C-17.7683292 45.89600214 -15.96719002 42.22553801 -14.10546875 37.4453125 C-13.79805252 36.62553925 -13.49063629 35.80576599 -13.17390442 34.96115112 C-12.19017089 32.3444887 -11.18954517 29.73469824 -10.1875 27.125 C-9.19958711 24.52126961 -8.21523855 21.91623511 -7.23323059 19.31027222 C-6.62192435 17.69143812 -6.0066493 16.07409525 -5.38676453 14.45852661 C-4.07081024 11.00283416 -2.84057277 7.57729026 -1.85668945 4.01123047 C-1 1 -1 1 0 0 Z " fill="#4493BB" transform="translate(58,120)"/>
<path d="M0 0 C1.98 0.66 3.96 1.32 6 2 C6.8125 5.1875 6.8125 5.1875 7 9 C3.06760896 14.3277556 -3.00147518 18.41100405 -9.5 19.6875 C-14.259667 18.75256541 -17.5866027 16.42226327 -21 13 C-21 12.34 -21 11.68 -21 11 C-18.38284942 12.20791565 -16.37709024 13.47712237 -14.0625 15.25 C-11.2362073 17.27477175 -11.2362073 17.27477175 -8.625 16.6875 C-1.37572296 12.04009811 -1.37572296 12.04009811 3 5 C1.62750037 2.32323453 1.62750037 2.32323453 0 0 Z " fill="#9D7CE8" transform="translate(120,103)"/>
<path d="M0 0 C0.66 0.33 1.32 0.66 2 1 C1.484375 1.37125 0.96875 1.7425 0.4375 2.125 C-1.2459083 3.96007749 -1.2459083 3.96007749 -1.16796875 6.6640625 C0.67728006 11.93443871 4.78573524 14.12638308 9.25 17.25 C11.0734055 18.56833456 12.89632111 19.88734697 14.71875 21.20703125 C15.6159375 21.84850098 16.513125 22.4899707 17.4375 23.15087891 C20.93290447 25.67319154 24.34788387 28.29140968 27.75 30.9375 C28.77609375 31.73027344 29.8021875 32.52304688 30.859375 33.33984375 C31.56578125 33.88769531 32.2721875 34.43554688 33 35 C32.01 35.33 31.02 35.66 30 36 C28.19750977 34.97119141 28.19750977 34.97119141 26.19140625 33.3515625 C25.44971191 32.76238037 24.70801758 32.17319824 23.94384766 31.56616211 C23.15800293 30.92557861 22.3721582 30.28499512 21.5625 29.625 C19.93700644 28.32581067 18.31070227 27.02763492 16.68359375 25.73046875 C15.88679199 25.09157715 15.08999023 24.45268555 14.26904297 23.79443359 C10.3947527 20.73051779 6.39221886 17.84910331 2.3828125 14.96484375 C-0.19072473 12.84273026 -2.11863599 10.75407133 -4 8 C-3.9375 4.8125 -3.9375 4.8125 -3 2 C-2.01 1.34 -1.02 0.68 0 0 Z " fill="#CED6EB" transform="translate(66,78)"/>
<path d="M0 0 C0.33 0 0.66 0 1 0 C1.33 2.31 1.66 4.62 2 7 C4.07553648 7.5534764 5.84365964 8 8 8 C8.23589844 8.75152344 8.47179688 9.50304687 8.71484375 10.27734375 C10.2184852 13.46286987 11.69099206 14.57595117 14.5625 16.5625 C18.83157475 19.52011499 18.83157475 19.52011499 19.77734375 22.21484375 C19.85082031 22.80394531 19.92429687 23.39304687 20 24 C16.10035312 22.28912551 12.85247682 19.76837501 9.5 17.1875 C8.93152344 16.76146484 8.36304688 16.33542969 7.77734375 15.89648438 C4.33206651 13.25457225 1.46279407 10.6315777 -1 7 C-1.3125 3.75 -1.3125 3.75 -1 1 C-0.67 0.67 -0.34 0.34 0 0 Z " fill="#B5E0CD" transform="translate(9,80)"/>
<path d="M0 0 C0.66 0.33 1.32 0.66 2 1 C0.25 4 0.25 4 -2 7 C-3.32 7 -4.64 7 -6 7 C-6.2475 7.5775 -6.495 8.155 -6.75 8.75 C-8.67984598 12.22372276 -10.33921306 14.48942992 -14.26171875 15.6953125 C-16.50174814 16.19465971 -18.73493514 16.63216895 -21 17 C-16.93226011 12.67551913 -12.46343737 9.20009737 -7.6875 5.6875 C-6.57665039 4.86282227 -6.57665039 4.86282227 -5.44335938 4.02148438 C-3.63160324 2.67727821 -1.817141 1.33691256 0 0 Z " fill="#78BFBA" transform="translate(50,48)"/>
<path d="M0 0 C0.66 0.33 1.32 0.66 2 1 C-6.76420457 7.88216237 -15.54342634 14.74400064 -24.5 21.375 C-25.127854 21.84462158 -25.75570801 22.31424316 -26.40258789 22.7980957 C-30.7626407 26 -30.7626407 26 -33 26 C-33 25.34 -33 24.68 -33 24 C-30.96927485 22.41682597 -28.93605061 20.94953964 -26.8125 19.5 C-20.70799476 15.24719469 -14.79426988 10.81336952 -8.9375 6.2265625 C-6.02313566 4.01753634 -3.06204837 1.99579938 0 0 Z " fill="#D0BFE2" transform="translate(140,140)"/>
<path d="M0 0 C0.226875 0.556875 0.45375 1.11375 0.6875 1.6875 C4.26655389 7.9934521 10.7376704 11.87018338 16.5 16 C21.69144179 19.72066578 26.65450777 23.29831989 31 28 C27.33881951 27.38437539 25.14304908 25.82862417 22.2265625 23.578125 C20.8653125 22.53398438 20.8653125 22.53398438 19.4765625 21.46875 C18.53554687 20.7365625 17.59453125 20.004375 16.625 19.25 C15.69171875 18.53328125 14.7584375 17.8165625 13.796875 17.078125 C11.1862579 15.06654468 8.59176005 13.03577976 6 11 C5.34402832 10.50024658 4.68805664 10.00049316 4.01220703 9.4855957 C2.359375 8.19140625 2.359375 8.19140625 0 6 C-0.375 2.6875 -0.375 2.6875 0 0 Z " fill="#E0CBEC" transform="translate(132,65)"/>
<path d="M0 0 C0.66 0.33 1.32 0.66 2 1 C1.67 1.66 1.34 2.32 1 3 C0.34 3 -0.32 3 -1 3 C-1 3.66 -1 4.32 -1 5 C-2.86328125 6.47265625 -2.86328125 6.47265625 -5.3125 8.0625 C-6.11300781 8.58972656 -6.91351563 9.11695313 -7.73828125 9.66015625 C-10 11 -10 11 -13 12 C-13 12.66 -13 13.32 -13 14 C-13.66 14 -14.32 14 -15 14 C-15.35191406 14.93585937 -15.35191406 14.93585937 -15.7109375 15.890625 C-17.36823075 18.60255941 -18.6141599 18.88975997 -21.625 19.75 C-22.85089844 20.11351562 -22.85089844 20.11351562 -24.1015625 20.484375 C-24.72804687 20.65453125 -25.35453125 20.8246875 -26 21 C-21.2772016 15.87267925 -15.74583324 11.86464902 -10.1875 7.6875 C-8.71893555 6.57665039 -8.71893555 6.57665039 -7.22070312 5.44335938 C-4.81637568 3.62545326 -2.40943211 1.8111317 0 0 Z " fill="#BBC8DE" transform="translate(78,27)"/>
<path d="M0 0 C3 1 3 1 4 3 C4.328125 5.85546875 4.328125 5.85546875 4 9 C2.171875 11.30078125 2.171875 11.30078125 -0.25 13.3125 C-1.43335938 14.32763672 -1.43335938 14.32763672 -2.640625 15.36328125 C-4.86244316 16.90457564 -6.36025371 17.58224199 -9 18 C-6.42215154 15.35247996 -4.08351902 13.05567935 -1 11 C-0.93625065 8.99189537 -0.87970348 6.97862124 -0.9921875 4.97265625 C-1 3 -1 3 0 0 Z " fill="#E30DF3" transform="translate(173,103)"/>
<path d="M0 0 C0 0.66 0 1.32 0 2 C-0.721875 2.0825 -1.44375 2.165 -2.1875 2.25 C-5.10260604 2.82231293 -5.10260604 2.82231293 -7.3125 4.875 C-10.72169483 7.57064243 -13.89453804 8.60831798 -18 10 C-17.4186368 7.07482517 -17.09286948 6.09568371 -14.9375 3.875 C-10.14629114 0.81678158 -5.64057962 0 0 0 Z " fill="#407CCC" transform="translate(80,71)"/>
<path d="M0 0 C0.66 0.33 1.32 0.66 2 1 C1.33613281 1.59167969 0.67226562 2.18335938 -0.01171875 2.79296875 C-5.62159676 7.77400123 -5.62159676 7.77400123 -11 13 C-13 15 -13 15 -15 16 C-15.33 14.68 -15.66 13.36 -16 12 C-15.34 12 -14.68 12 -14 12 C-14 11.34 -14 10.68 -14 10 C-11.8828125 8.2734375 -11.8828125 8.2734375 -9.125 6.375 C-8.22007813 5.74335937 -7.31515625 5.11171875 -6.3828125 4.4609375 C-4 3 -4 3 -2 3 C-2 2.34 -2 1.68 -2 1 C-1.34 0.67 -0.68 0.34 0 0 Z " fill="#3266D9" transform="translate(79,29)"/>
<path d="M0 0 C4.91319147 1.53537234 9.32235164 4.41360843 13 8 C13 8.99 13 9.98 13 11 C8.54658239 10.09754533 5.34296575 8.03982528 2 5 C0.5625 2.1875 0.5625 2.1875 0 0 Z " fill="#85B7C7" transform="translate(43,112)"/>
<path d="M0 0 C0.66 0.33 1.32 0.66 2 1 C0.99150442 4.02548673 -0.01716981 7.04948945 -1.0625 10.0625 C-2.04970492 12.93817101 -2.04970492 12.93817101 -2.5 15.75 C-3 18 -3 18 -5 20 C-6.43429365 15.39470774 -5.43469742 12.69676696 -3.625 8.3125 C-2.93277344 6.60513672 -2.93277344 6.60513672 -2.2265625 4.86328125 C-1.52450758 3.22440782 -0.79734399 1.59468799 0 0 Z " fill="#44A6AD" transform="translate(47,151)"/>
<path d="M0 0 C3.80133442 1.67923025 6.97082702 4.11462834 10.25 6.625 C10.80429688 7.04523438 11.35859375 7.46546875 11.9296875 7.8984375 C13.28866663 8.92938719 14.64463835 9.96429911 16 11 C12.125 14 12.125 14 11 14 C10.979375 13.278125 10.95875 12.55625 10.9375 11.8125 C9.72415286 8.17245858 7.99248328 6.9473446 4.85546875 4.87109375 C2.89685883 3.76975612 2.89685883 3.76975612 0.0625 4.1875 C-0.618125 4.455625 -1.29875 4.72375 -2 5 C-1.34 3.35 -0.68 1.7 0 0 Z " fill="#9D2AEF" transform="translate(136,75)"/>
<path d="M0 0 C-1.54677359 4.56564893 -5.15236854 6.61686507 -8.9375 9.25 C-9.57107422 9.70890625 -10.20464844 10.1678125 -10.85742188 10.640625 C-15.61153739 14 -15.61153739 14 -19 14 C-3.64974619 0 -3.64974619 0 0 0 Z " fill="#C6E1D4" transform="translate(29,65)"/>
<path d="M0 0 C0.66 0 1.32 0 2 0 C2 0.66 2 1.32 2 2 C1.01 2.495 1.01 2.495 0 3 C-0.45375 3.78375 -0.9075 4.5675 -1.375 5.375 C-3.02202409 8.03557737 -4.354301 9.37844255 -7 11 C-7.66 11 -8.32 11 -9 11 C-8.75 8.625 -8.75 8.625 -8 6 C-6.1875 4.9375 -6.1875 4.9375 -4 4 C-3.29875 3.29875 -2.5975 2.5975 -1.875 1.875 C-1.25625 1.25625 -0.6375 0.6375 0 0 Z " fill="#B96AE6" transform="translate(151,129)"/>
<path d="M0 0 C0.99 0.33 1.98 0.66 3 1 C0.38084613 3.00775098 -2.24624446 5.00484195 -4.875 7 C-5.62136719 7.57234375 -6.36773437 8.1446875 -7.13671875 8.734375 C-7.85214844 9.27578125 -8.56757812 9.8171875 -9.3046875 10.375 C-9.96452637 10.87773437 -10.62436523 11.38046875 -11.30419922 11.8984375 C-13 13 -13 13 -15 13 C-15 12.34 -15 11.68 -15 11 C-12.71890987 9.23105139 -10.43814453 7.56974556 -8.0625 5.9375 C-3.84343916 3.19157611 -3.84343916 3.19157611 0 0 Z " fill="#D2CCE7" transform="translate(122,153)"/>
<path d="M0 0 C0.66 0.33 1.32 0.66 2 1 C0.27860959 2.63396428 -1.45128792 4.25691274 -3.1875 5.875 C-3.91163086 6.56529297 -3.91163086 6.56529297 -4.65039062 7.26953125 C-7.59421881 9.99602984 -10.16905516 11.78138135 -14 13 C-12.65427408 8.96282223 -9.96886397 7.37468459 -6.55859375 5.1484375 C-4.84427485 4.06753066 -4.84427485 4.06753066 -4 2 C-2.0625 0.8125 -2.0625 0.8125 0 0 Z " fill="#52CA9C" transform="translate(33,63)"/>
<path d="M0 0 C8.35010941 2.15317287 8.35010941 2.15317287 11.0625 5.6875 C11.371875 6.450625 11.68125 7.21375 12 8 C11.01 8.495 11.01 8.495 10 9 C8.3278148 7.88321917 6.66237197 6.75633648 5 5.625 C3.6078125 4.68527344 3.6078125 4.68527344 2.1875 3.7265625 C1.465625 3.15679687 0.74375 2.58703125 0 2 C0 1.34 0 0.68 0 0 Z " fill="#CE59EC" transform="translate(156,90)"/>
<path d="M0 0 C0.33 0 0.66 0 1 0 C0.96519531 0.81984375 0.93039063 1.6396875 0.89453125 2.484375 C0.86746094 3.56203125 0.84039062 4.6396875 0.8125 5.75 C0.77769531 6.81734375 0.74289063 7.8846875 0.70703125 8.984375 C1.02917214 12.30027855 1.77148914 13.59016673 4 16 C1.53199953 14.84826645 -0.04783565 13.95216435 -2 12 C-2.52941176 3.79411765 -2.52941176 3.79411765 0 0 Z " fill="#8A40EA" transform="translate(132,59)"/>
<path d="M0 0 C2 2 2 2 2.25 4.8125 C3.30167901 9.28213579 5.33836964 10.35116102 9 13 C6 14 6 14 4 13.5 C0.92460674 11.19345505 0.15941398 8.60028551 -1 5 C-0.6875 2.0625 -0.6875 2.0625 0 0 Z " fill="#4380C7" transform="translate(61,80)"/>
<path d="M0 0 C0.33 0 0.66 0 1 0 C1.061875 1.051875 1.12375 2.10375 1.1875 3.1875 C2.13976379 7.6558147 3.66945892 9.01105287 7 12 C7 12.66 7 13.32 7 14 C3.18565079 12.50150567 1.19209175 10.44471561 -1 7 C-1.3125 3.75 -1.3125 3.75 -1 1 C-0.67 0.67 -0.34 0.34 0 0 Z " fill="#C8E6D2" transform="translate(9,80)"/>
<path d="M0 0 C0.33 0.99 0.66 1.98 1 3 C3.00016466 4.20882096 3.00016466 4.20882096 5 5 C3.02 5.99 3.02 5.99 1 7 C-1.02054804 5.35830472 -3.02043058 3.69088222 -5 2 C-5 1.67 -5 1.34 -5 1 C-3.35 0.67 -1.7 0.34 0 0 Z " fill="#9D85E6" transform="translate(117,96)"/>
<path d="M0 0 C0.66 0.33 1.32 0.66 2 1 C1.484375 1.37125 0.96875 1.7425 0.4375 2.125 C-1.34104523 4.02101482 -1.34104523 4.02101482 -0.8125 7.125 C-0.4103125 8.548125 -0.4103125 8.548125 0 10 C0.66 10.33 1.32 10.66 2 11 C1.67 11.99 1.34 12.98 1 14 C-4 8.87804878 -4 8.87804878 -4 4.75 C-3 2 -3 2 0 0 Z " fill="#C0CFE0" transform="translate(66,78)"/>
<path d="M0 0 C0.66 0.33 1.32 0.66 2 1 C0.4375 3.9375 0.4375 3.9375 -2 7 C-5.75 7.875 -5.75 7.875 -9 8 C-6.14723863 5.06799526 -3.34920216 2.35684596 0 0 Z " fill="#A9C9D1" transform="translate(50,48)"/>
<path d="M0 0 C2.53446685 1.16975393 4.68691721 2.47225558 7 4.0625 C9.52028428 5.6901836 11.09722532 6.55341928 14 7 C13.67 7.33 13.34 7.66 13 8 C6.9029191 7.76089879 4.17356744 6.17356744 0 2 C0 1.34 0 0.68 0 0 Z " fill="#D2D0EA" transform="translate(99,114)"/>
<path d="M0 0 C0.66 0.33 1.32 0.66 2 1 C-1.96 4.465 -1.96 4.465 -6 8 C-6.33 7.34 -6.66 6.68 -7 6 C-2.25 1.125 -2.25 1.125 0 0 Z M-12 9 C-10.68 9.33 -9.36 9.66 -8 10 C-8.99 10.495 -8.99 10.495 -10 11 C-10.66 10.34 -11.32 9.68 -12 9 Z " fill="#4798BC" transform="translate(56,46)"/>
<path d="M0 0 C-0.56460938 0.27457031 -1.12921875 0.54914062 -1.7109375 0.83203125 C-4.87663051 2.44729099 -7.91584504 4.26931061 -10.9765625 6.07421875 C-11.97816406 6.53248047 -11.97816406 6.53248047 -13 7 C-13.66 6.67 -14.32 6.34 -15 6 C-5.77448747 -0.88838269 -5.77448747 -0.88838269 0 0 Z " fill="#AEB5DC" transform="translate(95,20)"/>
<path d="M0 0 C-0.34021964 3.17538332 -1.02466604 4.02276865 -3.4375 6.25 C-6 8 -6 8 -8 8 C-7.67 7.01 -7.34 6.02 -7 5 C-6.34 5 -5.68 5 -5 5 C-4.87625 4.360625 -4.7525 3.72125 -4.625 3.0625 C-4.41875 2.381875 -4.2125 1.70125 -4 1 C-2 0 -2 0 0 0 Z " fill="#C884E2" transform="translate(158,126)"/>
<path d="M0 0 C2.93879484 1.35236577 5.29232911 2.89942659 7.75 5 C8.67039063 5.7734375 8.67039063 5.7734375 9.609375 6.5625 C11 8 11 8 11 10 C9 10 9 10 6.625 7.6875 C5.75875 6.800625 4.8925 5.91375 4 5 C3.236875 4.443125 2.47375 3.88625 1.6875 3.3125 C1.130625 2.879375 0.57375 2.44625 0 2 C0 1.34 0 0.68 0 0 Z " fill="#E9CAED" transform="translate(167,96)"/>
<path d="M0 0 C0 0.99 0 1.98 0 3 C-1.28650706 3.69710731 -2.57940665 4.38242876 -3.875 5.0625 C-4.95394531 5.63677734 -4.95394531 5.63677734 -6.0546875 6.22265625 C-6.69664063 6.47917969 -7.33859375 6.73570313 -8 7 C-8.66 6.67 -9.32 6.34 -10 6 C-3.71428571 0.42857143 -3.71428571 0.42857143 0 0 Z " fill="#93B4D1" transform="translate(62,41)"/>
<path d="M0 0 C0 0.66 0 1.32 0 2 C-1.0828125 2.12375 -1.0828125 2.12375 -2.1875 2.25 C-5.55221031 3.14725608 -7.35673807 4.78537514 -10 7 C-10.66 7 -11.32 7 -12 7 C-10.77887968 3.33663903 -9.13279518 2.64957986 -5.88671875 0.76953125 C-4 0 -4 0 0 0 Z " fill="#C0CAE0" transform="translate(80,71)"/>
<path d="M0 0 C0.66 0.33 1.32 0.66 2 1 C-0.97 4.96 -0.97 4.96 -4 9 C-4.66 7.68 -5.32 6.36 -6 5 C-5.34 5 -4.68 5 -4 5 C-4 4.34 -4 3.68 -4 3 C-2 1.375 -2 1.375 0 0 Z " fill="#3777CD" transform="translate(69,36)"/>
<path d="M0 0 C0.66 0.33 1.32 0.66 2 1 C-0.64 2.98 -3.28 4.96 -6 7 C-6.66 6.67 -7.32 6.34 -8 6 C-5.36 4.02 -2.72 2.04 0 0 Z " fill="#D11DEC" transform="translate(172,114)"/>
<path d="M0 0 C3.34249629 0.59687434 5.46436342 1.73603877 8 4 C8 4.66 8 5.32 8 6 C4.63408134 4.55746343 2.48952921 2.66735273 0 0 Z " fill="#D4E4E4" transform="translate(37,110)"/>
<path d="M0 0 C0.309375 0.78375 0.61875 1.5675 0.9375 2.375 C1.92875038 4.92330128 1.92875038 4.92330128 3 7 C1.1875 6.8125 1.1875 6.8125 -1 6 C-2.75 3.4375 -2.75 3.4375 -4 1 C-2 0 -2 0 0 0 Z " fill="#5ADE91" transform="translate(17,88)"/>
<path d="M0 0 C-1.36983503 3.16115776 -1.9890638 3.9927092 -5 6 C-5.99 5.67 -6.98 5.34 -8 5 C-2.25 0 -2.25 0 0 0 Z " fill="#C6DFDA" transform="translate(37,59)"/>
<path d="M0 0 C1.32 0 2.64 0 4 0 C3.67 1.98 3.34 3.96 3 6 C2.01 5.34 1.02 4.68 0 4 C0 2.68 0 1.36 0 0 Z " fill="#9D1DF5" transform="translate(141,27)"/>
<path d="M0 0 C0.99 0.33 1.98 0.66 3 1 C1.87926138 1.83905565 0.75325453 2.67107831 -0.375 3.5 C-1.00148438 3.9640625 -1.62796875 4.428125 -2.2734375 4.90625 C-4 6 -4 6 -6 6 C-6 5.34 -6 4.68 -6 4 C-3.1875 1.8125 -3.1875 1.8125 0 0 Z " fill="#2D49E9" transform="translate(89,22)"/>
</svg>
